<?xml version="1.0" standalone="no"?>
<!DOCTYPE svg PUBLIC "-//W3C//DTD SVG 1.1//EN" "http://www.w3.org/Graphics/SVG/1.1/DTD/svg11.dtd" >
<svg xmlns="http://www.w3.org/2000/svg">
<metadata>
This is a custom SVG webfont generated by Font Squirrel.
Copyright   : 2000 Iconian Fonts  wwwiconiancom
</metadata>
<defs>
<font id="MichaelmasRegular" horiz-adv-x="532" >
<font-face units-per-em="2048" ascent="1638" descent="-410" />
<missing-glyph horiz-adv-x="663" />
<glyph unicode=" "  horiz-adv-x="663" />
<glyph unicode="&#x09;" horiz-adv-x="663" />
<glyph unicode="&#xa0;" horiz-adv-x="663" />
<glyph unicode="!" horiz-adv-x="364" d="M43 90q0 35 36 54.5t66 19.5q43 0 76 -26.5t45 -65.5q-23 -43 -47 -59.5t-65 -16.5q-37 0 -74 26.5t-37 67.5zM115 307q0 57 6 101q4 23 8 57.5t8 85.5q10 100 19.5 201.5t9.5 201.5q-31 0 -51.5 18.5t16.5 59.5q6 4 22.5 11.5t36 15.5t38 16t26.5 12q2 0 9 2.5t11 2.5 q41 0 52.5 -33t11.5 -62v-36q0 -92 -10.5 -180.5t-22.5 -180.5q-6 -45 -12 -89t-10 -89q-8 -88 -29 -115h-139z" />
<glyph unicode="&#x22;" horiz-adv-x="614" d="M18 1024q0 20 13.5 35.5t33 26t41 16.5t39.5 6q47 0 65.5 -39t18.5 -76q0 -33 -18 -65.5t-46 -58t-61.5 -42t-66.5 -16.5q0 4 1 14.5t3 14.5l20 20q4 6 12.5 21.5t8.5 19.5q0 25 -10.5 39t-21.5 26.5t-21.5 25t-10.5 32.5zM326 1010q0 23 21.5 40t50 29.5t58 18.5t46.5 6 q37 0 65.5 -16.5t28.5 -55.5q0 -43 -18.5 -92t-50 -92t-73.5 -70.5t-89 -27.5q0 2 1 12t3 12q4 16 19 47t42 97q-20 14 -32.5 23t-22.5 17.5t-21.5 17.5t-25.5 23q0 2 -1 5.5t-1 5.5z" />
<glyph unicode="#" horiz-adv-x="1013" d="M8 250h86q57 0 125 -2l-69 -248q2 0 9 -2t11 -2q31 0 56.5 22.5t47 57.5t38 80t30.5 92q61 -2 119 -2h106l-69 -248q2 0 9 -2t11 -2q31 0 56.5 22.5t47 58.5t39 81t31.5 92q63 10 129 46t103 83h-62q-4 0 -16 -3t-25.5 -7.5t-26 -7.5t-14.5 -3h-22q-14 0 -37 -2l14 58 l10 41l35 139q61 10 127 45t101 82h-62q-4 0 -16 -3t-25.5 -7t-26 -7.5t-14.5 -3.5h-20q-14 0 -35 -2q16 63 43 134t27 139q-37 0 -62.5 -14.5t-43 -39t-29 -55.5t-19.5 -63l-31 -105q-39 -2 -73 -2h-58h-106q8 31 22.5 67t28.5 72.5t24.5 73.5t10.5 72q-37 0 -64.5 -15.5 t-48 -41t-34 -57.5t-21.5 -64l-31 -107h-143q-14 -4 -32.5 -14t-36 -23.5t-29 -30t-11.5 -30.5h92q59 0 131 -2l-67 -242h-131q-14 -4 -32.5 -14t-36 -23.5t-29 -30t-11.5 -30.5zM369 348q10 35 16 61.5t10 43.5l35 137q68 -2 127 -2h109l-68 -238q-35 -2 -68 -2h-51h-110z " />
<glyph unicode="$" horiz-adv-x="655" d="M18 291q0 2 1 6l1 4q6 6 28 28.5t36 39.5q10 14 28.5 24t30.5 15q2 0 11.5 -3.5t19.5 -8.5t19.5 -8t11.5 -3h14q12 0 28.5 -1t33.5 -1h26q14 0 33.5 -1t40 0t39 6t31.5 20l1 4q1 4 1 6t-1 6l-1 4q-4 6 -13.5 16.5t-19.5 20.5l-19 18q-8 8 -10 9l-246 63q-14 4 -31.5 19.5 t-41.5 48.5q-33 61 -25 94q10 37 53 86q47 53 193 110q14 31 24.5 58.5t20.5 52.5q23 49 51 41q16 -4 25 -5l8 -1v-121l194 -43l21 -21q10 -10 -5.5 -28.5t-37 -35.5t-40.5 -30l-20 -12h-225q-2 0 -10 -8t-10 -12l-1 -5q-1 -4 -1 -8q0 -25 24.5 -40t61.5 -26.5t80 -21.5 t79.5 -25.5t61 -39t24.5 -58.5q0 -59 -38.5 -97t-89 -69.5t-97.5 -63.5t-63 -79q-12 -35 -18.5 -81t-20 -87t-41 -68.5t-84.5 -27.5v264q-6 2 -23.5 7t-37 12.5t-38 13.5t-24.5 10q-4 2 -11 9t-10 12l-1 4q-1 4 -1 8z" />
<glyph unicode="%" horiz-adv-x="970" d="M18 745q0 63 29 113.5t75 85.5t103.5 53.5t114.5 18.5q43 0 79 -11.5t56 -52.5q10 -18 28.5 -26t41.5 -8t46 4t44 8q66 8 101.5 36.5t47.5 45.5q14 16 55.5 36.5t82.5 20.5l24 -41l-106 -139l-553 -737q-31 -23 -52.5 -54.5t-45 -61.5t-53.5 -51.5t-75 -21.5v25 q18 20 62.5 74.5t93.5 117t92 118.5t60 79q66 92 128 181t117 187q14 25 18.5 32t4.5 30q0 4 -1 11t-1 9q-76 -10 -131 -50t-106.5 -84t-109 -78.5t-136.5 -34.5q-35 0 -60.5 14t-42 37.5t-24 53t-7.5 60.5zM162 897q0 -29 3 -60.5t14 -58t32.5 -45t58.5 -18.5q33 0 38 19.5 t5 47.5q0 61 -48 88t-103 27zM428 154q0 55 28.5 108t72.5 95t99.5 69t108.5 27q41 0 69 -15.5t45 -41t24.5 -58.5t7.5 -70q0 -49 -31 -95t-78 -83t-101.5 -61.5t-99.5 -28.5q-35 -4 -62.5 8t-46 35t-27.5 51.5t-9 59.5zM592 266q0 -18 5 -39.5t17.5 -40t30 -31t41.5 -12.5 q35 0 44 14.5t9 43.5q0 47 -25.5 88t-78.5 41q-31 0 -37 -17.5t-6 -46.5z" />
<glyph unicode="&#x26;" horiz-adv-x="1413" d="M18 244q0 76 25 138t64.5 115.5t92 99.5t107.5 87q0 2 1 5t1 5t-1 6l-1 5l-61 63l-1 5q-1 5 -1 7q0 45 39 89t94 80t112.5 57.5t94.5 21.5h22q23 0 47.5 -6t24.5 -27q0 -31 -19.5 -50t-48 -30.5t-62.5 -14.5t-63 -3h-55q0 -2 -1 -9t-1 -11q0 -25 27.5 -41.5t63.5 -25.5 t70 -13t46 -6q0 -2 1 -9.5t1 -13.5q0 -41 -34 -63.5t-84 -40t-109.5 -35t-109.5 -45t-84 -73.5t-34 -120q0 -72 33 -119t84 -74.5t112.5 -39t120.5 -11.5q39 0 111 16.5t143.5 47.5t125 73t53.5 93q0 2 -1 5l-1 3q-4 2 -28 9t-34 12q-10 2 -35.5 8t-55.5 13t-56.5 13 t-36.5 9q0 2 -1 5t-1 5q0 14 9 26.5t22.5 21.5t27.5 16t25 12q82 -4 157.5 -1t147.5 8t144.5 10t150.5 5q0 -47 -34 -68.5t-79 -33t-91 -20.5t-69 -29q-4 -2 -11 -19.5t-9 -21.5q-43 -57 -126 -121t-180.5 -118t-195.5 -90t-174 -36q-55 0 -127 9t-135.5 36t-106.5 74 t-43 125z" />
<glyph unicode="'" horiz-adv-x="262" d="M18 1024q0 20 13.5 35.5t33 26t41 16.5t39.5 6q47 0 65.5 -39t18.5 -76q0 -33 -18 -65.5t-46 -58t-61.5 -42t-66.5 -16.5q0 4 1 14.5t3 14.5l20 20q4 6 12.5 21.5t8.5 19.5q0 25 -10.5 39t-21.5 26.5t-21.5 25t-10.5 32.5z" />
<glyph unicode="(" horiz-adv-x="430" d="M20 340q2 57 12.5 132t30 152.5t49 153.5t72.5 138.5t98.5 105.5t127.5 55v-41q-111 -111 -159 -242.5t-48 -285.5q0 -27 2 -70t10 -91t22.5 -94t37 -80t55 -48t80.5 2q-27 -63 -84.5 -96t-120.5 -33q-55 0 -91 37t-57.5 91t-30 112.5t-6.5 101.5z" />
<glyph unicode=")" d="M20 0q80 98 138.5 178t96.5 162t56.5 175t18.5 216q0 43 -23.5 80t-51.5 72t-50.5 69.5t-22.5 73.5q0 18 12.5 31.5t30 23t37 13.5t35.5 4q57 0 98 -28t67.5 -71t39 -92t12.5 -92q0 -123 -31.5 -232.5t-88 -206.5t-136.5 -185.5t-176 -167.5q-4 -4 -19.5 -11.5 t-21.5 -11.5h-10h-11z" />
<glyph unicode="*" horiz-adv-x="757" d="M34 898q1 9 10 12t24 3q14 0 32 5q37 8 77 5t69 -10q49 47 89 95.5t83 97.5q12 -23 16 -50.5t9.5 -55t15.5 -50t33 -37.5q10 0 40.5 -1t40.5 -1q43 0 78 11.5t76 11.5l2 -33q-84 -90 -221 -123q0 -49 4 -94t-12 -74q-8 -14 -14.5 -29.5t-14.5 -28.5t-20.5 -21.5 t-32.5 -8.5q-4 0 -18.5 30t-34.5 64q-10 18 -16.5 35t-12.5 31t-15.5 22.5t-25.5 8.5q-25 -35 -37 -43q-6 -4 -23.5 -19.5t-46.5 -40.5l-86 -45h-57l94 156l41 74l-33 8q-53 23 -106 65q-8 21 -7 30z" />
<glyph unicode="+" horiz-adv-x="798" d="M53 381q0 -4 6.5 -11.5t10.5 -9.5l4 -1q4 -1 6 -1t6 1l4 1q14 4 45 18.5t43 22.5h230l-19 -163q-2 -16 11.5 -44t34 -54.5t45 -46t46.5 -19.5h11l-31 102l24 225h119q16 0 45 15.5t57.5 39t51 50t24.5 49.5l2 10l-106 -41h-180l8 82q2 31 -8.5 62.5t-28.5 62.5 t-40.5 57.5t-41.5 42.5q-4 -2 -12 -9t-10 -11l-2 -4q-2 -4 -2 -6t1 -6l1 -4l14 -42t16 -40l-18 -185h-127q-31 0 -64.5 -14t-66.5 -35.5t-62 -47.5t-47 -46z" />
<glyph unicode="," horiz-adv-x="266" d="M14 -111q0 20 11.5 35t27 29t29.5 28.5t20 34.5q-4 4 -13 15.5t-19.5 25t-18.5 25.5t-10 16l-1 4q-1 4 -1 7q0 16 13.5 33.5t33.5 30.5t42 21.5t38 8.5q20 0 35.5 -11.5t26 -29t15.5 -38t5 -36.5q0 -37 -24.5 -72.5t-59.5 -63.5t-76 -45.5t-74 -17.5z" />
<glyph unicode="-" horiz-adv-x="634" d="M14 426q0 14 11.5 30.5t29 30t36 23.5t32.5 14q20 0 69.5 -1t104.5 -1t105.5 1t68.5 1q2 0 14.5 3t25.5 7.5t25.5 7.5t16.5 3h31h30q-20 -27 -52 -52.5t-67.5 -46t-73.5 -33t-71 -12.5q-86 0 -168 12.5t-168 12.5z" />
<glyph unicode="." horiz-adv-x="286" d="M18 102q0 -47 41 -76.5t84 -29.5q45 0 72 18.5t51 67.5q-12 45 -49 74.5t-84 29.5q-16 0 -36.5 -6t-38 -16t-29 -26t-11.5 -36z" />
<glyph unicode="/" horiz-adv-x="430" d="M20 2l226 797q8 33 21.5 64.5t34 57t48 41t64.5 15.5q0 -35 -10.5 -72t-24.5 -73.5t-28.5 -72.5t-22.5 -67l-62 -237q-10 -33 -26.5 -108t-43 -152.5t-65.5 -137t-90 -59.5q-4 0 -11.5 2t-9.5 2z" />
<glyph unicode="0" horiz-adv-x="737" d="M18 375q0 -63 5.5 -130t27 -122t65.5 -90t122 -35q102 0 190 58.5t152.5 146.5t101.5 191.5t37 193.5q0 53 -8.5 109.5t-33 102.5t-66.5 74.5t-109 28.5q-94 0 -181.5 -49t-155 -126t-107.5 -171t-40 -182zM203 440q0 39 5 97.5t22.5 113t52 92t96.5 37.5q49 0 83 -30.5 t54.5 -75.5t29.5 -95.5t9 -86.5q0 -41 -8 -100.5t-29.5 -115t-57.5 -95.5t-91 -40q-61 0 -94 32t-49.5 78t-19.5 97t-3 92z" />
<glyph unicode="1" horiz-adv-x="368" d="M20 737q4 0 15.5 -1t15.5 -1q6 0 17.5 1t13.5 1t11 4t19.5 7.5l19.5 6.5t11 3q12 0 17.5 -11.5t5.5 -25.5t-1 -27l-1 -12q0 -154 -21.5 -303.5t-21.5 -300.5q0 -8 -1 -21.5t1 -26t9 -21.5t24 -9q41 0 85 24.5t68 57.5q-6 104 0 206.5t16.5 206t19.5 206t9 206.5 q-92 0 -185.5 -47t-146.5 -123z" />
<glyph unicode="2" horiz-adv-x="741" d="M20 20q25 59 74 110.5t108.5 98.5t122 91.5t113.5 92.5t84 101t33 119q0 33 -17.5 59.5t-44 46t-60.5 29.5t-64 10q-16 0 -38 -7t-40.5 -19.5t-31.5 -27.5t-13 -32v-12l20 -117v-8q0 -37 -34.5 -63.5t-69.5 -26.5q-23 0 -31 16.5t-11 39t-1 43t2 30.5q0 66 30.5 121 t81 95t116 62.5t134.5 22.5q39 0 81 -11.5t76 -33t55.5 -55t21.5 -76.5q0 -49 -23.5 -103.5t-58.5 -91.5q-16 -14 -56 -53t-86.5 -83t-87 -83t-57.5 -51q27 -45 87.5 -66.5t124 -34t111.5 -22.5t48 -33q0 -4 -1 -11t-1 -9q-66 -35 -121 -57.5t-129 -22.5q-39 0 -74 12.5 t-68.5 27.5t-68.5 28.5t-74 13.5q-20 0 -36.5 -9.5t-33 -21.5t-34 -21.5t-37.5 -9.5q-4 0 -11.5 1t-9.5 1z" />
<glyph unicode="3" horiz-adv-x="757" d="M18 131q0 39 38 64.5t75 25.5q33 0 62.5 -10t58.5 -21.5t58.5 -21.5t64.5 -10q29 0 60.5 5t58 17.5t44 36t17.5 59.5q0 53 -22.5 90t-58.5 65t-80 47.5t-87 37.5q0 2 -1 9t-1 10q0 43 32 69.5t68.5 51t68.5 53t32 73.5h-199q-2 0 -9 11.5t-11 19.5l-1 4q-1 4 -1 6 q0 12 7 26.5t19.5 28t26.5 22.5t31 9h307q20 0 21 -19.5t1 -27.5q0 -27 -18 -57.5t-42 -59t-48.5 -53t-36.5 -39.5q0 -2 -1 -5l-1 -3q0 -23 29.5 -44t64.5 -51t64.5 -70t29.5 -97q0 -70 -49 -138.5t-121.5 -122.5t-157.5 -88t-155 -34q-23 0 -62.5 10t-78.5 28.5t-68 42 t-29 50.5z" />
<glyph unicode="4" horiz-adv-x="1134" d="M18 250q0 2 1 5t1 5l287 262l144 150q25 25 72.5 65.5t100 80.5t98.5 68.5t66 28.5t34 -22.5t18 -34.5v-8q0 -104 -21.5 -203.5t-21.5 -204.5q0 -10 1 -29.5t1 -21.5l41 -20h12h57h25q39 0 76 6q20 4 38.5 6t36.5 6q39 10 17 -57q-23 -66 -70 -80q-25 -8 -55.5 -13.5 t-67.5 -9.5q-35 -4 -62.5 -6t-47.5 -2l-21 -18v-150q0 -16 -21.5 -33.5t-49 -31t-55 -22.5t-40.5 -9q-27 0 -30.5 12.5t-8.5 46.5q0 10 -1 37t-1 58q0 29 1 55.5t1 36.5l-20 18h-492q-4 0 -20 8l-21 11l-1 4q-1 4 -1 6zM287 385h286q25 0 38.5 38t19.5 86t7 93t1 62h-25z " />
<glyph unicode="5" horiz-adv-x="1044" d="M20 158q29 45 48.5 62.5t60.5 17.5q29 0 47.5 -11.5t34.5 -26t33.5 -27.5t42.5 -15q96 -20 207 -21q39 0 74.5 9.5t64.5 28t46 48t17 70.5q0 47 -19.5 84t-51 61.5t-73.5 37.5t-87 13q-37 0 -65.5 -14t-55.5 -30.5t-55.5 -31t-65.5 -14.5l1 15q1 14 1 16q2 18 10.5 65.5 t18.5 100.5t19.5 99t13.5 65q72 80 158.5 108.5t182 36.5t197 12.5t199.5 36.5l2 -7q2 -7 2 -11q0 -43 -35 -72.5t-89 -50t-119.5 -32t-128 -16.5t-112.5 -6t-73 1q-27 -16 -35 -43t-8 -53q0 -4 1 -19.5t1 -19.5q45 -2 121 -5.5t149.5 -20.5t127 -58t53.5 -121 q0 -90 -47.5 -167t-122 -133.5t-165.5 -88t-177 -31.5q-43 0 -99.5 6t-108.5 23.5t-92.5 48.5t-48.5 80z" />
<glyph unicode="6" horiz-adv-x="737" d="M20 252q0 98 39 212t108 211t163 161.5t202 64.5v-24q-63 -29 -115 -74t-89 -102.5t-57.5 -123t-20.5 -135.5q39 0 75.5 12.5t73.5 28t75 28.5t79 13q92 0 129 -51t37 -139q0 -8 -1 -31.5t-1 -30.5q-35 -49 -89.5 -98t-118 -88t-132 -63.5t-131.5 -24.5q-49 0 -90 20.5 t-72 56.5t-47.5 82t-16.5 95zM244 266q0 -23 11 -47t29.5 -46.5t40 -37t42.5 -14.5q35 0 68.5 15.5t60 41t43 57t16.5 64.5v57q0 31 -23 54q-8 0 -35.5 1t-35.5 1q-31 0 -69 -8.5t-70.5 -26t-55 -45t-22.5 -66.5z" />
<glyph unicode="7" horiz-adv-x="716" d="M18 692q39 0 73 13.5t68 30t69.5 29.5t78.5 13q12 0 36 -1t47.5 -3t42 -6t18.5 -10v-21q-49 -63 -100.5 -136t-93.5 -151.5t-68.5 -161.5t-26.5 -165q0 -10 1 -41t1 -41q4 -6 19.5 -21.5t21.5 -19.5h8q25 0 55.5 10t58 28.5t46 43t18.5 51.5q0 2 -1 6l-1 4q-2 2 -8 11.5 t-13.5 19.5t-13.5 19.5t-6 11.5v18q0 106 37 194.5t91 168.5t113.5 155.5t106.5 159.5h-573q-27 0 -46.5 -27.5t-32.5 -63.5t-19.5 -70t-6.5 -48z" />
<glyph unicode="8" horiz-adv-x="819" d="M18 229q0 80 52.5 137.5t113.5 104.5v10q0 29 -11 54.5t-11 56.5q0 70 42 127t104.5 98t136 63.5t139.5 22.5q41 0 79.5 -13t69.5 -38t49.5 -58.5t18.5 -76.5q0 -35 -19.5 -62.5t-44 -52t-44 -49.5t-19.5 -53q0 -2 1 -4t1 -4q6 -4 25.5 -20.5t41 -38t39 -46.5t17.5 -43 q0 -84 -45 -148.5t-115 -109.5t-153 -68.5t-158 -23.5q-6 0 -23.5 1t-38 2t-38 2t-23.5 1q-86 25 -136.5 84t-50.5 145zM182 305q0 -104 51.5 -144t155.5 -40q20 0 59 3t76 14.5t64.5 30.5t27.5 54q0 45 -39.5 86t-95 73t-114 50.5t-93.5 18.5h-8q-8 -6 -21 -20l-27 -27 q-13 -13 -23 -24l-11 -11q0 -2 -1 -26t-1 -38zM346 694q0 -35 20.5 -60.5t52.5 -43t70.5 -26.5t73.5 -9q41 0 57.5 20.5t16.5 55.5q0 23 -9.5 49.5t-25.5 49t-40.5 37.5t-55.5 15q-35 0 -63.5 -2t-50 -10t-34 -25.5t-12.5 -50.5z" />
<glyph unicode="9" horiz-adv-x="573" d="M18 561q0 -76 39 -104.5t105 -28.5q47 0 91 10.5t91 10.5q0 -129 -68.5 -240t-173.5 -189l21 -20q2 -2 17.5 4t35 15.5t38.5 20.5t32 21q70 53 127 126t97 158t61.5 175t21.5 176q0 31 -15.5 67t-40 66.5t-55 52t-61.5 21.5q-66 0 -130.5 -27.5t-115.5 -74.5t-84 -109.5 t-33 -130.5zM182 676q0 29 16.5 56.5t47.5 27.5q27 0 49 -13.5t38.5 -35t27 -47t10.5 -50.5q0 -31 -28 -47t-56 -16q-53 0 -79 39t-26 86z" />
<glyph unicode=":" horiz-adv-x="307" d="M18 92q0 -12 7.5 -28.5t19.5 -31t27.5 -24.5t29.5 -10t36 7t41.5 18.5t33.5 27t14 31.5q0 37 -28.5 60.5t-63.5 23.5q-14 0 -33.5 -5t-38 -15.5t-32 -24t-13.5 -29.5zM80 678q0 -86 84 -86q14 0 34.5 4t41 13t35 22.5t14.5 34.5q0 35 -30 64.5t-64 29.5q-16 0 -36 -5 t-37.5 -15.5t-29.5 -26t-12 -35.5z" />
<glyph unicode=";" horiz-adv-x="344" d="M14 -102q0 20 11.5 34.5t27 28.5t29.5 28.5t20 35.5q-4 4 -13 15t-19.5 24.5t-18.5 25.5t-10 16l-1 5q-1 4 -1 6q0 16 13.5 33.5t33.5 31t42 21.5t38 8q20 0 35.5 -11.5t26 -28.5t15.5 -37.5t5 -37.5q0 -37 -24.5 -72.5t-59.5 -63.5t-76 -45t-74 -17zM82 657v17l45 51 q14 20 38.5 31.5t29.5 11.5q14 0 35.5 -8t41 -21.5t32.5 -30t13 -34.5t-12 -32.5t-29.5 -24t-37 -13.5t-33.5 -4q-6 0 -19.5 1t-15.5 1q-10 4 -25.5 12.5t-30 16.5t-23.5 15t-9 11z" />
<glyph unicode="&#x3c;" horiz-adv-x="839" d="M-4 582q0 25 8 43t37 30q111 4 218.5 39t211.5 64q14 2 34.5 9t40 14t34.5 13l14 5l49 37q20 25 37.5 30.5t32 0.5t22.5 -18t10 -30q4 -33 9.5 -71.5t5.5 -63.5q0 -29 -37 -47.5t-92.5 -32.5t-118.5 -24.5t-118.5 -21.5t-92.5 -24.5t-37 -31.5q0 -2 1 -5t1 -5 q31 -39 78 -86.5t102.5 -87t115 -66.5t114.5 -27q23 0 37 10.5t35 10.5q14 0 28.5 -12.5t23.5 -30t15 -37t6 -33.5q0 -35 -24.5 -54.5t-59.5 -19.5q-31 0 -97.5 33t-149 84t-170 112.5t-160 120t-118.5 106t-46 67.5z" />
<glyph unicode="=" horiz-adv-x="806" d="M20 229q12 16 31 34t40.5 33t45 25.5t47.5 10.5h430q29 31 61 51t75 20q0 -55 -43 -96t-102.5 -67.5t-123 -40t-104.5 -13.5q-61 0 -117.5 21.5t-116.5 21.5q-25 0 -46 -10t-46 -10h-10q-4 2 -11.5 9t-9.5 11zM70 557q12 16 30.5 33.5t40 33t45 25.5t47.5 10h431 q29 31 60.5 51.5t74.5 20.5q0 -55 -43 -96t-102.5 -67.5t-123 -40t-104.5 -13.5q-61 0 -117.5 21.5t-115.5 21.5q-25 0 -46.5 -10t-46.5 -10h-10q-4 2 -11 9t-9 11z" />
<glyph unicode="&#x3e;" horiz-adv-x="839" d="M-4 133q0 14 6 33.5t15.5 37t22.5 30t30 12.5q20 0 34.5 -10.5t36.5 -10.5q55 0 114.5 27t115 66.5t102.5 87t78 86.5q0 2 1 5t1 5q0 18 -37 31.5t-92 24.5t-118.5 21.5t-119 24.5t-92.5 32.5t-37 47.5q0 25 5.5 63.5t9.5 71.5q2 16 10 29.5t22.5 18.5t32 -1t37.5 -30 l49 -37l15 -5q14 -5 33.5 -12.5t40 -14.5t34.5 -9q104 -29 212 -64t218 -39q29 -12 37 -30.5t8 -42.5q0 -20 -46 -67.5t-118.5 -106t-159.5 -120t-170 -112.5t-149.5 -84t-97.5 -33q-35 0 -59.5 19.5t-24.5 54.5z" />
<glyph unicode="?" horiz-adv-x="737" d="M18 821q0 68 47.5 117t106.5 82q61 33 142 48t137 15q123 0 195.5 -62.5t72.5 -184.5q0 -55 -34 -99.5t-84 -80t-109.5 -62.5t-109.5 -49.5t-84 -41t-34 -34.5q0 -25 12.5 -41t12.5 -41q0 -23 -17.5 -39t-42 -25.5t-51 -13.5t-47.5 -4q-39 0 -45 26.5t-6 55.5q0 4 1 20.5 t1 20.5q27 35 71 63.5t94 54t101 50.5t92 50.5t68 55t27 64.5q0 45 -21.5 85t-57.5 69.5t-80 46t-89 16.5q-53 0 -79 -17.5t-38 -44t-14 -58.5t-7.5 -58.5t-18.5 -44t-48 -17.5t-49.5 24.5t-14.5 53.5zM119 82q0 41 40 62.5t77 21.5t60 -14.5t52 -49.5q0 -2 1 -5t1 -5 q0 -23 -16.5 -40t-40 -29.5t-48 -18.5t-42.5 -6q-33 0 -58.5 26.5t-25.5 57.5z" />
<glyph unicode="@" horiz-adv-x="942" d="M18 332v20q0 104 53.5 211t139.5 193t192.5 139t210.5 53q51 0 105.5 -9t100.5 -31.5t76 -62.5t30 -104q0 -12 -1 -35.5t-3 -25.5q0 -4 -9.5 -16.5t-20.5 -26.5t-20.5 -25.5t-11.5 -13.5q-16 -31 -29.5 -67.5t-33 -70.5t-48 -58.5t-73.5 -28.5h-35q-27 0 -57.5 1t-59.5 1 q-27 0 -33 -2t-30 -15q-16 -6 -38 -17t-41.5 -21.5t-34.5 -18.5t-19 -10l-4 -1q-4 -1 -7 -1q-2 0 -6 1l-4 1q-4 2 -11 9t-9 11q-2 10 -3 41t-1 41q0 53 23.5 117.5t64.5 121t96 94.5t117 38q4 0 15 -1t15 -1v-62q0 -47 7.5 -96t33.5 -88q2 -4 10.5 -11t10.5 -9l4 -1 q4 -1 6 -1q18 0 37.5 18t37 43t29 50.5t11.5 41.5q0 37 -16.5 72t-42 64.5t-59.5 51t-69 29.5q-88 20 -176 -16.5t-157.5 -106t-113.5 -157.5t-44 -170q0 -51 26.5 -99.5t67.5 -85t92 -59.5t101 -23q41 0 76.5 19.5t70.5 43t68.5 43t70.5 19.5q4 0 11.5 -1t9.5 -1 q-20 -29 -74.5 -70.5t-121 -80.5t-133 -66.5t-112.5 -27.5q-59 0 -95 20.5t-61.5 53t-47 72.5t-52.5 79v20q0 14 -1 31t-1 31zM386 483.5q-1 -14.5 2 -29t12.5 -24.5t31.5 -10q27 0 41 15.5t21.5 36t8.5 40.5t1 33v53q0 27 -31 49q-49 -29 -67.5 -62.5t-18.5 -78.5 q0 -8 -1 -22.5z" />
<glyph unicode="A" horiz-adv-x="1515" d="M18 203q0 37 2.5 60.5t9.5 47t19 51t33 70.5q25 39 59.5 64.5t75.5 44t84 33t84 26.5q33 92 93.5 165t132 138.5t159.5 107.5t193 52q18 2 56 3t87 3t102.5 3t101.5 2t87 2t57 1h47q0 -25 -14 -63.5t-33.5 -79.5t-37 -77t-23.5 -54q-18 -66 -41 -134.5t-41.5 -140 t-30.5 -143.5t-12 -139q0 -10 -1 -25.5t2 -31t12 -26.5t28 -11q31 0 54 11t50 27q4 0 12.5 -7t8.5 -11q0 -33 -30 -63.5t-73 -54t-89 -38t-77 -14.5q-51 0 -67.5 38t-16.5 79q0 14 1 27.5t3 25.5q-37 -27 -64.5 -34t-68.5 -7q-23 0 -40 6t-33.5 14.5t-34 14.5t-35.5 6h-10 q-102 -74 -227.5 -132t-258.5 -58q-57 0 -110 13t-94 40.5t-66 70t-25 97.5zM182 305q0 -41 21.5 -75.5t57.5 -59.5t83 -38t96 -13q27 0 77 8t99.5 23.5t86 39t36.5 52.5q0 20 -45 55t-106.5 66.5t-127 55t-104.5 23.5q-174 0 -174 -137zM530 647q0 -23 21.5 -38t51.5 -25.5 t61.5 -18.5t52.5 -14q12 -6 41.5 -20.5t62.5 -32.5q33 -16 50.5 -31.5t41.5 -32.5q7 -3 16 -3q21 0 53 18q46 25 93 83q31 37 56.5 84.5t42 92.5t25.5 81.5t9 55.5v28q-57 18 -108 19h-109q-74 0 -155.5 -14.5t-149.5 -45t-112 -77t-44 -109.5zM983 348q4 -8 18.5 -21.5 t33 -24.5t37.5 -18q15 -6 27 -6q3 0 7 1q14 4 23.5 25.5t13.5 47t5 49t1 33.5q0 6 -1 26.5t-1 24.5q-14 -6 -45 -22.5t-59.5 -36.5t-48.5 -42q-14 -15 -13 -27q0 -5 2 -9z" />
<glyph unicode="B" horiz-adv-x="880" d="M18 80q0 20 15.5 35.5t35 28t41 24.5t33.5 29q12 70 20.5 147.5t12.5 156.5t6 156.5t2 147.5q0 20 -10 35.5t-21.5 29t-21.5 23.5t-10 18q0 29 31.5 51.5t81 39t107.5 27.5t112.5 18.5t96.5 10.5t58 3q33 0 63.5 -7t55.5 -22.5t40 -40t15 -61.5q0 -43 -26.5 -76 t-58 -60.5t-58.5 -51t-27 -46.5q0 -2 1 -5t1 -5q43 -16 87 -34.5t79 -46t57.5 -64.5t22.5 -90q0 -106 -63.5 -190.5t-157.5 -143t-203.5 -89t-202.5 -30.5q-20 0 -56 2t-71.5 9t-61.5 23.5t-26 47.5zM262 135q68 0 138.5 4t127 26.5t93 70t36.5 133.5q0 51 -25.5 90 t-64.5 65.5t-88 38.5t-94 12q-27 0 -47.5 -4t-30.5 -39q-4 -31 -11 -80t-15.5 -104t-13.5 -111.5t-5 -101.5zM328 723q0 -14 12 -21.5t27 -7.5q39 0 74.5 14.5t66.5 36t57.5 45t48.5 44.5q0 2 1 7t1 9q0 23 -13 39t-34.5 26.5t-47 15.5t-50.5 5q-55 0 -84 -19.5t-42 -50 t-15 -68.5t-2 -75z" />
<glyph unicode="C" horiz-adv-x="942" d="M18 377q0 143 53.5 269t147.5 220.5t222 148.5t276 54q14 0 44 1h20q20 0 41 -1q32 -2 59.5 -11t40.5 -30q-6 -8 -19.5 -21.5t-29 -26.5t-32 -22.5t-30.5 -9.5q-61 0 -120.5 11.5t-119.5 11.5q-100 -27 -173.5 -65t-123.5 -93q-49 -53 -80.5 -131t-31.5 -164 q0 -117 47 -210t160 -148h22q18 0 39 -1t37 -1h25q45 0 79.5 3t66.5 11t64.5 19.5t75.5 27.5l21 -18q-55 -66 -113.5 -105t-123 -60.5t-137.5 -28.5t-159 -7q-72 0 -119 40t-75.5 98.5t-41 124t-12.5 114.5z" />
<glyph unicode="D" horiz-adv-x="1146" d="M20 61q18 -27 60.5 -40t90.5 -18t95 -5h76q100 0 199.5 25.5t189.5 72.5t165 117t128 156q6 12 23.5 41.5t35 66.5t30.5 75t13 62q0 109 -34.5 194t-98 142.5t-149.5 87t-189 29.5q-49 0 -139 -6t-182 -23.5t-169 -50.5t-92.5 -56.5t-15.5 -27.5q51 0 74 -19.5t31 -49.5 q7 -25 6 -54v-15q-2 -38 -2 -75q0 -78 -5 -161t-20.5 -165.5t-44.5 -161t-76 -141.5zM246 172v12l102 697q4 31 22.5 44t43.5 17q20 3 40 3h11q27 -1 47 -1q80 0 154.5 -24.5t131 -72.5t91.5 -116.5t35 -155.5q0 -109 -37 -192.5t-101.5 -141t-152.5 -88t-193 -30.5 q-14 0 -47 1t-65.5 5t-57 14.5t-24.5 28.5z" />
<glyph unicode="E" horiz-adv-x="942" d="M18 399q0 117 47.5 235t126 213t182 154.5t218.5 59.5q86 0 169 -14.5t171 -14.5q0 -23 -17.5 -48.5t-41 -48t-50 -36.5t-45.5 -14h-409q-37 0 -62.5 -27t-43 -64.5t-26 -78.5t-8.5 -68q23 0 30 -2t13 -2t16.5 4t39.5 17q23 0 78 -1t116 -1t116.5 1t78.5 1q6 0 20.5 2 t30.5 5t30.5 7t20.5 6l21 -20q-14 -16 -39 -43t-53.5 -51.5t-58.5 -43t-54 -18.5h-389q-2 0 -10.5 -8t-10.5 -13v-10q0 -63 28 -118.5t72 -96.5t99 -64.5t108 -23.5q68 0 111 29.5t79 64.5t72.5 64.5t90.5 29.5q0 -80 -54.5 -146t-131 -114.5t-159.5 -75t-141 -26.5 q-82 0 -151.5 28.5t-120.5 81t-80 126t-29 163.5z" />
<glyph unicode="F" horiz-adv-x="1413" d="M20 612q0 94 46.5 174t118 138.5t158.5 91.5t169 33h758l102 43q2 0 9.5 -9.5t11.5 -13.5l1 -4q1 -4 1 -6q0 -23 -18.5 -50.5t-45 -52t-55.5 -42t-47 -19.5q-14 -2 -49 -6t-74 -7t-74 -6.5t-49 -3.5q-45 -29 -54 -76.5t-9 -99.5q0 -12 1 -36.5t1 -26.5q0 -4 8 -12.5 t12 -8.5h313q0 -16 -15 -37.5t-35.5 -41t-42 -34t-36.5 -18.5q-10 -4 -41.5 -11t-68.5 -15.5t-70 -13.5t-45 -5q-23 -10 -28 -37.5t-13 -48.5q-31 -74 -74 -137t-98 -111.5t-121.5 -75t-146.5 -26.5q-25 0 -51.5 7t-49 22.5t-38 39t-15.5 54.5v10q2 4 9.5 11.5t11.5 9.5 q88 -6 167 -8h6q75 0 131 23q58 24 92 81t34 168q0 23 -13.5 36t-33 19t-41 7t-35.5 1q0 2 -1 10.5t-1 12.5q0 33 14.5 46t35 21.5t45 18.5t45 36.5t34.5 76t14 135.5q0 35 -37.5 49t-85.5 16q-16 1 -31 1q-30 0 -59 -3q-43 -4 -55 -4h-37q-27 0 -56.5 -1t-56.5 -1h-34 q-59 -23 -87 -59.5t-40.5 -77.5t-15.5 -84t-11 -77t-30.5 -55.5t-73.5 -21.5q-37 0 -43.5 29.5t-6.5 62.5z" />
<glyph unicode="G" horiz-adv-x="1064" d="M16 420q0 -90 23.5 -167t71 -133.5t120 -88t168.5 -31.5q80 0 164 14.5t164 45t151.5 76.5t125.5 110q6 86 24.5 180t18.5 180q0 10 -1.5 29.5t-21.5 19.5h-492q-18 0 -37.5 -13t-35 -31.5t-25.5 -40t-10 -38.5h453q0 -29 2 -83v-25q0 -43 -6 -87q-7 -56 -28.5 -101.5 t-66.5 -51.5l-49 -6q-33 -4 -68.5 -7t-66.5 -5t-41 -2q-92 0 -157.5 34.5t-108.5 92t-63.5 131.5t-20.5 151q0 57 12 111.5t40 102t71 82t104 53.5h23q18 0 38.5 1t36.5 1h25q37 0 71.5 -7.5t68.5 -14.5l68 -14q34 -7 68 -7q20 0 44 9t43.5 24.5t33 36t13.5 42.5 q0 33 -37 51.5t-84 27.5t-90 11t-56 2q-129 0 -250.5 -56t-217 -149.5t-154 -213t-58.5 -246.5z" />
<glyph unicode="H" horiz-adv-x="1351" d="M16 170q0 100 25 165.5t65.5 108.5t93 69t105.5 48q39 12 81 24.5t89 22.5q94 20 107 62q14 37 14 112q0 39 -23.5 55.5t-56.5 20.5q-19 2 -38 2q-15 0 -31 -1q-36 -3 -60 -3q-49 0 -84 -15.5t-63.5 -32.5t-56 -32.5t-60.5 -15.5v45q0 6 11 20.5t27.5 30.5t34 34.5 t29.5 31.5q37 27 81 45t91 27.5t95.5 13.5t91.5 4q53 -4 91 -9.5t103 -17.5v-20q0 -76 -9 -145.5t-11 -164.5q149 20 256 20q27 0 51 -1q12 6 15 19.5t5 23.5q2 16 5.5 54t6.5 80t6 80t3 54q6 8 20.5 27.5t33 39t40 34t39.5 14.5q16 0 23.5 -11.5t9.5 -24.5t1 -27.5 t-1 -20.5q0 -92 -10.5 -186.5t-22.5 -188.5t-22.5 -188.5t-10.5 -186.5v-33q0 -14 3 -26t12.5 -20.5t27.5 -8.5q25 0 44.5 16.5t43.5 16.5q0 -43 -25.5 -77t-63.5 -57.5t-80 -36.5t-74 -13q-12 0 -28.5 2t-21.5 20v19q0 12 -1 25t-1 26v20q0 104 9.5 207t9.5 215 q-35 0 -76 -12t-82 -21q-39 -8 -80 -12t-90 -12q-33 -16 -37 -38t-12 -42.5t-14 -44t-15 -41.5q-63 -162 -192 -251t-285 -89q-47 0 -83 7t-75 44q0 6 -1 22.5t-1 39.5q0 18 -1 35.5t-1 23.5zM160 244q0 -59 33.5 -91t93.5 -32q129 0 188.5 73.5t59.5 196.5q0 29 -7.5 48.5 t-56.5 27.5q-59 -10 -115.5 -17.5t-99.5 -28t-68.5 -61t-27.5 -116.5z" />
<glyph unicode="I" d="M18 881q0 2 1 6t1 6q8 8 30 35.5t48.5 58.5t55 54.5t51.5 23.5h287q12 0 16 -12.5t6 -27.5q1 -10 1 -20v-8.5t-1 -8.5v-7q0 -12 -1 -35.5t-1 -27.5q-2 -35 -7 -116t-11 -171q-4 -45 -7.5 -90t-6.5 -84t-6 -70t-3 -45q-4 -104 -44 -172t-99.5 -107.5t-132 -55 t-142.5 -15.5q0 61 20.5 93t54.5 48.5t75 23.5t84 17q45 166 51 341q4 105 4 216q0 74 -2 152q-16 8 -49 8h-90q-59 0 -70 -8q-8 -6 -29 -15q-27 -10 -42 -17t-19 -7q-2 0 -9 10t-12 14l-1 5q-1 6 -1 8z" />
<glyph unicode="J" horiz-adv-x="983" d="M16 162q0 37 22.5 67.5t63.5 30.5q4 0 11.5 -1t9.5 -1q33 -45 61.5 -69.5t59 -36t68.5 -13.5t87 -2q150 0 223.5 50.5t105.5 135.5t36 194.5t14 227.5q0 4 1 32t1 42v41q0 29 -11 47.5t-52 18.5q-55 0 -105 -23q-23 -12 -37 -21.5t-26 -17.5t-26.5 -13t-35.5 -9 q23 66 73 102.5t118 61.5q68 27 134.5 40t98.5 13h31q14 -45 17.5 -70.5t3.5 -62.5q0 -106 -9.5 -216t-36 -213.5t-70.5 -193.5t-116 -158.5t-171 -107.5t-234 -39q-45 0 -98.5 3t-100.5 18.5t-79 48.5t-32 94z" />
<glyph unicode="K" horiz-adv-x="1269" d="M18 76q0 27 6.5 43t36.5 28q44 -4 87 -3q28 0 55 1q68 4 123 29t93 73t52 132q4 27 13.5 89t19.5 129t18 124t10 76q0 2 1.5 19.5t1.5 25.5v32q0 25 -23 29q-8 0 -35.5 1t-36.5 1q-35 0 -67.5 -7t-65.5 -16.5t-64.5 -16.5t-64.5 -7q0 29 26.5 57.5t64.5 52t77 40t64 20.5 q12 2 40.5 6t61.5 7t61.5 5.5t40.5 2.5q16 -6 34 -15.5t28 -25.5v-23q0 -18 1 -35.5t1 -34.5v-24q0 -106 -9.5 -212t-9.5 -212q59 0 127 38t125.5 96t95 127t37.5 132q0 2 -3 14.5t-7 28t-7 27.5t-3 14t-1 14.5t-1 18.5q0 43 37 68.5t78 25.5q51 0 63 -31.5t12 -74.5 q0 -94 -55 -176t-121.5 -149t-122 -115t-55.5 -72q0 -29 35 -77t84 -97.5t102.5 -87t87.5 -44.5q20 -4 37 -2t26 1t14 -14t5 -48q0 -14 -24.5 -29.5t-56 -28t-62.5 -19.5t-41 -7q-55 0 -104.5 24.5t-91.5 62.5t-76.5 82t-64.5 82t-53.5 62.5t-39.5 24.5q-20 0 -63.5 -49 t-109 -109.5t-153.5 -110t-196 -49.5q-8 0 -36 1.5t-36 1.5q-20 4 -21.5 21.5t-1.5 31.5z" />
<glyph unicode="L" horiz-adv-x="1167" d="M16 -2q59 0 116.5 12.5t119.5 12.5q129 0 256 -12.5t256 -12.5q45 0 85 1t76 9t69.5 25.5t70.5 48.5q2 2 16.5 13t30.5 26.5t29.5 33t13.5 33.5q-57 0 -106.5 -13t-108.5 -13q-143 0 -284.5 10t-282.5 10q0 2 -2 11.5t-2 11.5q20 61 34.5 105t26.5 88t21.5 94.5 t19.5 121.5q14 96 21.5 161t33 100.5t82.5 46.5q29 5 71.5 5t98.5 -5l82 82q14 14 -1 26t-40.5 20.5t-50.5 12.5t-31 4q-102 0 -171.5 -41t-117 -107.5t-75 -151.5t-46 -174t-31.5 -175t-30 -152q-12 -51 -53 -79.5t-85 -54.5t-78 -54.5t-34 -79.5z" />
<glyph unicode="M" horiz-adv-x="1802" d="M18 102q0 -35 22.5 -55t55.5 -31.5t66 -15.5t55 -4q96 0 190.5 43t178.5 109.5t154.5 146.5t119.5 156q33 49 64.5 107t79.5 97v-573q0 -4 8 -12.5t12 -8.5q33 0 73 34t84 86t90 116.5t89 126t83 113t73 77.5q0 -6 1 -25.5t1 -25.5q0 -109 -22.5 -215t-22.5 -215v-22 q0 -16 1 -34t1 -34v-23q2 -10 10 -15t17 -7t19.5 -1t16.5 1q25 0 63.5 11t75.5 31.5t62.5 50.5t25.5 65q-72 0 -100.5 23.5t-28.5 94.5q0 55 5.5 94.5t17.5 102.5q6 33 23.5 114t37 173t37 173t25.5 113q0 2 1 9.5t1 11.5q0 16 -7.5 29.5t-25.5 13.5q-45 0 -84 -48 t-71.5 -111.5t-57.5 -124t-43 -87.5q-8 -12 -31.5 -45t-49 -68.5t-49.5 -67.5t-34 -44q-14 -18 -37.5 -46t-47 -54.5t-40 -45t-18.5 -18.5h-21v676l-41 41l-41 -2q-41 -2 -96 -5t-113.5 -7t-97.5 -7q-90 -8 -191.5 -38.5t-186.5 -87t-141 -137.5t-56 -189q0 -16 1 -34.5 t7 -34t18.5 -25t34.5 -9.5q35 0 70 27t35 68v10l-21 82v20q0 43 20.5 77t53.5 58.5t73 37t78 12.5h410l21 -21l-12 -26q-11 -27 -27.5 -63t-34 -74t-29.5 -62q-35 -70 -91 -155t-129 -159.5t-158 -126t-175 -51.5q-35 0 -70.5 19.5t-68.5 43t-58.5 43t-37.5 19.5 q-10 0 -26.5 -21.5t-32 -50t-26 -56.5t-10.5 -38z" />
<glyph unicode="N" horiz-adv-x="1699" d="M18 154q0 -43 19.5 -67t50.5 -34t66.5 -11t70.5 -1q76 0 143.5 25.5t130 65.5t121 87t117.5 88q25 18 62 62.5t72.5 90.5t64.5 80.5t37 34.5q2 0 5 -1t5 -1q4 -14 14.5 -44.5t21.5 -69.5t25.5 -81t25.5 -80t21.5 -68.5t14.5 -45.5q2 -8 11 -35.5t23.5 -59.5t32 -58.5 t35.5 -30.5q5 -1 10 -1q31 0 64 34q39 39 78 108.5t79 162.5t75.5 194.5t66.5 204t53.5 190.5t34.5 153.5t12 94.5v43q0 29 -4 57.5t-17 50t-40 21.5q-53 0 -80 -34t-27 -79q0 -53 12.5 -100t12.5 -101q0 -90 -19.5 -183t-51 -184t-72.5 -178t-84 -167q-2 0 -5 -1t-6 -1 q-2 0 -6 1l-4 1q-4 2 -11 9t-9 11l-185 615q-8 23 -21 43t-40 20q-31 0 -53.5 -28.5t-28.5 -55.5q-2 -10 -11 -52l-19.5 -91l-19.5 -91t-11 -53q-25 -80 -86.5 -156.5t-142.5 -138t-172 -99.5t-175 -38q-59 0 -113.5 22.5t-111.5 22.5q-31 0 -46.5 -22t-15.5 -51z" />
<glyph unicode="O" horiz-adv-x="839" d="M20 444q0 98 34 206t94.5 199t146.5 150.5t190 59.5q90 0 153.5 -32t103.5 -87t58.5 -131t18.5 -164q0 -98 -35.5 -212t-100.5 -210t-155 -159.5t-200 -63.5q-92 0 -152.5 40t-94.5 103.5t-47.5 142t-13.5 158.5zM170 571q0 -74 14.5 -145.5t48 -127.5t88 -92t136.5 -36 q61 0 101 37t63.5 91t33 116.5t9.5 113.5q0 74 -17.5 142.5t-54.5 121t-94.5 84t-135.5 31.5q-59 0 -97 -34.5t-59.5 -85t-28.5 -109t-7 -107.5z" />
<glyph unicode="P" horiz-adv-x="880" d="M20 877q45 68 111 104.5t138.5 54t149.5 20.5t146 3q57 0 110.5 -8.5t94.5 -33t66.5 -67.5t25.5 -112q0 -123 -57 -210t-150 -151q-88 -63 -193.5 -90t-195.5 -43q-6 -61 -17 -115.5t-32 -103.5q-18 -49 -51 -87t-84 -38q-4 0 -12.5 11.5t-8.5 15.5q2 14 8.5 55t12.5 88 t12 88t8 57q0 2 1 16.5t1 20.5q0 37 -12 65.5t-12 67.5q0 31 7 56.5t15.5 50t15.5 52.5t7 65q0 66 -6 97.5t-15.5 41.5t-21.5 7t-23.5 -7t-22 0t-16.5 29zM287 528q20 -20 43.5 -22t48.5 -2q78 0 143.5 35.5t132.5 76.5q18 31 30.5 67t12.5 73q0 49 -24.5 83.5t-62.5 56.5 t-81 32t-79 10h-45q-33 0 -63 -10t-36 -51q-10 -74 -15 -147t-5 -146v-56z" />
<glyph unicode="Q" horiz-adv-x="1101" d="M18 440q0 106 48.5 217t127 201t180 148.5t210.5 58.5q92 0 165.5 -33t126 -89t81 -134t28.5 -166q0 -74 -29.5 -137.5t-64.5 -112.5t-64.5 -85t-29.5 -54q0 -2 1 -6l1 -4q4 -8 25.5 -31t37.5 -41q6 -4 12.5 -11t14.5 -16q16 -14 65.5 -56t114.5 -85q104 -63 158.5 -92 t90.5 -38q27 -7 52 -7q8 0 16 1q20 2 50 2q20 0 45 -1q0 -39 -33 -63.5t-77 -38t-88 -18.5t-64 -5q-86 0 -164 31.5t-149.5 81t-139.5 106.5t-131 107q-8 10 -31.5 25.5t-30.5 19.5h-10q-59 -45 -108 -61.5t-107 -16.5q-49 8 -85 17t-62.5 22.5t-48 34t-41.5 51.5 q-39 66 -66 130t-27 148zM182 567q0 -82 25.5 -148.5t72 -114.5t110 -74.5t138.5 -26.5q57 0 106.5 28.5t86.5 73.5t58.5 102.5t21.5 116.5q0 66 -26.5 137.5t-73 130t-109 96.5t-131.5 38q-66 0 -117 -34t-87 -86t-55.5 -116t-19.5 -123z" />
<glyph unicode="R" horiz-adv-x="1187" d="M14 18q0 92 20.5 182.5t44 180.5t44 182t20.5 189q0 18 -13 25t-30.5 12.5t-34 12.5t-24.5 23q49 66 115.5 112t141.5 74.5t154.5 41t155.5 12.5q51 0 100.5 -7t88.5 -28.5t62.5 -62.5t23.5 -107q0 -76 -45 -142.5t-100.5 -118.5t-100.5 -87t-45 -45q0 -2 1 -5t1 -5 q41 -47 88 -100.5t100.5 -99.5t113.5 -75.5t128 -29.5q12 0 35.5 1t25.5 1t11.5 3t19.5 8t19.5 8t11.5 3t9 -16.5t11 -28.5l1 -4q1 -4 1 -8q0 -23 -36.5 -45.5t-86 -39t-97.5 -26.5t-68 -10q-86 0 -160 35t-138.5 89t-122 119.5t-112.5 127.5h-10q-57 0 -86 -25t-42 -64.5 t-16.5 -90t-9.5 -101.5q-35 -49 -75 -59.5t-95 -10.5zM266 467q4 0 20.5 -3t20.5 -3q59 0 128 22.5t127.5 63.5t97 98t38.5 125q0 33 -8 65.5t-25.5 59.5t-45 42t-64.5 15q-12 0 -44 -2t-66.5 -8t-63.5 -19.5t-33 -33.5z" />
<glyph unicode="S" horiz-adv-x="880" d="M20 133q-1 5 -1 10q0 11 7 23q9 16 24.5 28.5t32.5 20.5t30 8q35 0 66.5 -14t63 -31.5t64.5 -32t70 -14.5q31 0 79 4t93 19.5t77.5 44t32.5 77.5q0 55 -36.5 90t-92 61t-120 46.5t-119.5 47t-92 65.5t-37 98q0 88 62.5 157.5t150.5 118t182 74t160 25.5q10 0 40.5 -1 t41.5 -1q4 -2 11 -9.5t9 -11.5l1 -5q1 -5 1 -7q0 -39 -36.5 -55.5t-92 -22.5t-119 -9t-119 -16.5t-92 -44t-36.5 -92.5q0 -55 36.5 -86.5t94 -54t124 -40t126 -42t102.5 -62.5t51 -102q0 -6 -2 -19t-5 -26.5t-7 -26t-6 -16.5q-63 -84 -123 -143.5t-124.5 -96t-140 -54 t-169.5 -17.5q-31 0 -72 7t-81 22.5t-71 41t-39 64.5z" />
<glyph unicode="T" horiz-adv-x="1392" d="M18 633q0 -25 2.5 -48.5t9.5 -44t21.5 -32.5t40.5 -12q41 0 67.5 21.5t26.5 70.5q0 43 -12 74.5t-12 78.5q0 51 15.5 83t43 49.5t65.5 23.5t83 6q14 0 56 -3t91 -7t94 -8t66 -6q8 -2 31.5 -10.5t29.5 -12.5q0 -8 1 -39t1 -39v-18q0 -12 -1 -24.5t-1 -22.5v-13 q-2 -16 -10 -70.5t-17.5 -119t-18.5 -124.5t-15 -91q-10 -61 -39 -91t-69 -43.5t-87 -16.5t-92 -9q-10 -2 -15 -11t-7 -19.5t-1 -21.5t1 -20q0 -43 23.5 -54t60.5 -11q92 0 159.5 44t115.5 114.5t79 162t50 184.5t29.5 180t16.5 153l21 20q12 2 44.5 9t68.5 14.5t68 14.5 t44 9q27 6 65.5 19.5t74.5 35t60.5 52t24.5 71.5q0 4 -8 12.5t-12 8.5q-37 -16 -80 -33.5t-84 -30.5q-29 -2 -86.5 -5t-130 -5t-152.5 -5t-152.5 -5t-131 -3t-84.5 -1q-76 -4 -130.5 -18.5t-100.5 -43t-88 -73.5t-91 -111q-18 -37 -20.5 -67.5t-2.5 -67.5z" />
<glyph unicode="U" horiz-adv-x="880" d="M14 881q0 31 30 66.5t71 65t84 49t69 19.5q43 0 52.5 -24.5t9.5 -65.5q0 -61 -7.5 -121.5t-15.5 -120t-15 -119t-7 -122.5v-39q0 -29 1 -61.5t1 -61.5v-35q20 -59 46.5 -98t86.5 -39q45 0 83 28.5t68.5 76t55 105.5t40 118.5t23.5 116t8 96.5q0 43 -10 73.5t-22.5 57 t-22.5 51.5t-10 53q0 41 31.5 75t70.5 34q49 0 75 -33t38 -80t13 -97t1 -85q0 -63 -22.5 -145t-61.5 -167t-91 -167t-113.5 -145.5t-128 -102.5t-132.5 -39q-47 0 -79.5 15.5t-55 43t-40 64.5t-36.5 80v26q0 20 -1 44t-1 44v27q0 139 19.5 271t19.5 268h-125z" />
<glyph unicode="V" horiz-adv-x="1105" d="M20 707v26q0 2 24 28.5t56.5 61.5t67.5 72t57 59q20 20 39 22.5t43 2.5q4 0 20.5 -1t20.5 -1q45 -80 76 -167t58.5 -176t57 -176t74.5 -167q31 25 77 90t88 144t73 156t31 124q0 39 -11.5 71.5t-11.5 67.5q0 25 15.5 49.5t37 46t46 34.5t42.5 13q31 0 48.5 -11 t25.5 -30.5t10 -45t2 -52.5q0 -35 -31.5 -117.5t-82.5 -188t-115.5 -219.5t-130 -208t-125 -155.5t-100.5 -61.5q-25 0 -42.5 9t-29.5 40q-10 25 -28.5 79t-43 121.5t-52 142.5t-51.5 142.5t-43 122t-28 78.5q-4 10 -11 25.5t-9 17.5l-3 2q-3 2 -7 2q-2 0 -7 -2l-4 -2 q-29 -14 -58.5 -41.5t-64.5 -27.5z" />
<glyph unicode="W" horiz-adv-x="1495" d="M16 733q0 35 20.5 72t50.5 66.5t64.5 49t63.5 19.5q4 0 15.5 -1t15.5 -1q39 -78 51 -164t16 -175l9 -178q4 -89 26 -173q2 0 5 -1t5 -1t7 1l4 1l20 20q18 27 48 73t58.5 92t51 83t26.5 45q6 8 23.5 47t38 84t38 85t23.5 48.5t22.5 27.5t37 38.5t40 34t33.5 14.5 q2 0 5.5 -1t5.5 -1q29 -82 50 -166t40.5 -168t42 -169t51.5 -167q2 0 5 -1t5 -1q23 0 50.5 34t56 86t56.5 118.5t48.5 131t33.5 122t13 92.5v16q0 12 -1 26.5t-1 27.5v18q-6 4 -21.5 20.5t-19.5 24.5l-1 4q-1 4 -1 6q0 20 12.5 42t31 40.5t40 29.5t39.5 11q47 0 76 -36 t29 -87q0 -57 -32 -152.5t-81 -206t-110.5 -224t-122 -205.5t-113.5 -150.5t-86 -58.5q-29 0 -51.5 39t-41 99.5t-35 134t-30.5 140t-27.5 120t-27.5 73.5l-41 -41q-61 -92 -104.5 -165.5t-85.5 -138t-93 -125t-127 -128.5q-2 0 -9 -1t-11 -1q-27 0 -40 21.5t-22 46.5 q-2 23 -7 69.5t-11 106t-12.5 124t-12.5 124t-11 106.5t-7 72q0 6 -3 18t-6 25.5t-6.5 26t-5.5 18.5h-10h-10l-41 -23q-2 0 -11.5 -2t-13.5 -2z" />
<glyph unicode="X" horiz-adv-x="1331" d="M18 53q0 2 1 6l1 4q4 8 19.5 33t21.5 31q90 2 161 23.5t129.5 61.5t107.5 97.5t94 130.5q4 4 11 21.5t9 21.5v11q0 35 -22.5 94t-55 115.5t-68.5 97.5t-60 41q-12 0 -26.5 -21.5t-36 -46t-51.5 -46t-73 -21.5q0 49 32 102t79 99t101 79t100 41h5q25 0 59 -35 q38 -39 76 -91t71.5 -101t54.5 -66q45 49 97 107.5t111.5 108.5t125 85t139.5 35q8 0 22 1h10q9 0 18 -1q13 -2 22.5 -9t9.5 -24q0 -33 -36 -50t-82 -27.5t-90 -17.5t-61 -19q-33 -23 -65.5 -60t-63 -79t-55 -82.5t-41.5 -71.5q0 -6 -1 -17.5t-1 -15.5q0 -57 28.5 -135 t76 -148.5t105.5 -120t118 -49.5q0 -31 -20.5 -57.5t-49 -45.5t-62.5 -31.5t-59 -12.5q-55 0 -102 40t-85 97.5t-65.5 117.5t-46.5 103h-20q-16 -14 -56 -50t-86.5 -76t-87 -75.5t-57.5 -48.5q-18 -14 -52 -32.5t-73 -33.5t-76.5 -26.5t-64.5 -11.5q-14 0 -39 17.5t-25 33.5 z" />
<glyph unicode="Y" horiz-adv-x="962" d="M20 -176q4 12 13.5 30.5t23.5 30.5q16 14 38 37t28 29l4 1q4 1 6 1q6 0 30.5 -20.5t60.5 -45t81 -45t94 -20.5q76 0 124 30.5t76 82t37 116t9 131.5v174h-10l-246 -256q-31 -31 -63.5 -38t-71.5 -7q-27 0 -53.5 4t-36.5 41v21q0 12 -1 27.5t-1 29.5v19q0 131 23.5 252.5 t39.5 248.5q2 18 1 42t-3 45.5t-4 36.5l-2 16h-53q6 33 33.5 72.5t65.5 74.5t79 58.5t72 23.5q0 -94 -17.5 -185t-37 -183.5t-37 -184.5t-17.5 -186q0 -43 13.5 -72t60.5 -29q4 0 15.5 1t15.5 1q27 25 67.5 63t83.5 84t80 97t55 98q10 27 15.5 74t11.5 101.5t16.5 110.5 t28.5 102.5t48 75t77 28.5q49 0 49 -55v-11q-4 -29 -13 -91t-21.5 -140t-27 -165t-26.5 -165t-21.5 -139t-13.5 -90q-14 -86 -39.5 -150.5t-64.5 -120t-89.5 -107.5t-113.5 -114q-51 -37 -98 -42t-107 -5q-31 0 -79 6.5t-94 23.5t-80 47t-34 79z" />
<glyph unicode="Z" horiz-adv-x="962" d="M12 -4q0 41 13.5 64.5t35.5 56.5q74 106 134.5 190t121 162t126 160t151.5 186l20 45q-14 0 -49 3t-73.5 6t-73.5 7.5t-49 6.5q-6 0 -26.5 3t-45.5 7t-45.5 7t-26.5 3q-2 0 -11 -3t-19.5 -7t-19.5 -7t-11 -3q-4 -2 -22.5 -3t-22.5 -1q0 45 16.5 79.5t44 58t63.5 36 t72 12.5q82 0 161 -13.5t161 -13.5q55 0 103 11.5t102 11.5q10 0 24.5 -2t14.5 -19q0 -4 -8.5 -22.5t-12.5 -22.5l-524 -626l340 -187q2 -2 26.5 -3t36.5 -1q53 0 94 7.5t89 43.5q4 -4 11 -12t9 -12l1 -4q1 -4 1 -6t-1 -6.5t-1 -6.5q-59 -86 -134 -133t-173 -47 q-59 0 -112.5 21.5t-105.5 46t-104.5 46t-107.5 21.5h-21q-16 -18 -33.5 -41.5t-39 -46t-46 -38t-53.5 -15.5z" />
<glyph unicode="[" horiz-adv-x="577" d="M20 61q18 -27 60.5 -40t90.5 -18t95 -5h76q63 55 98 125q-14 0 -47 1t-65.5 5t-57 14.5t-24.5 28.5v12l102 697q4 31 22.5 44t43 17t51.5 3t47 -1q66 129 -10 120t-168 -26.5t-169 -50.5t-79 -57q23 -27 45.5 -46.5t30.5 -50t6 -68.5t-2 -75q0 -78 -5 -161t-20.5 -165.5 t-44.5 -161t-76 -141.5z" />
<glyph unicode="\" horiz-adv-x="430" d="M20 977q37 0 65 -15.5t48.5 -41t33.5 -57.5t21 -64l226 -797q-2 0 -9.5 -2t-11.5 -2q-53 0 -91 59.5t-64.5 137t-43 152.5t-26.5 108l-62 237q-8 31 -22 67t-28.5 72.5t-25 73.5t-10.5 72z" />
<glyph unicode="]" horiz-adv-x="573" d="M57 127q-66 -129 10 -120t168.5 26.5t169 50.5t78.5 57q-23 27 -45 46.5t-30.5 50t-6.5 68.5t2 75q0 78 5.5 161t20.5 166t44 160.5t76 141.5q-18 27 -60.5 40t-90.5 18t-95 5h-76q-63 -55 -98 -125q14 0 47 -1t65.5 -5t57.5 -14t25 -29v-12l-103 -697q-4 -31 -22.5 -44 t-43 -17t-51.5 -3t-47 1z" />
<glyph unicode="^" horiz-adv-x="782" d="M14 578q0 20 29 63t74 96.5t99 110.5t105.5 104t93.5 77t60 30q20 0 35.5 -4t28.5 -25q2 -35 12 -69.5t24.5 -70.5t28.5 -71t25 -67q8 -20 22.5 -49t16.5 -31h94q0 -16 -22.5 -36t-54.5 -36t-65.5 -27.5t-54.5 -11.5q-25 0 -42 24.5t-29.5 60.5t-21.5 78t-19.5 78 t-21.5 60.5t-28 24.5q-2 0 -5 -1t-5 -1q-35 -23 -76 -52.5t-75.5 -65.5t-59 -75t-24.5 -76q0 -14 9 -23t9 -22q0 -10 -11 -19t-26.5 -16.5t-32 -11.5t-28.5 -4q-31 0 -47.5 17.5t-16.5 40.5z" />
<glyph unicode="_" horiz-adv-x="819" d="M0 -33h815v-82h-815v82z" />
<glyph unicode="`" horiz-adv-x="354" d="M20 993q0 -43 26 -86t66 -77.5t89 -56t94 -21.5q4 0 10 11t10 11l-92 115l-43 104q0 2 1 9.5t1 11.5t-1 11t-1 9q-6 4 -11 20.5t-21.5 29t-23.5 16.5t-24 4q-57 -8 -68.5 -40t-11.5 -71z" />
<glyph unicode="a" horiz-adv-x="798" d="M15 169v-11q0 -27 4 -55q5 -34 18.5 -59.5t42.5 -25.5q51 0 92 28t79 63l76 69q38 35 83 47l8 -106q4 -53 33 -99q4 -4 11 -12t9 -8q6 0 22.5 3t36 9t38 13.5t26.5 15.5q20 18 52 49t60.5 60.5t50 51t21.5 23.5v47q-4 0 -10 -2t-10 -4l-123 -82l-4 -1q-4 -1 -6 -1t-7 1 l-4 1q-4 2 -11 9.5t-9 11.5q0 8 -1 35.5t-1 35.5q0 55 7 110.5t15.5 110t15.5 110t7 110.5v20q0 14 -1 30.5t-1 31.5v20q-2 4 -9.5 11.5t-11.5 9.5h-8q-123 0 -230.5 -54.5t-187 -142.5t-126 -200.5t-46.5 -229.5q0 -12 -1 -44zM141 330q0 78 24.5 142.5t70 110.5t108 71.5 t137.5 25.5q0 -147 -72.5 -275.5t-183.5 -220.5q-2 0 -9 -1t-11 -1q-20 0 -32.5 17.5t-20 42t-9.5 49.5t-2 39z" />
<glyph unicode="b" horiz-adv-x="757" d="M18 80q0 -37 29 -54.5t69 -23.5q34 -5 70 -5h12q42 1 66 1q80 0 164 58.5t152.5 143.5t112.5 181t44 172q0 27 -5 62.5t-19.5 68.5t-37 54.5t-57.5 21.5q-51 0 -98 -19.5t-92 -48t-85 -60.5t-77 -59l-20 41q8 61 13 110.5t7 94.5t2 90v105v28q0 23 -1 47.5t-1 47.5v30 q2 29 -10 36t-29 7q-31 0 -63.5 -21.5t-60 -49t-50 -55t-33.5 -40.5q25 -20 44.5 -22t33 -4t20.5 -15.5t7 -54.5q0 -213 -32 -426t-73 -420q0 -2 -1 -10t-1 -12zM203 160q0 55 21.5 133t61.5 149.5t95 122.5t123 51q27 0 38 -17t14 -41q2 -14 2 -29q0 -10 -1 -20 q-2 -26 -2 -42q0 -59 -11.5 -119.5t-40 -112t-75.5 -83t-119 -31.5h-30q-18 0 -35 3t-29 11.5t-12 24.5z" />
<glyph unicode="c" horiz-adv-x="614" d="M18 274q0 111 39 211.5t105.5 175t156 119.5t189.5 45q12 0 36.5 -1t28.5 -1l21 -20l-41 -45q-35 -55 -152 -70l-110 -22q-25 -18 -51.5 -45t-38.5 -70q-10 -43 -14.5 -85t-4.5 -69q0 -47 15.5 -91t43 -77.5t65.5 -53t83 -19.5q31 0 56.5 12t51 26.5t51 26.5t56.5 12 q0 -53 -36 -96t-88 -73.5t-108.5 -48t-95.5 -17.5q-113 0 -185.5 75.5t-72.5 200.5z" />
<glyph unicode="d" horiz-adv-x="860" d="M18 213v23q0 92 22.5 165.5t59.5 131t83 101.5t96 77q66 47 127 65q42 15 74 16q15 0 28 -4q4 -1 8 0q35 0 37 52q12 41 14 107.5t12.5 129t40 108.5t97.5 46q12 0 23.5 -3t17.5 -20q0 -10 1 -40.5t1 -41.5q0 -123 -11.5 -244.5t-25.5 -242.5t-25.5 -243t-11.5 -244 q6 0 24.5 -5.5t26.5 -3.5q6 2 20.5 7.5t31 11.5t31 12t20.5 10q0 -2 1 -9t1 -11q0 -35 -32 -64.5t-75 -52t-88 -36t-72 -13.5q-12 0 -36.5 1t-26.5 1q-8 2 -19.5 9t-11.5 11v205q-25 -20 -63.5 -55t-83.5 -67.5t-92 -57.5t-88 -25q-47 0 -84 30t-50 73v22q0 16 -1 34t-1 34z M203 311q0 -18 1 -39.5t1 -40.5v-26q2 -4 9 -11.5t11 -9.5q8 -4 23.5 -12t17.5 -8q35 14 79 68.5t82 121t63.5 133t25.5 107.5q0 8 -1 31.5t-3 29.5q-23 23 -49 23h-53q-72 0 -113 -32t-61.5 -82t-26.5 -110.5t-6 -115.5v-27z" />
<glyph unicode="e" horiz-adv-x="778" d="M18 313q0 -55 6.5 -111.5t28 -101.5t62.5 -73.5t108 -28.5q74 0 154 24.5t151.5 66.5t132 99.5t97.5 124.5h-41q-53 -43 -92 -74.5t-76 -52t-79 -31t-101 -10.5q-10 0 -41 1t-41 1q-45 35 -66.5 74t-36.5 92q23 23 65 47.5t77 47.5q70 45 104 106q37 63 49 126q7 37 8 77 q0 26 -4 53q-2 35 -13 54.5t-50 19.5q-98 0 -173 -52.5t-125 -131t-77 -172t-27 -175.5zM182 492q0 29 10.5 66.5t30 71.5t49 57.5t68.5 23.5q17 -25 17 -56q0 -38 -25 -86q-23 -45 -68 -80.5t-80 -58.5q0 6 -1 30t-1 32z" />
<glyph unicode="f" horiz-adv-x="884" d="M-492 -401q39 0 75 -8.5t70 -17.5t68.5 -17.5t73.5 -8.5q92 0 155.5 48.5t106.5 125t65.5 174t35 195.5t14.5 188.5t2 151.5v21q0 14 -1 30.5t-1 30.5v20q0 4 -8 12.5t-12 8.5q-6 0 -20.5 1t-31.5 1q-16 0 -30.5 -1t-20.5 -1q-8 2 -16 17.5t-4 23.5q12 29 33.5 43 t45 24.5t46 21.5t39.5 34q4 4 10 19.5t10 21.5q39 100 84 184t107.5 144.5t147.5 94t204 33.5q8 0 23.5 -1t29.5 -2t25.5 -2t13.5 -1l20 -28q-2 -25 -11 -40.5t-19.5 -24.5t-19.5 -13t-11 -6h-307q-33 0 -56.5 -44t-39 -101.5t-22.5 -113t-7 -75.5q0 -12 1 -37t1 -29l20 -20 q4 0 23.5 -2t34.5 -2h18q35 0 67.5 7t63.5 16.5t61.5 16.5t63.5 7q0 -37 -26.5 -63.5t-67.5 -46t-89 -33t-89 -24.5t-70 -20.5t-31 -19.5q-4 -127 -13 -261t-42 -260t-96.5 -235.5t-175.5 -185.5q-47 -31 -85 -57.5t-78 -46t-85 -30.5t-107 -11q-88 0 -127 38t-39 136z" />
<glyph unicode="g" horiz-adv-x="860" d="M-317 -377q0 14 4 33.5t13 38t23.5 32t32.5 13.5q14 0 51 -20.5t81 -46t89.5 -49t75.5 -30.5h10q25 0 81.5 4.5t113.5 18.5t101 41t44 70q0 47 -25.5 76.5t-64.5 51t-85 38t-85 38t-64.5 50t-25.5 73.5q0 20 15.5 50t36 59t41 52.5t30.5 33.5q-57 14 -92 58t-35 102 q0 66 35 129t89 113t120.5 81t132.5 31q68 0 132.5 -12.5t131.5 -12.5q41 0 75 12.5t73 12.5q0 -35 -33 -63.5t-75 -51t-84 -40t-60 -31.5q-4 -4 -12.5 -19.5t-18.5 -33t-19.5 -33t-11.5 -17.5q-16 -18 -56 -61t-86 -92.5t-87 -93.5t-57 -60q0 -2 -1 -9t-1 -12 q0 -33 25.5 -53t65.5 -35.5t85 -30t85 -36t65.5 -54t25.5 -85.5q0 -109 -64.5 -185t-159 -124t-202 -70.5t-191.5 -22.5q-31 0 -80 13.5t-95 36t-79.5 54t-33.5 68.5zM203 481q0 -37 16.5 -61.5t54.5 -24.5q23 0 46.5 11.5t44 30t33 43t12.5 50.5q0 2 1 19.5t1 27.5 q0 23 -11 37q-12 16 -30.5 21.5t-32.5 5.5q-31 0 -56.5 -13.5t-43 -36t-26.5 -51t-9 -59.5z" />
<glyph unicode="h" horiz-adv-x="921" d="M20 1085q18 23 46 51.5t61 53t68.5 42t70.5 17.5q8 0 18.5 -16t16.5 -31q6 -12 6 -18v-27q0 -23 1 -47.5t1 -46.5v-29q0 -104 -12 -199.5t-12 -199.5q0 -10 1 -41t1 -41q31 29 80 78t106 95t118.5 80t117.5 34q20 0 34.5 -13.5t22.5 -34t11 -45t3 -45.5v-40 q0 -98 -12 -192.5t-12 -193.5v-18q0 -12 1 -27.5t1 -27.5v-19q0 -4 8 -12t12 -8q6 0 25.5 -1t42 -3t42 -3t25.5 -1q0 -31 -23.5 -59.5t-57 -50t-70.5 -35t-64 -13.5q-72 0 -96 37t-29 108q4 16 12.5 57.5t18.5 86.5t18.5 86t12.5 57v10v11q-2 18 -6 47.5t-7.5 58.5 t-5.5 51.5t-2 26.5q-4 29 -11 36t-28 7q-70 0 -115.5 -49t-79.5 -124t-61.5 -162t-59.5 -162t-74 -124t-105 -49q0 121 13 241t28.5 240.5t29 241.5t13.5 244v29q-2 8 -5 22t-6 27.5t-7 22.5l-3 9h-123z" />
<glyph unicode="i" d="M20 635q57 72 138.5 121t173.5 49q0 -123 -13.5 -243t-27.5 -230q-4 -12 -8 -26.5t-9 -31.5q0 -12 -2 -30.5t-6 -42.5q2 -25 13.5 -37t23.5 -20.5t25.5 -11.5t19.5 -9l4 -1q4 -1 6 -1q20 0 39 8t36.5 17.5t36.5 17.5t42 8v-29q0 -2 -11.5 -15t-27.5 -29.5t-33.5 -33 t-29.5 -24.5q-35 -25 -54.5 -34t-46.5 -9h-39q-35 0 -64.5 2t-62.5 20q-8 4 -16 10.5t-16 14.5v61q0 8 1 20.5t3 29.5q12 92 31.5 204.5t19.5 223.5v18q0 12 -1 27.5t-1 27.5v19q-35 -27 -56.5 -35t-56.5 -8q-4 0 -15.5 1t-15.5 1zM162 993q0 14 15.5 30.5t34.5 31 t40.5 23.5t34.5 9q29 0 51 -11t51 -32q0 -2 1 -5t1 -5q0 -20 -14.5 -37.5t-36 -30t-45 -19.5t-41.5 -7q-12 0 -28.5 2t-30 8t-23.5 16.5t-10 26.5z" />
<glyph unicode="j" horiz-adv-x="376" d="M-537 -240q39 0 74 -8t69 -18t68.5 -18.5t71.5 -8.5q102 0 174 42t119 111.5t73.5 159t39 182.5t15.5 184t3 163q0 10 -1 41t-1 41q-25 -12 -42 -17.5t-42 -5.5q-14 0 -26.5 7.5t-12.5 25.5q0 25 26.5 58.5t64.5 64.5t78 51.5t67 20.5h10q6 -4 21.5 -19.5t19.5 -21.5v-25 q0 -16 1 -36.5t1 -39.5v-22q0 -129 -10.5 -276.5t-47 -286t-110.5 -255t-203 -186.5q-68 -37 -142.5 -70.5t-152.5 -33.5q-94 0 -149.5 46t-55.5 150zM141 1001q0 27 12.5 45.5t32 29.5t42 15.5t42.5 4.5q33 0 56.5 -4.5t23.5 -40.5q0 -41 -34.5 -72t-75.5 -31 q-12 0 -28.5 2t-32 8.5t-27 16.5t-11.5 26z" />
<glyph unicode="k" horiz-adv-x="1024" d="M20 1065q6 2 18.5 3t26 0t23.5 -6t14 -18v-92q0 -121 -10 -240.5t-22.5 -238.5t-22.5 -237.5t-10 -239.5q66 0 99.5 50t54 126t36 165t43 165t75.5 126t136 50q47 0 70.5 -21.5t23.5 -72.5q0 -59 -38.5 -93t-86 -59.5t-86 -54.5t-38.5 -78q0 -55 40 -109.5t96 -97.5 t120.5 -68.5t113.5 -25.5q57 0 108.5 25.5t96.5 58.5q12 8 29.5 21.5t34 26.5t27.5 24l12 10v41q-8 -4 -28 -13.5t-43.5 -18.5t-44 -18.5t-28.5 -11.5q-2 0 -9 -1t-11 -1q-18 0 -68.5 21.5t-105 53.5t-95.5 70t-41 72q0 37 33 70t72 67.5t71.5 74.5t32.5 94q0 84 -50 120.5 t-128 36.5q-31 0 -70.5 -18.5t-79.5 -43t-73 -48t-51 -35.5h-21v491q0 12 -14 33t-27 29q-59 -23 -119.5 -63t-85.5 -101z" />
<glyph unicode="l" d="M20 942q0 -4 8.5 -12t12.5 -8q2 0 11 3t19.5 6t19.5 7t11 4q4 2 17.5 -1t17.5 -3q0 -94 -9 -187.5t-19.5 -185.5t-19.5 -184t-9 -186v-31q0 -23 1 -47.5t1 -46.5v-29q10 -35 30.5 -39t47.5 -4q47 0 92 16.5t86 42t80 54t74 53.5h20v86q-2 0 -10 -1t-10 -3 q-12 -6 -38 -23.5t-54.5 -35t-56.5 -32t-46 -14.5q-2 0 -6 1l-4 1q-6 4 -21.5 19.5t-19.5 21.5q0 8 -1 32t-1 50q0 27 -1 49.5t-1 32.5q0 98 12 193.5t26.5 190.5t26.5 190.5t12 193.5q-90 0 -169 -51t-130 -123z" />
<glyph unicode="m" horiz-adv-x="1433" d="M20 639q20 27 51 58.5t67 59t74 47t75 19.5q4 0 12 -8t8 -12v-205h21q78 74 171 141.5t197 104.5q43 -25 66.5 -49.5t35 -55t14.5 -69.5t7 -92q41 33 88 70.5t96.5 72.5t100.5 62.5t104 39.5q31 6 54.5 -9t39 -39.5t23.5 -54.5t8 -50q0 -10 -1 -29.5t-1 -22.5 q0 -8 -6 -40.5t-14 -71.5t-14.5 -72t-6.5 -41q-2 -14 -1 -48t4 -73t5 -72.5t2 -47.5q4 0 5.5 -3.5t5.5 -1.5l82 41q12 4 20 5v-46q0 -2 -11 -14t-27.5 -28.5t-34 -33t-29.5 -26.5q-23 -18 -57.5 -40.5t-67.5 -22.5q-23 0 -34 7t-26 36v26q0 18 -1 40t-1 40v27 q0 104 22.5 205.5t22.5 205.5q0 35 -16 64t-57 29q-35 0 -68 -18.5t-60.5 -44.5t-50 -54.5t-36.5 -48.5q-14 -25 -32 -70t-37 -99.5t-41.5 -111.5t-48.5 -104.5t-55.5 -77t-62.5 -29.5q-27 0 -30 21.5t-3 37.5q0 59 10.5 118t22.5 117t22.5 117.5t10.5 119.5q0 23 -1 48 t-7 47.5t-21.5 37t-44.5 14.5q-4 0 -15 -1t-16 -1q-92 -76 -174 -171t-112 -218q-10 -39 -18.5 -88t-27 -92t-51 -73t-92.5 -30q0 82 13.5 161t30.5 157l35 155q17 78 28 158h-21q-25 0 -46 -10.5t-46 -10.5h-10q-4 2 -11.5 9.5t-9.5 11.5z" />
<glyph unicode="n" horiz-adv-x="1024" d="M20 614q20 27 52 61t69 61.5t77 47t81 19.5h8q4 -4 12.5 -20.5t8.5 -20.5v-275q53 45 102 100.5t103.5 103.5t117 81t142.5 33q23 0 39 -5t28 -38v-21q0 -16 1 -32.5t1 -30.5v-23q0 -98 -12 -189t-12 -190v-22q0 -14 1 -30.5t1 -33.5v-20q2 -4 9 -11t11 -9h10h11 q35 10 67.5 27.5t67.5 17.5q0 -41 -27.5 -76t-68.5 -61.5t-86.5 -42t-77.5 -15.5q-37 0 -52.5 13.5t-27.5 52.5v22q0 18 -1 40t-1 38v24q0 94 12 181.5t12 179.5q0 10 -1 42t-1 42q-2 4 -9 11t-11 9h-10q-53 0 -97.5 -29.5t-81 -72.5t-66.5 -90t-52 -82 q-31 -43 -47.5 -108.5t-37 -127t-57.5 -105.5t-110 -44q0 74 7 145.5t16.5 144t16.5 144.5t7 143q0 27 -17.5 38.5t-41 12.5t-47.5 -3.5t-38 -6.5z" />
<glyph unicode="o" horiz-adv-x="716" d="M29 147q-3 14 -3 34.5t3 46.5q6 52 21.5 113.5t39 124t53.5 114.5q59 113 152.5 187.5t216.5 74.5q2 0 9 -1t18 -3q23 -4 37 -11.5t34.5 -19.5t41 -37t34.5 -55q15 -25 15 -63q0 -16 -1.5 -45.5t-1.5 -41.5q0 -88 -37.5 -187t-103 -184t-152 -140.5t-184.5 -55.5 q-27 0 -59.5 7t-61 25.5t-49 47t-22.5 69.5zM203 287q0 -29 7 -58.5t22.5 -53t39 -39t58.5 -15.5q37 0 73.5 42t66.5 99t47.5 115.5t17.5 93.5q0 43 -5.5 77t-18.5 62.5t-37.5 54t-63.5 52.5q-2 0 -9.5 2t-11.5 2q-35 0 -62.5 -28.5t-48 -71.5t-35 -95.5t-23.5 -100.5 t-13 -86t-4 -52z" />
<glyph unicode="p" horiz-adv-x="778" d="M20 610q-3 3 -2 8q0 13 18 39q26 37 63.5 77t77.5 72t59 32q29 0 50 -29t34.5 -64.5t20.5 -69.5t7 -44h21q12 14 43.5 48t70.5 68.5t78 61.5t64 27q49 0 76.5 -30t40 -72t15.5 -87t3 -78q0 -162 -81 -300t-228 -212l-144 -61q-41 -18 -58.5 -57t-23.5 -87.5t-8 -99.5 t-11 -93t-35 -68.5t-79 -26.5q-14 0 -30.5 2t-20.5 20q25 98 44 195.5t19 202.5q0 27 -7 42t-16 28.5t-16.5 27.5t-7.5 39q2 18 2 31q0 12 13 18q14 14 30.5 29.5t20.5 21.5q29 47 36 109.5t7 124.5v77q0 6 1 22.5t-2 34t-10.5 31t-21.5 13.5q-2 0 -6 -1l-4 -1l-82 -41z M287 176q6 -2 20.5 -6t30.5 -7t30.5 -5t20.5 -2q61 0 101 34.5t64 85t33 106.5t9 101q0 18 1 51v12q0 25 -3 50q-4 31 -17.5 54.5t-44.5 23.5h-20q-43 -57 -84 -110.5t-71.5 -110t-50 -119t-19.5 -137.5v-21z" />
<glyph unicode="q" horiz-adv-x="655" d="M16 185q-1 -9 0 -18q0 -28 4 -53q6 -34 24.5 -56.5t59.5 -22.5q35 0 69 14t65.5 35.5t59.5 47.5t50 48h19q0 -135 -11.5 -268t-11.5 -268q94 0 162.5 50t128.5 118q0 4 -8.5 12t-12.5 8t-20 -9t-20.5 -11t-12.5 1t-12 3q0 20 -3 69t-7 103.5t-7 103.5q-1 25 -1 42t1 26 q0 12 9.5 73.5t23 139.5t27.5 155.5t22 122.5l21 62q0 2 1 15t1 20q0 27 -15.5 41t-37 20t-46 7t-42.5 1q-106 0 -194.5 -52t-151 -133t-97.5 -181.5t-35 -198.5q0 -29 -2 -67zM160 193l24 335q2 35 21.5 66t48.5 53.5t62.5 35.5t62.5 13q8 0 35.5 -1t36.5 -3q16 -6 18 -16 t2 -23q0 -27 -10 -71.5t-28.5 -98t-43 -106.5t-53.5 -97t-59.5 -72t-61.5 -28h-10q-4 2 -24.5 6.5t-20.5 6.5z" />
<glyph unicode="r" horiz-adv-x="921" d="M20 588v67q-2 0 9.5 10.5t27 23.5t31.5 26.5t29 21.5q10 8 28.5 20.5t37 26t33.5 23.5t20 12l5 1q5 1 9 1q41 0 61.5 -26.5t30.5 -58t17.5 -58.5t21.5 -27q4 0 8 4q94 74 189.5 130.5t214.5 56.5q6 0 32.5 -1t34.5 -1q8 -2 23.5 -17.5t17.5 -23.5q1 -7 1 -14 q0 -20 -9 -35q-12 -20 -32.5 -32.5t-44 -18t-42.5 -5.5q-37 0 -69.5 11.5t-69.5 11.5q-82 0 -132 -53.5t-82 -133t-52.5 -172t-43 -172.5t-54 -133t-87.5 -53h-10q-4 2 -10 9t-8 11v11q0 70 12 143.5t27.5 147t28 147.5t12.5 145q0 6 -3.5 20.5t-10.5 29t-16 24.5t-22 10 q-12 0 -33.5 -14t-44 -32.5t-42 -36t-27.5 -21.5q-2 -2 -9 -4z" />
<glyph unicode="s" horiz-adv-x="880" d="M18 88q0 18 9.5 27.5t22.5 13.5t28.5 5t27.5 1q10 0 32 -1t26 -1t22.5 -3t39 -6t39 -6t22.5 -3q2 0 29.5 5t63.5 11t72.5 12.5t59.5 10.5q16 2 37.5 6t41 12t33 21.5t13.5 33.5q0 16 -3 22.5t-20 16.5q-16 8 -48 23l-63 28q-32 14 -58.5 26.5t-34.5 16.5q-29 12 -74 22.5 t-88 26t-75 39t-32 64.5q0 4 1 18.5t1 18.5q43 49 107.5 102.5t139.5 98.5t155 74.5t151 29.5q6 0 33 -3t57.5 -10t54 -18.5t23.5 -25.5q0 -18 -14 -35t-34.5 -29t-42 -21.5t-36.5 -11.5q-4 0 -19.5 3.5t-31.5 7.5t-31.5 7t-19.5 3h-31q-25 0 -71 -7t-92 -21.5t-80.5 -36 t-34.5 -50.5q0 -33 36.5 -53.5t92 -36.5t119 -30.5t119 -35t92 -52t36.5 -79.5q0 -59 -32.5 -106t-85 -83t-119 -60.5t-135 -41t-133 -23.5t-113.5 -7q-20 0 -51 3t-61 13.5t-51.5 27.5t-21.5 46z" />
<glyph unicode="t" horiz-adv-x="675" d="M10 625l3 11q3 11 7 19q35 55 69 77t44 22q12 0 23 8q12 8 17 56t5 104h-69q0 27 27.5 53t64.5 46.5t73.5 34t53.5 13.5v-291q0 -2 11 -5t27.5 -6t34 -6t29.5 -3t45 -1t70 -2t69.5 -2t44.5 -1q0 -33 -26.5 -52.5t-66.5 -31t-87 -17.5t-88 -12t-70.5 -16.5t-33.5 -28.5 q-12 -55 -20.5 -95t-13.5 -77t-7 -74t-2 -82v-35q0 -16 2 -34.5t8 -35t16.5 -27.5t26.5 -11h10l123 41q2 0 9 1t12 1q4 0 11 -1t9 -1q-47 -66 -117.5 -116t-156.5 -50q-66 0 -93 49q-23 43 -23 99q0 9 1 18q2 35 8 59.5t14.5 51t16.5 59.5t12 86q5 40 5 70q0 10 -1 19 q-2 36 -5 59.5t-7 36.5t-2 20h-113z" />
<glyph unicode="u" horiz-adv-x="860" d="M20 635l21 -21q10 6 41 21.5t41 19.5q4 2 8 -1t8 -3q0 -63 -9 -126.5t-20.5 -128t-20.5 -128t-9 -127.5q0 -16 5 -36.5t15.5 -39t25.5 -32t38 -13.5q57 0 111.5 34t101.5 82t87 100.5t68 91.5h21v-308q0 -10 8 -15t20 -7q8 -1 14 -1h6q9 1 13 1q33 0 74 16.5t77 43 t60.5 61.5t24.5 69q-4 0 -15.5 -1t-15.5 -3l-82 -41l-4 -1q-4 -1 -6 -1q-23 0 -28 17.5t-5 34.5q0 88 20.5 175t45 171t45 165.5t20.5 159.5q-74 0 -118.5 -50t-76.5 -119.5t-57.5 -143.5t-60.5 -121q-6 -8 -27.5 -34.5t-47 -59.5t-51.5 -64.5t-38 -46.5q-10 -12 -16 -21 t-12.5 -13.5t-13.5 -6.5t-19 -2t-23.5 3t-17.5 20v18q0 12 -1 27.5t-1 28.5v18q0 63 13 124.5t29.5 122t30 122t13.5 122.5q0 14 -2 31t-21 21q-86 -35 -157 -85t-130 -120z" />
<glyph unicode="v" horiz-adv-x="901" d="M20 492q2 0 9.5 -1.5t11.5 -1.5q29 0 51.5 11.5t50.5 31.5q4 -2 11.5 -9t9.5 -11q20 -55 33.5 -118.5t21.5 -129t13.5 -128t13.5 -116.5q2 -4 9 -11t11 -9h10q57 0 107.5 31.5t67.5 91.5q68 82 143.5 163t139 170t105.5 188t42 216q0 20 -20.5 41t-41.5 21 q-49 0 -72.5 -25t-34 -60.5t-12.5 -74.5t-4 -66q-6 -61 -30.5 -129.5t-60.5 -132t-81 -118t-94 -91.5l-20 21l-82 450q-4 16 -16.5 19.5t-24.5 3.5q-16 0 -30.5 -4t-31.5 -19q-12 -10 -41.5 -38.5t-62.5 -61.5t-62 -62.5t-39 -41.5z" />
<glyph unicode="w" horiz-adv-x="1167" d="M18 696q0 45 31 83t72 38q18 0 31.5 -12t23.5 -29.5t17.5 -36t11.5 -32.5q4 -18 11 -65.5t13.5 -101t11.5 -100.5t5 -65l20 -21q35 33 76 98.5t86 131t90 116t86 50.5q27 0 50.5 -34t44 -85t39 -112.5t38 -118t41 -99.5t43.5 -57q29 16 52.5 61t39 99.5t23.5 107.5t8 86 q0 20 -9 36.5t-21.5 32t-21.5 30t-9 30.5q0 18 17 34.5t39.5 29t47.5 19.5t37 7q55 0 70.5 -36t15.5 -89q0 -29 -16.5 -91t-45 -139t-66.5 -160t-80 -150.5t-87 -110.5t-86 -43q-33 0 -57.5 37t-45 91t-39 117.5t-37 118t-36.5 91t-41 36.5q-35 0 -48 -28.5t-34 -63.5 q-10 -16 -36.5 -60t-56.5 -93t-55.5 -93.5t-35.5 -60.5q-6 -6 -20.5 -18.5t-31 -22.5t-33 -18t-28.5 -8h-10q-4 2 -11.5 10t-9.5 12q-2 14 -6 45t-7 65.5t-5 65.5t-2 45q-3 40 -3 64q0 12 1 21q2 26 2 46t-3 47t-18 86q-2 4 -8 23.5t-13 42t-13.5 42t-6.5 24.5q0 2 -1 16 t-1 18z" />
<glyph unicode="x" horiz-adv-x="1126" d="M18 51q0 31 20.5 50.5t51.5 30.5t70 18.5t74.5 11.5t66.5 9t47 13q47 23 90 66t74 78v20q0 25 -10 74t-27.5 96t-42 83t-53.5 36q-2 0 -6 -1l-4 -1q-23 -12 -36.5 -24.5t-25.5 -24t-26.5 -17.5t-38.5 -6q0 45 20.5 87t53 76t74.5 54.5t85 20.5q57 0 91 -39t54.5 -86 t34 -86t31.5 -39q2 0 6 1l4 1l267 246q23 18 56.5 23t61.5 5h33q0 -53 -20.5 -77.5t-52 -38t-69.5 -23.5t-71 -33l-20 -20q-8 -10 -29 -33.5t-43.5 -50.5t-43 -49.5t-28.5 -30.5q0 -4 -1 -20.5t-1 -20.5q0 -23 9.5 -63.5t25.5 -81.5t38.5 -72t49.5 -31q35 0 67.5 22.5 t57.5 41.5q0 -4 1 -15.5t1 -15.5q0 -37 -19.5 -76t-51 -69.5t-70.5 -50t-76 -19.5q-45 0 -78 36t-59.5 78t-47 77.5t-40.5 35.5q-2 0 -5 -1t-6 -1q-49 -43 -93 -81t-90 -65.5t-99 -44t-119 -16.5q-4 0 -22.5 -1t-39 1t-36 9.5t-15.5 23.5z" />
<glyph unicode="y" horiz-adv-x="770" d="M-285 -389q0 37 11.5 57.5t52.5 20.5q35 0 62.5 -13.5t55 -31t57.5 -30.5t71 -13q131 0 216 49t132 131t65.5 189.5t18.5 226.5q0 10 -1 40.5t-1 41.5q-27 -35 -67 -78t-88 -81t-100.5 -63.5t-103.5 -25.5q-25 0 -42 6t-29 37v22q0 16 -1 33.5t-1 34.5v22q0 135 14 261 q10 88 10 181q0 40 -2 81q8 14 24.5 29.5t35 27.5t38 19.5t35.5 7.5q29 0 41 -24t12 -46q0 -100 -22.5 -196.5t-22.5 -196.5v-23q0 -16 1 -33.5t1 -33.5v-23q0 -4 8.5 -20.5t12.5 -20.5l4 -1q4 -1 6 -1t5 1t5 1q37 33 79 78t82 94t73 99.5t53 97.5q2 6 11.5 36.5t20.5 65.5 t19 64.5t11 38.5q16 51 48.5 66t94.5 36q23 -4 22 -27v-32q0 -35 -8 -73t-19 -76t-21.5 -73.5t-14.5 -66.5q-4 -18 -13.5 -87t-19.5 -149t-18 -148.5t-11 -86.5q-23 -125 -90 -230.5t-165.5 -181.5t-218 -119t-244.5 -43q-25 0 -56.5 14.5t-60.5 37t-48.5 49t-19.5 51.5z " />
<glyph unicode="z" horiz-adv-x="901" d="M18 70q0 23 25 51.5t56.5 56t62.5 50t43 34.5q20 20 72.5 76.5t112 120t111.5 120t72 76.5q-47 14 -80.5 19.5t-78.5 5.5q-31 0 -54.5 -14.5t-46 -33t-47 -32.5t-61.5 -14v26q0 2 11 15.5t27.5 31t34 35t29.5 27.5t32.5 25.5t44.5 28.5t46.5 23.5t40.5 10.5h389l21 -23 q-2 -4 -9.5 -12t-11.5 -10q-8 -6 -41 -28.5t-71.5 -47t-71.5 -47.5t-41 -29q-31 -27 -76 -72.5t-87 -92t-72.5 -81t-30.5 -38.5v-43l204 -88q45 -16 91.5 -30.5t93.5 -14.5q31 0 52 3t50 21q10 -6 16.5 -29.5t6.5 -40.5q0 -12 -2 -18t-23 -16q-12 -6 -29.5 -14.5t-36 -15.5 t-33.5 -12l-22 -7q-12 -2 -37.5 -6.5t-51 -7.5t-47 -6t-28.5 -3q-53 0 -98 20.5t-89 46t-88 46t-93 20.5q-29 0 -48.5 -17.5t-37 -38t-35.5 -37.5t-43 -17q-16 0 -19.5 17.5t-3.5 29.5z" />
<glyph unicode="{" horiz-adv-x="430" d="M20 733q-2 43 6.5 101.5t30 112.5t57.5 91t91 37q63 0 120.5 -32.5t84.5 -96.5q-47 16 -80 2t-55.5 -48t-37 -80t-22.5 -94t-10 -91t-2 -70q0 -154 48 -286t159 -242v-41q-72 12 -127.5 55t-98.5 105.5t-72.5 138.5t-49 153.5t-30 152.5t-12.5 132z" />
<glyph unicode="|" horiz-adv-x="307" d="M35 74v28q0 123 9 246t19.5 246t19.5 247t9 251q-27 0 -51 10q-23 10 16 82q6 6 23.5 16t36 19.5t36 17.5t27.5 12q2 0 9.5 1t11.5 1q41 0 52 -34.5t11 -75.5v-43q0 -113 -10 -222.5t-22.5 -219t-22.5 -220t-10 -221.5v-22q0 -16 1 -35t1 -33v-23q4 -4 19.5 -14t33.5 -27 l16 -18q8 -74 -47 -98q-53 -27 -104 -27q-27 0 -49.5 6t-32.5 41v27q0 20 -1 43t-1 39z" />
<glyph unicode="}" d="M20 1098h11h10q6 -4 21.5 -11.5t19.5 -11.5q96 -80 176 -168t136.5 -185t88 -206.5t31.5 -232.5q0 -43 -12.5 -92.5t-39 -92.5t-67.5 -70.5t-98 -27.5q-16 0 -35.5 4t-37 13.5t-30 22.5t-12.5 32q0 39 22.5 73.5t50.5 69.5t51.5 72t23.5 80q0 123 -18.5 216t-56.5 175 t-96.5 162t-138.5 178z" />
<glyph unicode="~" horiz-adv-x="720" d="M12 317q63 29 104.5 44.5t51.5 27.5q20 25 53 25t98 -37q104 -55 166 -55q86 0 140.5 55t56.5 172q-57 -61 -113.5 -73.5t-89.5 -12.5t-94 29q-109 55 -168 55q-90 0 -147 -64q-58 -60 -58 -166z" />
<glyph unicode="&#xa1;" horiz-adv-x="364" d="M43 88q0 -14 2 -30.5t9 -31t19.5 -23.5t32.5 -9q4 0 11.5 2t9.5 2q8 4 26.5 12t38 16.5t36 15.5t22.5 11q18 20 21 35.5t-5 25t-22.5 13.5t-28.5 4q0 100 9 201.5t20 202.5q4 51 8 85.5t8 57.5q6 43 6 100h-139q-18 -25 -29 -114q-4 -45 -10 -89.5t-12 -89.5 q-12 -92 -22.5 -180t-10.5 -180v-37zM115 1014q12 -39 45 -65.5t76 -26.5q31 0 66.5 19.5t35.5 53.5q0 41 -37 68t-74 27q-41 0 -65 -16.5t-47 -59.5z" />
<glyph unicode="&#xa2;" horiz-adv-x="614" d="M18 379q0 -113 59.5 -185.5t155.5 -89.5l-18 -145q2 0 9 -2t12 -2q53 0 77.5 47t36.5 111q41 10 86 30.5t82 50t61.5 65.5t24.5 79q-31 0 -56.5 -12.5t-51 -26.5t-51 -26.5t-56.5 -12.5h-20q4 47 12 72l39 463q102 16 133 67l41 45l-21 21q-4 0 -28.5 1t-36.5 1 q-16 0 -30.5 -1t-31.5 -3l21 82q10 41 10 82q-37 0 -60.5 -15.5t-39 -41t-25.5 -58.5t-18 -66l-2 -18q-68 -31 -126.5 -83t-99 -119.5t-64.5 -146.5t-24 -163zM182 502q0 27 4 68.5t15 84.5q12 43 38.5 70t51.5 45l26 4l-59 -461q-35 35 -55.5 84.5t-20.5 104.5z" />
<glyph unicode="&#xa3;" horiz-adv-x="778" d="M18 313q0 -55 6.5 -111.5t28 -101.5t62.5 -73.5t108 -28.5q74 0 154 24.5t151.5 66.5t132 99.5t97.5 124.5h-41q-53 -43 -92 -74.5t-76 -52t-79 -31t-101 -10.5q-10 0 -41 1t-41 1q-45 35 -66.5 74t-36.5 92q12 12 39 22.5t59.5 20t62.5 19.5t48 22q70 45 105 107 q37 63 49 125.5t4 130.5q-2 35 -13.5 54.5t-50.5 19.5q-98 0 -183 -51.5t-148.5 -128t-100.5 -168t-37 -173.5zM182 492q0 29 20.5 65.5t53.5 68t73 53t79 21.5q37 -55 -9 -141q-12 -23 -39.5 -41t-61.5 -33.5t-64.5 -29t-49.5 -25.5q0 6 -1 30t-1 32z" />
<glyph unicode="&#xa4;" horiz-adv-x="778" d="M18 313q0 82 21.5 174.5t68 170t116 130t167.5 52.5q39 0 50.5 -19.5t13.5 -54.5q8 -68 -4.5 -130.5t-49.5 -125.5q-35 -59 -104 -107q-35 -23 -62.5 -45t-50.5 -45q14 -53 36 -92t67 -74q10 0 40.5 -1t41.5 -1q59 0 101 10.5t79 31t76 52t92 74.5h41q-37 -68 -97.5 -125 t-132 -99t-151.5 -66.5t-154 -24.5q-68 0 -108.5 28.5t-62 73.5t-28 101.5t-6.5 111.5zM182 492q0 -8 1 -32t1 -30q72 47 119 135q45 86 8 142q-39 0 -63.5 -22.5t-38.5 -55.5t-20.5 -70.5t-6.5 -66.5z" />
<glyph unicode="&#xa5;" horiz-adv-x="1159" d="M20 -176q0 -49 34 -79t80 -47t94 -23.5t79 -6.5q59 0 106.5 5t98.5 42q86 82 146.5 149.5t101.5 147.5q39 6 90 16.5t99 26t87 36t58 42.5h-265h-26q4 16 8 34.5t8 39.5q2 23 9.5 69t16.5 104t20.5 126.5t21.5 138.5q78 16 154.5 43t105.5 64h-242q12 84 22.5 149.5 t14.5 95.5v11q0 55 -49 55q-47 0 -77 -28.5t-48 -74t-28.5 -100.5t-16.5 -110h-14l-109 -7q-14 -4 -32.5 -14t-36 -23.5t-28.5 -30t-11 -30.5q37 0 63.5 -2t51 -5t49 -5t53.5 -4q-4 -16 -6.5 -31.5t-6.5 -26.5q-18 -49 -56 -99t-80 -96t-83 -84t-67 -63q-4 0 -15.5 -1 t-15.5 -1q-47 0 -60.5 29t-13.5 72q0 94 17.5 186t37 184.5t37 183.5t17.5 185q-31 0 -72 -23.5t-79 -58.5t-65.5 -75t-33.5 -72h53l2 -16q2 -15 4 -36.5t3 -45t-1 -42.5q-16 -127 -39.5 -248.5t-23.5 -252.5v-19q0 -14 1 -29.5t1 -27.5v-21q10 -37 36.5 -41t53.5 -4 q39 0 71.5 7.5t63.5 37.5l246 256h10v-174v-26q0 -12 -2 -27l-96 -4q-14 -4 -32.5 -14.5t-36 -23.5t-29 -29.5t-11.5 -30.5q63 0 102.5 -5.5t86.5 -9.5q-20 -82 -71.5 -136t-156.5 -54q-49 0 -94 20.5t-81 45t-60.5 45t-30.5 20.5q-2 0 -6 -1l-4 -1q-6 -6 -27.5 -28.5 t-38.5 -37.5q-14 -12 -23.5 -30.5t-13.5 -30.5z" />
<glyph unicode="&#xa6;" horiz-adv-x="307" d="M35 74v28q0 123 9 246t19.5 246t19.5 247t9 251q-27 0 -51 10q-23 10 16 82q6 6 23.5 16t36 19.5t36 17.5t27.5 12q2 0 9.5 1t11.5 1q41 0 52 -34.5t11 -75.5v-43q0 -113 -10 -222.5t-22.5 -219t-22.5 -220t-10 -221.5v-22q0 -16 1 -35t1 -33v-23q4 -4 19.5 -14t33.5 -27 l16 -18q8 -74 -47 -98q-53 -27 -104 -27q-27 0 -49.5 6t-32.5 41v27q0 20 -1 43t-1 39z" />
<glyph unicode="&#xa7;" horiz-adv-x="880" d="M20 133q8 -39 39 -64.5t71 -41t81 -22.5t72 -7q94 0 169.5 17.5t140 54t124 96t123.5 143.5q4 10 12 42t8 46q-8 51 -36.5 85t-71.5 57v77q0 37 -13 58q-35 68 -73.5 91t-73.5 32l-27 4h-119q-37 0 -65.5 -6.5t-54.5 -26.5v16q0 61 36.5 92t92 44.5t119 16.5t119 9 t92 22.5t36.5 55.5q0 2 -1 7l-1 5q-2 4 -9 11.5t-11 9.5h-82q-2 2 -8 2q-66 0 -160 -25.5t-180 -75t-146.5 -119t-60.5 -155.5q0 -63 45 -109q-10 -31 -13.5 -57t-3.5 -51t3.5 -46.5t7.5 -41.5q2 -41 22.5 -69.5t49 -46t61.5 -26t59 -8.5q92 0 157.5 11.5t108.5 40.5v-5 q0 -49 -32.5 -77.5t-77.5 -44t-93 -19.5t-79 -4q-37 0 -70 14.5t-64.5 32t-63.5 31.5t-66 14q-12 0 -27.5 -7t-30 -18.5t-25 -26.5t-10.5 -30v-8zM317 514q0 20 19.5 44t47.5 45.5t56.5 35.5t44.5 14q25 0 50.5 -13t48 -33.5t39 -45t22.5 -47.5q-12 -25 -32.5 -50.5t-45 -47 t-50 -34.5t-48.5 -13t-48.5 13t-49 34.5t-39 47t-15.5 50.5z" />
<glyph unicode="&#xa8;" horiz-adv-x="780" d="M14 1208q0 20 11.5 36t29 26t38 16t36.5 6q47 0 84 -29.5t49 -74.5q-25 -49 -51.5 -67.5t-71.5 -18.5q-43 0 -84 29.5t-41 76.5zM465 1202q0 20 11 35.5t28.5 26t38 16.5t37.5 6q47 0 83.5 -29.5t49.5 -74.5q-25 -49 -51.5 -67.5t-71.5 -18.5q-43 0 -84 29.5t-41 76.5z " />
<glyph unicode="&#xa9;" horiz-adv-x="839" d="M20 444q0 -80 13.5 -158.5t47.5 -142t94.5 -103.5t152.5 -40q111 0 200.5 63.5t154.5 159.5t100.5 210t35.5 212q0 88 -18.5 164t-58.5 131t-103.5 87t-153.5 32q-104 0 -190 -59.5t-146.5 -150.5t-94.5 -199t-34 -206zM170 571q0 49 7 107.5t28.5 109t59.5 85t97 34.5 q78 0 135.5 -31.5t94.5 -84t54.5 -121t17.5 -142.5q0 -51 -9.5 -113.5t-33 -116.5t-63.5 -91t-101 -37q-82 0 -136.5 36t-88 92t-48 127.5t-14.5 145.5zM225 465q0 -70 40 -112t102 -42q23 0 53.5 9.5t59 27t48 42t19.5 52.5q-33 0 -58.5 -21.5t-58.5 -21.5q-51 0 -83 40 t-32 93q0 14 2 38t8.5 46.5t20.5 38t29 25.5l61 12q63 8 82 39l23 25l-11 10q-4 0 -16 1t-20 1q-55 0 -104.5 -24.5t-85.5 -66.5t-57.5 -96.5t-21.5 -115.5z" />
<glyph unicode="&#xaa;" horiz-adv-x="497" d="M12 735v25q0 63 25.5 125.5t70 112t103.5 79t127 29.5h4q10 -6 10 -12v-11q0 -8 1 -17t1 -17v-11q0 -63 -12 -122.5t-12 -120.5v-39q4 -10 12 -11l2 -1q2 -1 4 -1l4 2l70 43q4 4 10 5v-25q0 -2 -11 -14.5t-27.5 -28.5t-34 -32.5t-29.5 -26.5q-4 -4 -14.5 -8.5t-20.5 -7.5 t-19.5 -5t-11.5 -2t-5 4t-7 6q-16 25 -17.5 54.5t-5.5 60.5q-25 -6 -45 -25.5t-41.5 -39t-44 -35t-51.5 -15.5q-16 0 -23.5 14.5t-9.5 33t-2 34.5zM82 825q0 -8 1 -22.5t5 -27.5t10 -22.5t19 -9.5q4 0 7 1t5 1q59 49 99 120t40 153q-84 0 -135 -53.5t-51 -139.5z" />
<glyph unicode="&#xab;" horiz-adv-x="1501" d="M20 752q0 -27 38 -84.5t98.5 -129t133 -147.5t143.5 -139.5t129.5 -103t88.5 -39.5q35 0 59.5 23.5t24.5 68.5q0 18 -6 42.5t-15 46t-23.5 37t-28.5 15.5q-20 0 -35 -13.5t-37 -13.5q-55 0 -97 32t-76 81t-64.5 105.5t-61.5 105.5q0 2 -1 6t-1 6q0 23 28.5 40.5 t71.5 32.5t92 29.5t92 33t72 43t29 59.5q0 31 -5 80t-10 90q-2 20 -11 37.5t-22.5 23.5t-30.5 -2t-38 -39l-49 -47q0 2 -14.5 -5t-34 -16.5t-40 -18.5t-34.5 -11q-53 -18 -88 -40.5t-68.5 -43t-70.5 -36t-92 -17.5q-29 -16 -37.5 -38.5t-8.5 -53.5zM696 752q0 -27 38 -84.5 t98.5 -129t133 -147.5t143.5 -139.5t129 -103t89 -39.5q35 0 59.5 23.5t24.5 68.5q0 18 -6 42.5t-15.5 46t-23.5 37t-29 15.5q-20 0 -34.5 -13.5t-36.5 -13.5q-55 0 -97.5 32t-76 81t-64.5 105.5t-61 105.5q0 2 -1 6t-1 6q0 23 28.5 40.5t71.5 32.5t92 29.5t92 33t72 43 t29 59.5q0 31 -5.5 80t-9.5 90q-2 20 -11 37.5t-22.5 23.5t-31 -2t-37.5 -39l-49 -47q0 2 -14.5 -5t-34 -16.5t-40 -18.5t-34.5 -11q-53 -18 -88 -40.5t-69 -43t-70.5 -36t-92.5 -17.5q-29 -16 -37 -38.5t-8 -53.5z" />
<glyph unicode="&#xac;" horiz-adv-x="649" d="M14 426h105q63 0 128.5 -1t127.5 -1h106q29 0 33 -28.5t1 -62.5t-6 -62.5t9 -28.5q2 0 15.5 1t30 2t29.5 4t17 7l-26 289h-31q-4 0 -16.5 -3t-25.5 -7.5t-25.5 -7.5t-14.5 -3q-18 0 -68.5 -1t-105.5 -1t-104.5 1t-69.5 1q-14 -4 -32.5 -14t-36 -23.5t-29 -30t-11.5 -30.5 z" />
<glyph unicode="&#xad;" horiz-adv-x="534" d="M14 426q43 0 65.5 -3t40 -8t40 -8.5t65.5 -3.5q33 0 71 12.5t74 33t67.5 46t51.5 52.5h-30h-31q-4 0 -16.5 -3t-25.5 -7.5t-25.5 -7.5t-14.5 -3q-18 0 -68.5 -1t-105.5 -1h-49q-14 -4 -32.5 -14t-36 -23.5t-29 -30t-11.5 -30.5z" />
<glyph unicode="&#xae;" horiz-adv-x="839" d="M20 444q0 -80 13.5 -158.5t47.5 -142t94.5 -103.5t152.5 -40q111 0 200.5 63.5t154.5 159.5t100.5 210t35.5 212q0 88 -18.5 164t-58.5 131t-103.5 87t-153.5 32q-104 0 -190 -59.5t-146.5 -150.5t-94.5 -199t-34 -206zM152 545q0 49 15 113.5t46 123t76 99.5t104 41 q78 0 136.5 -33t97.5 -86t58.5 -123t19.5 -143q0 -51 -21.5 -118t-60.5 -126.5t-91.5 -100t-113.5 -40.5q-82 0 -133.5 33.5t-81 89t-40.5 126t-11 144.5zM234.5 693q7.5 -1 44.5 -1q12 0 19 -19.5t7 -27.5l-43 -321v-7q0 -6 10 -10h7q29 0 45 27.5t25 68.5t17.5 88.5 t22.5 88.5t40 68.5t71 27.5q10 0 15 -3t9 -8.5t9.5 -8.5t15.5 -3q18 0 43.5 11.5t25.5 40.5v8q-2 4 -10 12t-12 10h-37q-33 0 -54.5 -3t-37.5 -11t-33.5 -20.5t-42.5 -32.5q-2 -2 -6 -2q-8 0 -11 14t-9.5 32.5t-17.5 33t-34 14.5q-4 0 -6 -1l-2 -1q-18 -25 -38.5 -38 t-30 -19.5t-2 -7.5z" />
<glyph unicode="&#xaf;" horiz-adv-x="819" d="M0 1405h815v82h-815v-82z" />
<glyph unicode="&#xb0;" horiz-adv-x="446" d="M12 813q0 49 21.5 100.5t58.5 93.5t85 69.5t102 27.5q37 0 60 -16.5t35.5 -42t17.5 -56.5t5 -59q0 -49 -20.5 -106.5t-55 -105.5t-84 -81t-104.5 -33q-43 0 -67.5 19.5t-36 50.5t-14.5 67.5t-3 71.5zM113 848q0 -23 2 -50.5t11 -53t27.5 -43t51.5 -17.5q31 0 50 21.5 t31.5 52t16.5 63.5t4 56q0 20 -5 47.5t-16.5 52t-29.5 42t-45 17.5q-35 0 -54.5 -21.5t-28.5 -51t-12 -61t-3 -54.5z" />
<glyph unicode="&#xb1;" horiz-adv-x="798" d="M33 504q0 -4 6 -11.5t10 -9.5l4 -1q4 -1 6 -1t7 1l4 1q14 4 44.5 18.5t43.5 22.5l198 -20l-14 -78q-2 -16 11.5 -44t34 -54.5t45 -46t46.5 -19.5h10l-30 103l20 139h64q16 0 50 9t67.5 24.5t60.5 35t29 41.5l2 11l-136 2h-124l8 82q2 31 -6.5 52t-23.5 37.5t-34.5 32 t-38.5 31.5q-4 -2 -12 -9t-10 -11l-2 -4q-2 -4 -2 -7q0 -2 1 -6l1 -4q4 -12 14 -41.5t16 -40.5l-34 -112h-127q-59 0 -115.5 -40t-93.5 -83zM100 57q86 0 168 -12t168 -12h70q39 0 75.5 6t69.5 20.5t54 40.5l-27 86h-31q-4 0 -17.5 -5t-28.5 -10t-28.5 -10t-15.5 -5 q-18 0 -68.5 -1t-105.5 -1t-104.5 1t-69.5 1q-14 -4 -32.5 -14.5t-36 -24t-29 -30t-11.5 -30.5z" />
<glyph unicode="&#xb2;" horiz-adv-x="446" d="M2 637h12q23 0 39.5 16.5t38.5 16.5q20 0 40 -7.5t38 -15.5t36.5 -15t41.5 -7q41 0 71.5 12t67.5 33v10q0 12 -26.5 18.5t-61.5 12.5t-67.5 18t-47.5 37q8 6 31 27.5t47.5 46t47 46t30.5 29.5q20 20 33.5 49t13.5 58q0 47 -43 71.5t-86 24.5q-39 0 -75 -12t-63.5 -34.5 t-45 -52.5t-17.5 -67q0 -4 -1 -15t1 -23.5t6.5 -21.5t16.5 -9q20 0 38.5 14t18.5 35v4l-10 65v7q0 16 24.5 31.5t43.5 15.5q35 0 68.5 -21.5t33.5 -58.5q0 -53 -38 -94t-88 -78t-99.5 -77t-69.5 -89z" />
<glyph unicode="&#xb3;" horiz-adv-x="448" d="M6 678q0 -14 15.5 -27.5t37 -23t44 -15.5t34.5 -6q39 0 85 18.5t86 48t67.5 67.5t27.5 77q0 31 -16 53.5t-35.5 39t-36 27.5t-16.5 24v4q6 8 20.5 21t27.5 29.5t23.5 33t10.5 32.5q0 4 -1 14.5t-11 10.5h-170q-16 0 -31.5 -17.5t-15.5 -29.5l2 -6q4 -4 7 -11l3 -6h110 q0 -25 -17 -40t-37.5 -28.5t-38 -28.5t-17.5 -38v-10q25 -10 48.5 -21.5t43.5 -27t32.5 -36t12.5 -48.5q0 -41 -34 -53.5t-64 -12.5q-39 0 -69 17.5t-66 17.5q-20 0 -41 -13t-21 -36z" />
<glyph unicode="&#xb4;" horiz-adv-x="354" d="M20 774l93 115l43 104q0 2 -1 9.5t-1 11.5t1 11t1 9q6 4 11 20.5t21.5 29t23.5 16.5t24 4q57 -8 68 -40t11 -71q0 -43 -25.5 -86t-65.5 -77.5t-89 -56t-94 -21.5q-4 0 -10.5 11t-10.5 11z" />
<glyph unicode="&#xb5;" horiz-adv-x="1050" d="M-8 -154q0 16 13 60.5t30.5 92.5t31 90t13.5 52l59 510q-4 0 -7 2t-7 2h-2q-6 -2 -17.5 -8t-23.5 -12t-23.5 -12.5t-17.5 -8.5l-21 21q117 135 287 205q16 -4 19.5 -18.5t3.5 -28.5v-5q0 -61 -13.5 -122.5t-30 -122t-29.5 -122t-13 -124.5v-18l2 -74q6 -16 17 -19.5 t24 -3.5q25 0 32 8.5t29 34.5q12 14 38 46t51.5 65t47 59.5t27.5 34.5q35 47 60.5 121t57.5 143.5t77 119.5t118 50q0 -78 -20.5 -159.5t-45 -165.5t-45 -171t-20.5 -175q0 -16 5.5 -34t27.5 -18l14 -16q14 -16 25.5 -29.5t13.5 -15.5q16 14 29.5 33.5t25 37t20.5 31 t19 15.5l35 7t27 3q31 0 43 -12.5t12 -30.5q0 -16 -6 -32.5t-12 -30t-11 -22.5l-6 -9q0 -25 -19 -39.5t-51 -21.5t-71 -10t-78 -3q-37 0 -68.5 1t-54.5 1h-16q-14 0 -29.5 3t-15.5 19v308h-21q-29 -39 -62.5 -89.5t-73.5 -96.5t-87 -79.5t-104 -39.5q-20 -2 -17.5 -13.5 t2.5 -23.5q0 -25 6.5 -62t12.5 -72.5t10 -60t0 -24.5q-90 -6 -137 5t-66.5 26.5t-21.5 29.5t-2 18z" />
<glyph unicode="&#xb6;" horiz-adv-x="1159" d="M37 778v29q0 16 2 33q8 135 133 219q16 4 45 10t70 16q39 10 124 19.5t220 9.5l-60 2q164 0 250 -15.5t99 -19.5h2q10 -2 16 -2h14q31 0 69 -13t69 -38q20 -14 20 -37q0 -16 -4 -24q-8 -39 -37 -39q-27 0 -37 -17.5t-14 -38.5l-8 -32l-88 -789q-2 -6 -4.5 -20.5 t-7.5 -27.5t-14 -24.5t-26 -11.5q-18 0 -35.5 14.5t-30.5 34t-22.5 39t-13.5 27.5q2 16 7 60t9 93.5t8.5 93.5t6.5 60q-2 6 -2 23q0 8 5 70.5t15 181.5q-23 -4 -49 -5h-51q-29 0 -34 1.5t-4 2.5q-1 3 -22 3l-39 -381q-2 -18 -3 -42t-3 -49.5t-4 -50t-6 -43.5l-4 -20 q-76 -106 -109 -107h-2q-35 4 -90 31q6 207 33 223q12 8 18.5 41t10.5 54q12 57 12 90q0 16 -2 22q-2 39 -88 62q-47 10 -84 22t-72 25l-24 12q-41 20 -79 43t-63 61q-22 31 -22 119z" />
<glyph unicode="&#xb7;" horiz-adv-x="327" d="M31 532q0 -4 9 -11t23.5 -15t30 -16.5t25.5 -12.5q2 0 15 -1t20 -1q14 0 33.5 4t37 13.5t29.5 23.5t12 33q0 18 -13 34.5t-32.5 30t-41 21.5t-36.5 8q-4 0 -28.5 -11t-38.5 -32l-45 -51v-17z" />
<glyph unicode="&#xb8;" horiz-adv-x="268" d="M20 -190q0 2 2 6l1 4q2 4 16 12t31.5 16.5t33 15.5t19.5 11q2 20 -2 35.5t-10.5 31t-11.5 31t-5 35.5h84q6 -18 15.5 -34.5t16.5 -36t13 -45t6 -62.5q0 -16 -5 -36.5t-15 -38t-25.5 -29t-36.5 -11.5q-16 0 -37.5 8.5t-42 21.5t-34 31t-13.5 34z" />
<glyph unicode="&#xb9;" horiz-adv-x="251" d="M18 1014q31 41 82.5 67.5t102.5 26.5q0 -117 -16.5 -228.5t-10.5 -226.5q-12 -18 -36.5 -31.5t-47.5 -13.5q-16 0 -17 16.5t-1 26.5q0 84 12 165t12 167l1 7q1 7 1 16q0 20 -14 20q-2 0 -15.5 -6t-17.5 -6q-2 0 -7 -1t-9 -1t-9.5 1t-9.5 1z" />
<glyph unicode="&#xba;" horiz-adv-x="446" d="M12 813q0 49 21.5 100.5t58.5 93.5t85 69.5t102 27.5q37 0 60 -16.5t35.5 -42t17.5 -56.5t5 -59q0 -49 -20.5 -106.5t-55 -105.5t-84 -81t-104.5 -33q-43 0 -67.5 19.5t-36 50.5t-14.5 67.5t-3 71.5zM113 848q0 -23 2 -50.5t11 -53t27.5 -43t51.5 -17.5q31 0 50 21.5 t31.5 52t16.5 63.5t4 56q0 20 -5 47.5t-16.5 52t-29.5 42t-45 17.5q-35 0 -54.5 -21.5t-28.5 -51t-12 -61t-3 -54.5z" />
<glyph unicode="&#xbb;" horiz-adv-x="1501" d="M23 201q0 18 6 42.5t15 46t22.5 37t29.5 15.5q20 0 34.5 -13.5t37.5 -13.5q55 0 97 32t76 81t64.5 105.5t61.5 105.5q0 2 1 6t1 6q0 23 -28.5 40.5t-71.5 32.5t-92.5 29.5t-92.5 33t-71.5 43t-28.5 59.5q0 31 5 80t9 90q2 20 11.5 37.5t22.5 23.5t30.5 -2t38.5 -39 l49 -47q0 2 14.5 -5t33.5 -16.5t39.5 -18.5t35.5 -11q51 -18 87 -40.5t69.5 -43t70.5 -36t92 -17.5q29 -16 37 -39t8 -53q0 -27 -37.5 -84.5t-98 -129t-133.5 -147.5t-143.5 -139.5t-129 -103t-89.5 -39.5q-35 0 -59 23.5t-24 68.5zM698 201q0 18 6.5 42.5t15.5 46t22.5 37 t29.5 15.5q20 0 34.5 -13.5t37.5 -13.5q55 0 97 32t76 81t64.5 105.5t61.5 105.5q0 2 1 6t1 6q0 23 -29 40.5t-72 32.5t-92 29.5t-92 33t-71.5 43t-28.5 59.5q0 31 5 80t9 90q2 20 11.5 37.5t22.5 23.5t30.5 -2t38.5 -39l49 -47q0 2 14 -5t33.5 -16.5t40 -18.5t35.5 -11 q51 -18 86.5 -40.5t69.5 -43t71 -36t92 -17.5q29 -16 37 -39t8 -53q0 -27 -38 -84.5t-98 -129t-133 -147.5t-143.5 -139.5t-129 -103t-89.5 -39.5q-35 0 -59.5 23.5t-24.5 68.5z" />
<glyph unicode="&#xbc;" horiz-adv-x="1144" d="M4 860q4 0 9 -1t10 -1q4 0 9 1t7 1q4 0 17.5 6t15.5 6q14 0 14 -20q0 -8 -1 -15l-1 -8q0 -86 -12.5 -165.5t-12.5 -165.5q0 -10 1 -26.5t18 -16.5q23 0 47.5 13t36.5 32q-6 115 10 226.5t16 227.5q-51 0 -102 -26.5t-82 -67.5zM197 18l225 797q8 33 21.5 64.5t34 57.5 t48 41t64.5 15q0 -35 -11.5 -71.5t-25.5 -73.5t-28.5 -72t-20.5 -67q-14 -57 -31.5 -131t-38 -152t-43 -151.5t-50.5 -131t-58.5 -93.5t-65.5 -36q-4 0 -11 2t-9 2zM473 219v6v6l158 144l80 82q14 14 40.5 36.5t55.5 44t53.5 38t36.5 16.5q10 0 17.5 -12.5t11.5 -20.5v-4 q0 -57 -12.5 -111.5t-12.5 -111.5q0 -6 1 -16.5t1 -12.5l23 -10h6h31h14h20q14 0 21 2q12 4 20 4t21 4q23 4 10 -33q-16 -37 -39 -43q-29 -10 -67 -12q-37 -6 -60 -6l-12 -10v-82q0 -8 -12.5 -17.5t-27.5 -17.5t-30.5 -13.5t-21.5 -5.5q-14 0 -15.5 7.5t-5.5 25.5 q0 6 -1 21.5t-1 32.5q0 16 1 30.5t1 18.5l-12 10h-270q-2 0 -10.5 5t-12.5 5zM621 299h157q14 0 21.5 20.5t10.5 47t4 51t1 35.5h-14z" />
<glyph unicode="&#xbd;" horiz-adv-x="935" d="M4 860q4 0 9 -1t10 -1q4 0 9 1t7 1q4 0 17.5 6t15.5 6q14 0 14 -20q0 -8 -1 -15l-1 -8q0 -86 -12.5 -165.5t-12.5 -165.5q0 -10 1 -26.5t18 -16.5q23 0 47.5 13t36.5 32q-6 115 10 226.5t16 227.5q-51 0 -102 -26.5t-82 -67.5zM197 18l225 797q8 33 21.5 64.5t34 57.5 t48 41t64.5 15q0 -35 -11.5 -71.5t-25.5 -73.5t-28.5 -72t-20.5 -67q-14 -57 -31.5 -131t-38 -152t-43 -151.5t-50.5 -131t-58.5 -93.5t-65.5 -36q-4 0 -11 2t-9 2zM465 113q20 51 69.5 90t99.5 75.5t88 77.5t38 95q0 37 -34 58t-69 21q-18 0 -42.5 -15t-24.5 -32v-6l10 -65 v-4q0 -20 -18.5 -35t-38.5 -15q-12 0 -16.5 9.5t-6.5 21.5t-1 23.5t1 15.5q0 37 17.5 66.5t45 52t63.5 35t75 12.5q43 0 86 -24.5t43 -71.5q0 -29 -13.5 -57.5t-33.5 -49.5l-30 -30q-22 -22 -47.5 -46t-48 -45.5t-30.5 -27.5q14 -25 47 -37t68 -18.5t61.5 -12.5t26.5 -18 v-11q-37 -20 -67.5 -32.5t-71.5 -12.5q-23 0 -41.5 7.5t-37 15.5t-38 15t-39.5 7q-23 0 -39 -16t-39 -16h-12z" />
<glyph unicode="&#xbe;" horiz-adv-x="1261" d="M6 496q0 23 20.5 36t41.5 13q37 0 66.5 -17.5t68.5 -17.5q31 0 64.5 12.5t33.5 52.5q0 29 -12.5 49.5t-32.5 36t-44 26.5l-48 22v10q0 23 17.5 38t38 28.5t37.5 28.5t17 40h-110l-3 6q-3 6 -7 10l-2 7q0 12 15 29.5t32 17.5h170q10 0 11 -10.5t1 -14.5q0 -16 -10.5 -33.5 t-23.5 -33t-27.5 -28.5t-20.5 -22v-4q0 -12 16.5 -23.5t36 -27.5t35.5 -38.5t16 -53.5q0 -39 -27.5 -77t-67.5 -67.5t-86 -48t-85 -18.5q-12 0 -34.5 6t-44 15.5t-37 23t-15.5 27.5zM350 18l225 797q8 33 21.5 64.5t34 57.5t48.5 41t64 15q0 -35 -11 -71.5t-25.5 -73.5 t-28.5 -72t-21 -67q-14 -57 -31.5 -131t-38 -152t-43 -151.5t-50 -131t-58 -93.5t-65.5 -36q-4 0 -11.5 2t-9.5 2zM627 219v6v6l157 144l80 82q14 14 41 36.5t55.5 44t53 38t37.5 16.5q10 0 17 -12.5t11 -20.5v-4q0 -57 -12 -111.5t-12 -111.5q0 -6 1 -16.5t1 -12.5l22 -10 h6h31h14h21q14 0 20 2q12 4 21 4q8 0 20 4q23 4 11 -33q-16 -37 -39 -43q-29 -10 -68 -12q-37 -6 -59 -6l-13 -10v-82q0 -8 -12 -17.5t-27.5 -17.5t-31 -13.5t-21.5 -5.5q-14 0 -15 7.5t-5 25.5q0 6 -1 21.5t-1 32.5q0 16 1 30.5t1 18.5l-12 10h-271q-2 0 -10 5t-12 5z M774 299h158q14 0 21.5 20.5t10.5 47t4 51t1 35.5h-15z" />
<glyph unicode="&#xbf;" horiz-adv-x="737" d="M18 246q0 -123 73 -185.5t196 -62.5q55 0 136 15.5t142 47.5q59 33 106.5 82.5t47.5 116.5q0 29 -14.5 53.5t-49.5 24.5t-48 -17.5t-18 -44t-7 -58.5t-14.5 -58.5t-38 -44t-78.5 -17.5q-45 0 -89.5 16.5t-80 46t-57 68.5t-21.5 86q0 53 55 93.5t131 77t150.5 75.5 t115.5 92q0 4 1 20.5t1 20.5q0 29 -6 55.5t-45 26.5q-20 0 -47 -4t-51.5 -13t-41.5 -25.5t-17 -39.5q0 -25 12 -41t12 -41q0 -16 -33.5 -34.5t-84 -41t-110 -49t-109.5 -62.5t-84 -80t-34 -99zM387 989q0 -2 1 -5t1 -5q29 -35 52.5 -49.5t60.5 -14.5t76.5 21.5t39.5 62.5 q0 31 -25.5 57.5t-57.5 26.5q-18 0 -43 -6t-48.5 -18t-40 -29.5t-16.5 -40.5z" />
<glyph unicode="&#xc0;" horiz-adv-x="1515" d="M18 203q0 -55 25 -97.5t66 -70t94 -40.5t110 -13q135 0 258 58t228 132h10q18 0 35.5 -6t34 -14.5t34 -14.5t39.5 -6q41 0 69 7t64 34q-2 -12 -3 -25.5t-1 -27.5q0 -41 16.5 -79t67.5 -38q31 0 77 14.5t89 38t73 54t30 63.5q0 4 -8.5 11t-12.5 7q-27 -16 -50.5 -27 t-53.5 -11q-18 0 -27.5 11t-12.5 26.5t-2 31t1 25.5q0 68 12 139.5t31.5 142t41 140t40.5 135.5q6 18 23.5 54t37 77t33.5 80t14 63h-47q-29 0 -98.5 -1t-148.5 -3t-148.5 -5t-95.5 -5q-104 -10 -192.5 -52t-160 -107.5t-132 -138.5t-93.5 -165q-41 -12 -84 -25.5t-84 -33 t-76 -46t-59 -63.5q-20 -43 -32.5 -70.5t-19.5 -51t-9.5 -47t-2.5 -60.5zM182 305q0 137 174 137q39 0 104.5 -23.5t127 -55t106.5 -66.5t45 -55q0 -29 -36.5 -52.5t-86 -39t-99.5 -23.5t-77 -8q-49 0 -96 13t-83 38t-57.5 59.5t-21.5 75.5zM530 647q0 63 44 109.5t112 77 t150 45t155 14.5h109q49 0 108 -19v-28q0 -18 -9 -55t-25.5 -82t-42 -92.5t-56.5 -84.5q-47 -59 -93 -83.5t-69 -14.5q-25 16 -42 31.5t-50 32.5q-33 18 -62.5 32.5t-41.5 20.5q-20 6 -52 13t-62 18.5t-51.5 26.5t-21.5 38zM850 1497q0 -43 25.5 -86t65.5 -78t89 -56.5 t94 -21.5q4 0 10.5 11.5t10.5 11.5l-92 115l-43 104q0 2 1 9t1 12q0 4 -1 11t-1 9q-6 4 -11.5 20.5t-21.5 28.5t-23.5 16.5t-23.5 4.5q-57 -8 -68.5 -40t-11.5 -71zM983 348q-8 14 11.5 36t48 42t59.5 36.5t45 22.5q0 -4 1 -24.5t1 -26.5q0 -10 -1 -33.5t-5 -49t-13.5 -47 t-23.5 -25.5q-14 -2 -33.5 5t-38 18t-33 23.5t-18.5 22.5z" />
<glyph unicode="&#xc1;" horiz-adv-x="1515" d="M18 203q0 -55 25 -97.5t66 -70t94 -40.5t110 -13q135 0 258 58t228 132h10q18 0 35.5 -6t34 -14.5t34 -14.5t39.5 -6q41 0 69 7t64 34q-2 -12 -3 -25.5t-1 -27.5q0 -41 16.5 -79t67.5 -38q31 0 77 14.5t89 38t73 54t30 63.5q0 4 -8.5 11t-12.5 7q-27 -16 -50.5 -27 t-53.5 -11q-18 0 -27.5 11t-12.5 26.5t-2 31t1 25.5q0 68 12 139.5t31.5 142t41 140t40.5 135.5q6 18 23.5 54t37 77t33.5 80t14 63h-47q-29 0 -98.5 -1t-148.5 -3t-148.5 -5t-95.5 -5q-104 -10 -192.5 -52t-160 -107.5t-132 -138.5t-93.5 -165q-41 -12 -84 -25.5t-84 -33 t-76 -46t-59 -63.5q-20 -43 -32.5 -70.5t-19.5 -51t-9.5 -47t-2.5 -60.5zM182 305q0 137 174 137q39 0 104.5 -23.5t127 -55t106.5 -66.5t45 -55q0 -29 -36.5 -52.5t-86 -39t-99.5 -23.5t-77 -8q-49 0 -96 13t-83 38t-57.5 59.5t-21.5 75.5zM530 647q0 63 44 109.5t112 77 t150 45t155 14.5h109q49 0 108 -19v-28q0 -18 -9 -55t-25.5 -82t-42 -92.5t-56.5 -84.5q-47 -59 -93 -83.5t-69 -14.5q-25 16 -42 31.5t-50 32.5q-33 18 -62.5 32.5t-41.5 20.5q-20 6 -52 13t-62 18.5t-51.5 26.5t-21.5 38zM983 348q-8 14 11.5 36t48 42t59.5 36.5t45 22.5 q0 -4 1 -24.5t1 -26.5q0 -10 -1 -33.5t-5 -49t-13.5 -47t-23.5 -25.5q-14 -2 -33.5 5t-38 18t-33 23.5t-18.5 22.5zM1036 1280q4 0 10.5 -11.5t10.5 -11.5q45 0 94 21.5t89 56.5t65.5 78t25.5 86q0 39 -11 71t-69 40q-16 0 -23 -4t-23.5 -16.5t-21.5 -29t-12 -20.5 q0 -2 -1 -9t-1 -11t1 -11.5t1 -9.5l-43 -104z" />
<glyph unicode="&#xc2;" horiz-adv-x="1515" d="M18 203q0 -55 25 -97.5t66 -70t94 -40.5t110 -13q135 0 258 58t228 132h10q18 0 35.5 -6t34 -14.5t34 -14.5t39.5 -6q41 0 69 7t64 34q-2 -12 -3 -25.5t-1 -27.5q0 -41 16.5 -79t67.5 -38q31 0 77 14.5t89 38t73 54t30 63.5q0 4 -8.5 11t-12.5 7q-27 -16 -50.5 -27 t-53.5 -11q-18 0 -27.5 11t-12.5 26.5t-2 31t1 25.5q0 68 12 139.5t31.5 142t41 140t40.5 135.5q6 18 23.5 54t37 77t33.5 80t14 63h-47q-29 0 -98.5 -1t-148.5 -3t-148.5 -5t-95.5 -5q-104 -10 -192.5 -52t-160 -107.5t-132 -138.5t-93.5 -165q-41 -12 -84 -25.5t-84 -33 t-76 -46t-59 -63.5q-20 -43 -32.5 -70.5t-19.5 -51t-9.5 -47t-2.5 -60.5zM182 305q0 137 174 137q39 0 104.5 -23.5t127 -55t106.5 -66.5t45 -55q0 -29 -36.5 -52.5t-86 -39t-99.5 -23.5t-77 -8q-49 0 -96 13t-83 38t-57.5 59.5t-21.5 75.5zM530 647q0 63 44 109.5t112 77 t150 45t155 14.5h109q49 0 108 -19v-28q0 -18 -9 -55t-25.5 -82t-42 -92.5t-56.5 -84.5q-47 -59 -93 -83.5t-69 -14.5q-25 16 -42 31.5t-50 32.5q-33 18 -62.5 32.5t-41.5 20.5q-20 6 -52 13t-62 18.5t-51.5 26.5t-21.5 38zM852 1309q0 -23 16.5 -40.5t46.5 -17.5 q12 0 29 4.5t32 11.5t26.5 16t11.5 20q0 12 -9.5 21t-9.5 24q0 37 24.5 66.5t59.5 55t76 47t76 44.5q2 0 5 1t5 1q25 0 39 -42t28.5 -93.5t36 -93.5t58.5 -42q20 0 54 11.5t65.5 28t54 35.5t22.5 36h-94q-2 2 -16 30.5t-23 49.5q-10 33 -24.5 59.5t-28.5 51t-24.5 51 t-12.5 61.5q-12 20 -27.5 24.5t-35.5 4.5q-18 0 -60.5 -26t-93.5 -66.5t-105.5 -91t-99.5 -97.5t-73.5 -86t-28.5 -59zM983 348q-8 14 11.5 36t48 42t59.5 36.5t45 22.5q0 -4 1 -24.5t1 -26.5q0 -10 -1 -33.5t-5 -49t-13.5 -47t-23.5 -25.5q-14 -2 -33.5 5t-38 18t-33 23.5 t-18.5 22.5z" />
<glyph unicode="&#xc3;" horiz-adv-x="1515" d="M18 203q0 -55 25 -97.5t66 -70t94 -40.5t110 -13q135 0 258 58t228 132h10q18 0 35.5 -6t34 -14.5t34 -14.5t39.5 -6q41 0 69 7t64 34q-2 -12 -3 -25.5t-1 -27.5q0 -41 16.5 -79t67.5 -38q31 0 77 14.5t89 38t73 54t30 63.5q0 4 -8.5 11t-12.5 7q-27 -16 -50.5 -27 t-53.5 -11q-18 0 -27.5 11t-12.5 26.5t-2 31t1 25.5q0 68 12 139.5t31.5 142t41 140t40.5 135.5q6 18 23.5 54t37 77t33.5 80t14 63h-47q-29 0 -98.5 -1t-148.5 -3t-148.5 -5t-95.5 -5q-104 -10 -192.5 -52t-160 -107.5t-132 -138.5t-93.5 -165q-41 -12 -84 -25.5t-84 -33 t-76 -46t-59 -63.5q-20 -43 -32.5 -70.5t-19.5 -51t-9.5 -47t-2.5 -60.5zM182 305q0 137 174 137q39 0 104.5 -23.5t127 -55t106.5 -66.5t45 -55q0 -29 -36.5 -52.5t-86 -39t-99.5 -23.5t-77 -8q-49 0 -96 13t-83 38t-57.5 59.5t-21.5 75.5zM530 647q0 63 44 109.5t112 77 t150 45t155 14.5h109q49 0 108 -19v-28q0 -18 -9 -55t-25.5 -82t-42 -92.5t-56.5 -84.5q-47 -59 -93 -83.5t-69 -14.5q-25 16 -42 31.5t-50 32.5q-33 18 -62.5 32.5t-41.5 20.5q-20 6 -52 13t-62 18.5t-51.5 26.5t-21.5 38zM883 1386q63 29 104 44.5t51 27.5q20 25 54 25 q33 0 98 -37q104 -55 166 -55q86 0 140 55t56 172q-57 -61 -113.5 -73.5t-88.5 -12.5q-33 0 -95 29q-109 55 -168 55q-90 0 -147 -64q-57 -60 -57 -166zM983 348q-8 14 11.5 36t48 42t59.5 36.5t45 22.5q0 -4 1 -24.5t1 -26.5q0 -10 -1 -33.5t-5 -49t-13.5 -47t-23.5 -25.5 q-14 -2 -33.5 5t-38 18t-33 23.5t-18.5 22.5z" />
<glyph unicode="&#xc4;" horiz-adv-x="1515" d="M18 203q0 -55 25 -97.5t66 -70t94 -40.5t110 -13q135 0 258 58t228 132h10q18 0 35.5 -6t34 -14.5t34 -14.5t39.5 -6q41 0 69 7t64 34q-2 -12 -3 -25.5t-1 -27.5q0 -41 16.5 -79t67.5 -38q31 0 77 14.5t89 38t73 54t30 63.5q0 4 -8.5 11t-12.5 7q-27 -16 -50.5 -27 t-53.5 -11q-18 0 -27.5 11t-12.5 26.5t-2 31t1 25.5q0 68 12 139.5t31.5 142t41 140t40.5 135.5q6 18 23.5 54t37 77t33.5 80t14 63h-47q-29 0 -98.5 -1t-148.5 -3t-148.5 -5t-95.5 -5q-104 -10 -192.5 -52t-160 -107.5t-132 -138.5t-93.5 -165q-41 -12 -84 -25.5t-84 -33 t-76 -46t-59 -63.5q-20 -43 -32.5 -70.5t-19.5 -51t-9.5 -47t-2.5 -60.5zM182 305q0 137 174 137q39 0 104.5 -23.5t127 -55t106.5 -66.5t45 -55q0 -29 -36.5 -52.5t-86 -39t-99.5 -23.5t-77 -8q-49 0 -96 13t-83 38t-57.5 59.5t-21.5 75.5zM530 647q0 63 44 109.5t112 77 t150 45t155 14.5h109q49 0 108 -19v-28q0 -18 -9 -55t-25.5 -82t-42 -92.5t-56.5 -84.5q-47 -59 -93 -83.5t-69 -14.5q-25 16 -42 31.5t-50 32.5q-33 18 -62.5 32.5t-41.5 20.5q-20 6 -52 13t-62 18.5t-51.5 26.5t-21.5 38zM907 1466q0 -47 41 -76.5t84 -29.5 q45 0 71.5 18.5t51.5 67.5q-12 45 -49 74.5t-84 29.5q-16 0 -36.5 -6t-38 -16t-29 -26t-11.5 -36zM983 348q-8 14 11.5 36t48 42t59.5 36.5t45 22.5q0 -4 1 -24.5t1 -26.5q0 -10 -1 -33.5t-5 -49t-13.5 -47t-23.5 -25.5q-14 -2 -33.5 5t-38 18t-33 23.5t-18.5 22.5z M1358 1460q0 -47 41 -76.5t84 -29.5q45 0 71.5 18.5t51.5 67.5q-12 45 -49 74.5t-84 29.5q-16 0 -37 -6t-38.5 -16.5t-28.5 -26t-11 -35.5z" />
<glyph unicode="&#xc5;" horiz-adv-x="1515" d="M18 203q0 -55 25 -97.5t66 -70t94 -40.5t110 -13q135 0 258 58t228 132h10q18 0 35.5 -6t34 -14.5t34 -14.5t39.5 -6q41 0 69 7t64 34q-2 -12 -3 -25.5t-1 -27.5q0 -41 16.5 -79t67.5 -38q31 0 77 14.5t89 38t73 54t30 63.5q0 4 -8.5 11t-12.5 7q-27 -16 -50.5 -27 t-53.5 -11q-18 0 -27.5 11t-12.5 26.5t-2 31t1 25.5q0 68 12 139.5t31.5 142t41 140t40.5 135.5q6 18 23.5 54t37 77t33.5 80t14 63h-47q-29 0 -98.5 -1t-148.5 -3t-148.5 -5t-95.5 -5q-104 -10 -192.5 -52t-160 -107.5t-132 -138.5t-93.5 -165q-41 -12 -84 -25.5t-84 -33 t-76 -46t-59 -63.5q-20 -43 -32.5 -70.5t-19.5 -51t-9.5 -47t-2.5 -60.5zM182 305q0 137 174 137q39 0 104.5 -23.5t127 -55t106.5 -66.5t45 -55q0 -29 -36.5 -52.5t-86 -39t-99.5 -23.5t-77 -8q-49 0 -96 13t-83 38t-57.5 59.5t-21.5 75.5zM530 647q0 63 44 109.5t112 77 t150 45t155 14.5h109q49 0 108 -19v-28q0 -18 -9 -55t-25.5 -82t-42 -92.5t-56.5 -84.5q-47 -59 -93 -83.5t-69 -14.5q-25 16 -42 31.5t-50 32.5q-33 18 -62.5 32.5t-41.5 20.5q-20 6 -52 13t-62 18.5t-51.5 26.5t-21.5 38zM983 348q-8 14 11.5 36t48 42t59.5 36.5t45 22.5 q0 -4 1 -24.5t1 -26.5q0 -10 -1 -33.5t-5 -49t-13.5 -47t-23.5 -25.5q-14 -2 -33.5 5t-38 18t-33 23.5t-18.5 22.5zM1108 1444q0 -35 2 -66.5t13.5 -56.5t35 -40t66.5 -15q55 0 104 22.5t85 60t56.5 85t20.5 96.5q0 29 -5 59.5t-17.5 56t-36 42t-60.5 16.5q-53 0 -101 -22.5 t-84 -59.5t-57.5 -83t-21.5 -95zM1208 1479q0 20 2 47.5t12.5 52.5t29 41t53.5 16q27 0 45 -12t30.5 -31.5t17.5 -42t5 -43.5q0 -23 -5 -50t-17.5 -52t-33 -42t-51.5 -17q-33 0 -51 12t-26.5 32.5t-9.5 43t-1 45.5z" />
<glyph unicode="&#xc6;" horiz-adv-x="2123" d="M18 203q0 -55 25 -97.5t66 -70t94 -40.5t110 -13q135 0 258 58t228 132h10q18 0 35.5 -6t34 -14.5t34 -14.5t39.5 -6q41 0 69 7t64 34q-2 -12 -3 -25.5t-1 -27.5q0 -41 16.5 -79t67.5 -38q35 0 85 15.5t96 43.5q90 -53 204 -53q57 0 140.5 26.5t160 75t131 115 t54.5 146.5q-53 0 -90 -30t-73 -64.5t-79 -64.5t-111 -30q-53 0 -108 23.5t-99 64.5t-72 96.5t-28 118.5v11q2 4 10.5 12t10.5 8h389q25 0 54.5 18.5t58 43t53 51t39.5 43.5l-21 20q-6 -2 -20.5 -6t-30.5 -7t-30.5 -5t-20.5 -2q-23 0 -78 -1t-117 -1q-61 0 -116.5 1t-77.5 1 q-29 -12 -39 -16.5t-17 -4.5q-6 0 -13 2t-30 2q0 27 8.5 68t26 79t43 64.5t62.5 26.5h409q18 0 45 14.5t50.5 37t41 48t17.5 47.5q-88 0 -171 14.5t-169 14.5q-72 0 -141.5 -24.5t-131.5 -69.5q12 31 21.5 57.5t9.5 44.5h-47q-29 0 -98.5 -1t-148.5 -3t-148.5 -5t-95.5 -5 q-104 -10 -192.5 -52t-160 -107.5t-132 -138.5t-93.5 -165q-41 -12 -84 -25.5t-84 -33t-76 -46t-59 -63.5q-20 -43 -32.5 -70.5t-19.5 -51t-9.5 -47t-2.5 -60.5zM182 305q0 137 174 137q39 0 104.5 -23.5t127 -55t106.5 -66.5t45 -55q0 -29 -36.5 -52.5t-86 -39t-99.5 -23.5 t-77 -8q-49 0 -96 13t-83 38t-57.5 59.5t-21.5 75.5zM530 647q0 63 44 109.5t112 77t150 45t155 14.5h109q49 0 108 -19v-28q0 -18 -9 -55t-25.5 -82t-42 -92.5t-56.5 -84.5q-47 -59 -93 -83.5t-69 -14.5q-25 16 -42 31.5t-50 32.5q-33 18 -62.5 32.5t-41.5 20.5 q-20 6 -52 13t-62 18.5t-51.5 26.5t-21.5 38zM983 348q-8 14 11.5 36t48 42t59.5 36.5t45 22.5q0 -4 1 -24.5t1 -26.5q0 -10 -1 -33.5t-5 -49t-13.5 -47t-23.5 -25.5q-14 -2 -33.5 5t-38 18t-33 23.5t-18.5 22.5z" />
<glyph unicode="&#xc7;" horiz-adv-x="942" d="M18 377q0 -49 12.5 -114.5t41 -124t76 -98.5t118.5 -40h60q4 -33 18 -57.5t10 -61.5q-4 -4 -19.5 -11t-32.5 -15.5t-31.5 -16.5t-16.5 -12l-1 -4q-1 -4 -1 -6q0 -16 13.5 -34t33.5 -31t41.5 -21.5t38.5 -8.5q20 0 35.5 11.5t26 29t15.5 38t5 36.5q0 35 -5 59.5t-12.5 43 t-16.5 34t-15 31.5q115 10 209 52t178 145l-21 18q-43 -16 -75.5 -27.5t-64.5 -19.5t-66.5 -11t-79.5 -3h-25q-16 0 -36.5 1t-39.5 1h-22q-113 55 -160 148t-47 210q0 86 31.5 164t80.5 131q49 55 123 93t174 65q59 0 119 -11.5t121 -11.5q14 0 30.5 9.5t32 22.5t28.5 26.5 t20 21.5q-12 20 -40 29.5t-59.5 11.5t-61.5 1t-44 -1q-147 0 -275.5 -54t-222.5 -148.5t-147.5 -220.5t-53.5 -269z" />
<glyph unicode="&#xc8;" horiz-adv-x="942" d="M18 399q0 -90 29 -163.5t80 -126t120.5 -81t151.5 -28.5q57 0 140.5 26.5t160 75t131 115t54.5 145.5q-53 0 -90 -29.5t-73 -64.5t-79 -64.5t-111 -29.5q-53 0 -108 23.5t-99 64.5t-72 96.5t-28 118.5v10q2 4 10.5 12.5t10.5 8.5h389q25 0 54.5 18.5t58 43t53 51 t39.5 43.5l-21 20q-6 -2 -20.5 -6t-30.5 -7t-30.5 -5t-20.5 -2q-23 0 -78 -1t-117 -1q-61 0 -116.5 1t-77.5 1q-29 -12 -39 -16.5t-17 -4.5q-6 0 -13 2t-30 2q0 27 8.5 68t26 78.5t43 64.5t62.5 27h409q18 0 45 14t50.5 36.5t41 48.5t17.5 48q-88 0 -171 14.5t-169 14.5 q-115 0 -218.5 -59.5t-182 -154.5t-126 -213t-47.5 -235zM342 1501q0 -43 25.5 -86t65.5 -77.5t89 -56t94 -21.5q4 0 10.5 11t10.5 11l-92 115l-43 104q0 2 1 9.5t1 11.5t-1 11t-1 9q-6 4 -11.5 20.5t-21.5 29t-23.5 16.5t-23.5 4q-57 -8 -68.5 -40t-11.5 -71z" />
<glyph unicode="&#xc9;" horiz-adv-x="942" d="M18 399q0 -90 29 -163.5t80 -126t120.5 -81t151.5 -28.5q57 0 140.5 26.5t160 75t131 115t54.5 145.5q-53 0 -90 -29.5t-73 -64.5t-79 -64.5t-111 -29.5q-53 0 -108 23.5t-99 64.5t-72 96.5t-28 118.5v10q2 4 10.5 12.5t10.5 8.5h389q25 0 54.5 18.5t58 43t53 51 t39.5 43.5l-21 20q-6 -2 -20.5 -6t-30.5 -7t-30.5 -5t-20.5 -2q-23 0 -78 -1t-117 -1q-61 0 -116.5 1t-77.5 1q-29 -12 -39 -16.5t-17 -4.5q-6 0 -13 2t-30 2q0 27 8.5 68t26 78.5t43 64.5t62.5 27h409q18 0 45 14t50.5 36.5t41 48.5t17.5 48q-88 0 -171 14.5t-169 14.5 q-115 0 -218.5 -59.5t-182 -154.5t-126 -213t-47.5 -235zM569 1274q4 0 10.5 -11.5t10.5 -11.5q45 0 94 21.5t89 56.5t65.5 78t25.5 86q0 39 -11 70.5t-69 40.5q-16 0 -23 -4.5t-23.5 -16.5t-21.5 -28.5t-11 -20.5q0 -2 -1.5 -9t-1.5 -12q0 -4 1.5 -11t1.5 -9l-43 -104z" />
<glyph unicode="&#xca;" horiz-adv-x="942" d="M18 399q0 -90 29 -163.5t80 -126t120.5 -81t151.5 -28.5q57 0 140.5 26.5t160 75t131 115t54.5 145.5q-53 0 -90 -29.5t-73 -64.5t-79 -64.5t-111 -29.5q-53 0 -108 23.5t-99 64.5t-72 96.5t-28 118.5v10q2 4 10.5 12.5t10.5 8.5h389q25 0 54.5 18.5t58 43t53 51 t39.5 43.5l-21 20q-6 -2 -20.5 -6t-30.5 -7t-30.5 -5t-20.5 -2q-23 0 -78 -1t-117 -1q-61 0 -116.5 1t-77.5 1q-29 -12 -39 -16.5t-17 -4.5q-6 0 -13 2t-30 2q0 27 8.5 68t26 78.5t43 64.5t62.5 27h409q18 0 45 14t50.5 36.5t41 48.5t17.5 48q-88 0 -171 14.5t-169 14.5 q-115 0 -218.5 -59.5t-182 -154.5t-126 -213t-47.5 -235zM317 1292q0 -23 16.5 -40t47.5 -17q12 0 28.5 4t32 11t26.5 16.5t11 19.5q0 12 -9 21.5t-9 23.5q0 37 24.5 66.5t59.5 55.5t76 47.5t75 43.5q2 0 5.5 1t5.5 1q25 0 39 -42t28 -93t35.5 -93t58.5 -42q20 0 54 11 t66 27.5t54.5 36t22.5 35.5h-94q-2 2 -16.5 31t-22.5 49q-10 33 -24.5 59.5t-29 51.5t-24.5 51.5t-12 61.5q-12 20 -27.5 24t-36.5 4q-18 0 -60 -25.5t-93.5 -66.5t-105.5 -91t-99 -97t-74 -86.5t-29 -59.5z" />
<glyph unicode="&#xcb;" horiz-adv-x="942" d="M18 399q0 -90 29 -163.5t80 -126t120.5 -81t151.5 -28.5q57 0 140.5 26.5t160 75t131 115t54.5 145.5q-53 0 -90 -29.5t-73 -64.5t-79 -64.5t-111 -29.5q-53 0 -108 23.5t-99 64.5t-72 96.5t-28 118.5v10q2 4 10.5 12.5t10.5 8.5h389q25 0 54.5 18.5t58 43t53 51 t39.5 43.5l-21 20q-6 -2 -20.5 -6t-30.5 -7t-30.5 -5t-20.5 -2q-23 0 -78 -1t-117 -1q-61 0 -116.5 1t-77.5 1q-29 -12 -39 -16.5t-17 -4.5q-6 0 -13 2t-30 2q0 27 8.5 68t26 78.5t43 64.5t62.5 27h409q18 0 45 14t50.5 36.5t41 48.5t17.5 48q-88 0 -171 14.5t-169 14.5 q-115 0 -218.5 -59.5t-182 -154.5t-126 -213t-47.5 -235zM330 1436q0 -47 41 -77t84 -30q45 0 71.5 18.5t51.5 67.5q-12 45 -49 75t-85 30q-16 0 -36.5 -6.5t-38 -16.5t-28.5 -25.5t-11 -35.5zM780 1430q0 -47 41 -77t84 -30q45 0 72 18.5t51 67.5q-12 45 -49 74.5t-84 29.5 q-16 0 -36.5 -6t-38 -16t-29 -25.5t-11.5 -35.5z" />
<glyph unicode="&#xcc;" d="M18 881q0 -2 1 -8l1 -5q4 -4 11.5 -14t9.5 -10q4 0 19.5 7t41.5 17q20 8 29 15q8 8 70 8h90q35 0 49 -8q4 -193 -2 -368t-51 -341q-43 -10 -84 -17t-75 -23.5t-54.5 -48.5t-20.5 -93q70 0 142.5 15.5t132 55t99.5 107.5t44 172q0 14 2 45t5 70t7 84l9 90q6 90 11 171 t7 116q0 4 1 27.5t1 35.5q0 2 1 15.5t-1 28.5t-6 27.5t-16 12.5h-287q-23 0 -51.5 -23.5t-55 -54.5t-48 -58.5t-30.5 -35.5q0 -2 -1 -6t-1 -6zM174 1427q0 -43 25.5 -86t65.5 -77.5t89 -56t95 -21.5q4 0 10 11t10 11l-92 115l-43 104q0 2 1 9.5t1 11.5t-1 11t-1 9 q-6 4 -11.5 20.5t-21.5 29t-23.5 16.5t-23.5 4q-57 -8 -68.5 -40t-11.5 -71z" />
<glyph unicode="&#xcd;" d="M18 881q0 -2 1 -8l1 -5q4 -4 11.5 -14t9.5 -10q4 0 19.5 7t41.5 17q20 8 29 15q8 8 70 8h90q35 0 49 -8q4 -193 -2 -368t-51 -341q-43 -10 -84 -17t-75 -23.5t-54.5 -48.5t-20.5 -93q70 0 142.5 15.5t132 55t99.5 107.5t44 172q0 14 2 45t5 70t7 84l9 90q6 90 11 171 t7 116q0 4 1 27.5t1 35.5q0 2 1 15.5t-1 28.5t-6 27.5t-16 12.5h-287q-23 0 -51.5 -23.5t-55 -54.5t-48 -58.5t-30.5 -35.5q0 -2 -1 -6t-1 -6zM276 1253q4 0 10.5 -11t10.5 -11q45 0 94 21.5t89 56t65.5 78t25.5 86.5q0 39 -11 70.5t-68 39.5q-16 0 -23.5 -4t-24 -16.5 t-21.5 -28.5t-11 -21q0 -2 -1 -9t-1 -11t1 -11t1 -9l-43 -105z" />
<glyph unicode="&#xce;" d="M-10 1237q0 -23 16.5 -40t46.5 -17q12 0 28.5 4t32 11t27 16.5t11.5 19.5q0 12 -9.5 21.5t-9.5 23.5q0 37 24.5 66.5t59.5 55t76 47t76 44.5q2 0 5 1t5 1q25 0 39 -42t28.5 -93t36 -93t58.5 -42q20 0 54 11t65.5 27.5t54 36t22.5 35.5h-94q-2 2 -16.5 31t-22.5 49 q-10 33 -24.5 59.5t-28.5 51t-24.5 51t-12.5 61.5q-12 20 -27.5 24.5t-35.5 4.5q-18 0 -60.5 -25.5t-93.5 -66.5t-105.5 -91t-99.5 -97.5t-73.5 -86.5t-28.5 -59zM18 881q0 -2 1 -8l1 -5q4 -4 11.5 -14t9.5 -10q4 0 19.5 7t41.5 17q20 8 29 15q8 8 70 8h90q35 0 49 -8 q4 -193 -2 -368t-51 -341q-43 -10 -84 -17t-75 -23.5t-54.5 -48.5t-20.5 -93q70 0 142.5 15.5t132 55t99.5 107.5t44 172q0 14 2 45t5 70t7 84l9 90q6 90 11 171t7 116q0 4 1 27.5t1 35.5q0 2 1 15.5t-1 28.5t-6 27.5t-16 12.5h-287q-23 0 -51.5 -23.5t-55 -54.5t-48 -58.5 t-30.5 -35.5q0 -2 -1 -6t-1 -6z" />
<glyph unicode="&#xcf;" d="M18 881q0 -2 1 -8l1 -5q4 -4 11.5 -14t9.5 -10q4 0 19.5 7t41.5 17q20 8 29 15q8 8 70 8h90q35 0 49 -8q4 -193 -2 -368t-51 -341q-43 -10 -84 -17t-75 -23.5t-54.5 -48.5t-20.5 -93q70 0 142.5 15.5t132 55t99.5 107.5t44 172q0 14 2 45t5 70t7 84l9 90q6 90 11 171 t7 116q0 4 1 27.5t1 35.5q0 2 1 15.5t-1 28.5t-6 27.5t-16 12.5h-287q-23 0 -51.5 -23.5t-55 -54.5t-48 -58.5t-30.5 -35.5q0 -2 -1 -6t-1 -6zM20 1362q0 -47 41 -77t84 -30q45 0 72 18.5t51 67.5q-12 45 -49 75t-84 30q-16 0 -36.5 -6t-38 -16.5t-29 -26t-11.5 -35.5z M471 1356q0 -47 41 -77t84 -30q45 0 71.5 18.5t51.5 67.5q-12 45 -49 75t-84 30q-16 0 -37 -6.5t-38 -16.5t-28.5 -25.5t-11.5 -35.5z" />
<glyph unicode="&#xd0;" horiz-adv-x="1290" d="M8 469q0 14 11.5 30.5t29 30t35.5 23.5t33 14q10 0 33.5 2t54.5 3t62.5 3.5t60.5 2.5q27 0 58.5 1t57.5 1q29 0 50.5 1t31.5 1q2 0 14.5 3t26 7t25.5 7t16 3h31h31q-20 -27 -56 -53.5t-76 -47t-82 -32.5t-75 -12q-86 0 -186.5 6t-186.5 6zM139 66q47 63 76 141t44 161 t20.5 165.5t5.5 160.5q0 37 2 75t-6.5 68.5t-31 50t-73.5 19.5q0 4 1 -1t3 -1q27 53 103.5 86t169 50.5t181.5 23.5t140 6q102 0 188.5 -29.5t150 -87t98 -142.5t34.5 -194q0 -27 -13 -63.5t-31.5 -73.5t-35 -66.5t-22.5 -41.5q-53 -86 -129 -156t-165 -117t-188.5 -72.5 t-199.5 -25.5h-76q-33 0 -71 2t-71.5 9t-61.5 20t-42 33zM365 176q0 -18 24.5 -28.5t57 -14.5t64.5 -5t48 -1q104 0 192.5 30.5t153 88t101 141.5t36.5 193q0 86 -34.5 154.5t-91 116.5t-131 72.5t-154.5 24.5q-20 0 -47 1t-51.5 -3t-43 -17.5t-22.5 -43.5l-102 -697v-12z " />
<glyph unicode="&#xd1;" horiz-adv-x="1699" d="M18 154q0 29 15.5 51t46.5 22q29 0 56.5 -7t55 -15t55 -15.5t58.5 -7.5q84 0 175 38t172 99.5t142.5 138.5t86.5 156q2 10 11 52.5t19.5 91.5l19.5 91t11 52q6 27 28.5 55.5t53.5 28.5q27 0 40 -20.5t21 -42.5l185 -615q2 -4 9 -11t11 -9l4 -1q4 -1 6 -1t5.5 1t5.5 1 q43 80 84 167t72.5 178t51 184t19.5 183q0 53 -12.5 100.5t-12.5 100.5q0 45 27 79t80 34q20 0 32.5 -12.5t18.5 -32t8 -42t2 -42.5v-43q0 -29 -12 -95.5t-34.5 -153.5t-53.5 -189.5t-66.5 -203t-75.5 -193.5t-79 -163.5t-78 -109.5t-74 -33q-18 4 -35.5 30.5t-32 58.5 t-23.5 59.5t-11 35.5q-6 23 -23.5 78t-38 116.5t-38 117t-23.5 77.5q-2 0 -5 1t-5 1q-8 0 -37 -34.5t-64.5 -80.5t-72.5 -90t-62 -63q-59 -41 -118.5 -88t-121 -87t-129 -65.5t-143.5 -25.5q-35 0 -70.5 1t-66.5 11t-50.5 34t-19.5 67zM930 1403q0 106 57 166q57 63 148 63 q59 0 168 -55q61 -29 94 -29t89 12.5t113 73.5q-2 -117 -56 -172t-140 -55q-61 0 -166 55q-66 37 -98 37q-33 0 -54 -24q-10 -12 -51 -27.5t-104 -44.5z" />
<glyph unicode="&#xd2;" horiz-adv-x="839" d="M20 444q0 -80 13.5 -158.5t47.5 -142t94.5 -103.5t152.5 -40q111 0 200.5 63.5t154.5 159.5t100.5 210t35.5 212q0 88 -18.5 164t-58.5 131t-103.5 87t-153.5 32q-104 0 -190 -59.5t-146.5 -150.5t-94.5 -199t-34 -206zM170 571q0 49 7 107.5t28.5 109t59.5 85t97 34.5 q78 0 135.5 -31.5t94.5 -84t54.5 -121t17.5 -142.5q0 -51 -9.5 -113.5t-33 -116.5t-63.5 -91t-101 -37q-82 0 -136.5 36t-88 92t-48 127.5t-14.5 145.5zM276 1495q0 -43 26 -86t66 -78t89 -56.5t94 -21.5q4 0 10 11.5t10 11.5l-92 115l-43 104q0 2 1 9t1 12q0 4 -1 11t-1 9 q-6 4 -11 20.5t-21.5 28.5t-23.5 16.5t-24 4.5q-57 -8 -68.5 -40t-11.5 -71z" />
<glyph unicode="&#xd3;" horiz-adv-x="839" d="M20 444q0 -80 13.5 -158.5t47.5 -142t94.5 -103.5t152.5 -40q111 0 200.5 63.5t154.5 159.5t100.5 210t35.5 212q0 88 -18.5 164t-58.5 131t-103.5 87t-153.5 32q-104 0 -190 -59.5t-146.5 -150.5t-94.5 -199t-34 -206zM170 571q0 49 7 107.5t28.5 109t59.5 85t97 34.5 q78 0 135.5 -31.5t94.5 -84t54.5 -121t17.5 -142.5q0 -51 -9.5 -113.5t-33 -116.5t-63.5 -91t-101 -37q-82 0 -136.5 36t-88 92t-48 127.5t-14.5 145.5zM463 1288q4 0 10 -11t10 -11q45 0 94.5 21.5t89.5 56t65.5 77.5t25.5 86q0 39 -11.5 71t-68.5 40q-16 0 -23.5 -4 t-24 -16.5t-21.5 -29t-11 -20.5q0 -2 -1 -9t-1 -11t1 -11.5t1 -9.5l-43 -104z" />
<glyph unicode="&#xd4;" horiz-adv-x="839" d="M20 444q0 -80 13.5 -158.5t47.5 -142t94.5 -103.5t152.5 -40q111 0 200.5 63.5t154.5 159.5t100.5 210t35.5 212q0 88 -18.5 164t-58.5 131t-103.5 87t-153.5 32q-104 0 -190 -59.5t-146.5 -150.5t-94.5 -199t-34 -206zM156 1255q0 -23 16 -40t47 -17q12 0 28.5 4 t32 11.5t26.5 16.5t11 19q0 12 -9 21.5t-9 23.5q0 37 24.5 67t59.5 55.5t76 47t76 43.5q2 0 5 1t5 1q25 0 39 -42t28.5 -93t36 -93t58.5 -42q20 0 54 11.5t65.5 27.5t54 35.5t22.5 36.5h-94q-2 2 -16.5 30.5t-22.5 49.5q-10 33 -24.5 59.5t-29 51t-24.5 51t-12 61.5 q-12 20 -27.5 24t-36.5 4q-18 0 -60 -25.5t-93 -66.5t-105.5 -91t-99.5 -97t-73.5 -86.5t-28.5 -59.5zM170 571q0 49 7 107.5t28.5 109t59.5 85t97 34.5q78 0 135.5 -31.5t94.5 -84t54.5 -121t17.5 -142.5q0 -51 -9.5 -113.5t-33 -116.5t-63.5 -91t-101 -37q-82 0 -136.5 36 t-88 92t-48 127.5t-14.5 145.5z" />
<glyph unicode="&#xd5;" horiz-adv-x="839" d="M20 444q0 -80 13.5 -158.5t47.5 -142t94.5 -103.5t152.5 -40q111 0 200.5 63.5t154.5 159.5t100.5 210t35.5 212q0 88 -18.5 164t-58.5 131t-103.5 87t-153.5 32q-104 0 -190 -59.5t-146.5 -150.5t-94.5 -199t-34 -206zM170 571q0 49 7 107.5t28.5 109t59.5 85t97 34.5 q78 0 135.5 -31.5t94.5 -84t54.5 -121t17.5 -142.5q0 -51 -9.5 -113.5t-33 -116.5t-63.5 -91t-101 -37q-82 0 -136.5 36t-88 92t-48 127.5t-14.5 145.5zM180 1298q63 29 104.5 44.5t51.5 27.5q20 25 53 25t98 -37q104 -55 166 -55q86 0 140.5 55t56.5 172 q-57 -61 -113.5 -73.5t-89.5 -12.5t-94 29q-109 55 -168 55q-90 0 -147 -64q-58 -60 -58 -166z" />
<glyph unicode="&#xd6;" horiz-adv-x="839" d="M20 444q0 -80 13.5 -158.5t47.5 -142t94.5 -103.5t152.5 -40q111 0 200.5 63.5t154.5 159.5t100.5 210t35.5 212q0 88 -18.5 164t-58.5 131t-103.5 87t-153.5 32q-104 0 -190 -59.5t-146.5 -150.5t-94.5 -199t-34 -206zM166 1391q0 -47 41 -77t84 -30q45 0 71.5 18.5 t51.5 67.5q-12 45 -49 75t-84 30q-16 0 -37 -6.5t-38.5 -16.5t-28.5 -25.5t-11 -35.5zM170 571q0 49 7 107.5t28.5 109t59.5 85t97 34.5q78 0 135.5 -31.5t94.5 -84t54.5 -121t17.5 -142.5q0 -51 -9.5 -113.5t-33 -116.5t-63.5 -91t-101 -37q-82 0 -136.5 36t-88 92 t-48 127.5t-14.5 145.5zM616 1384q0 -47 41 -76.5t84 -29.5q45 0 72 18.5t51 67.5q-12 45 -49 74.5t-84 29.5q-16 0 -36.5 -6t-38 -16t-29 -26t-11.5 -36z" />
<glyph unicode="&#xd7;" horiz-adv-x="1126" d="M12 242q0 -16 15.5 -23.5t36 -9.5t39 -1t22.5 1q66 0 119 16.5t99 44t90 65.5t93 81q2 0 5.5 1t5.5 1q20 0 40.5 -36t47 -78t59.5 -78t78 -36q37 0 76 19.5t70.5 50.5t51 70t19.5 76q0 4 -1 15t-1 15q-25 -18 -57.5 -40.5t-67.5 -22.5q-27 0 -49.5 30.5t-38.5 71.5 t-25.5 82t-9.5 64q0 4 1 20t1 21q8 8 28.5 30.5t43 49t43 50t28.5 33.5l21 21q33 23 71 33t69.5 23t52 38t20.5 78h-33q-29 0 -62.5 -5t-56.5 -24l-266 -246l-4 -1q-4 -1 -6 -1q-18 0 -31.5 39t-34 86t-54.5 86t-91 39q-43 0 -85 -20.5t-75 -54t-53 -75.5t-20 -87q25 0 39 6 t26 17t25.5 23.5t35.5 24.5l5 1q4 1 6 1q29 0 53.5 -35.5t41.5 -82.5t27.5 -96.5t10.5 -73.5v-21q-31 -35 -74 -78t-90 -65q-16 -8 -47 -13.5t-66.5 -9.5t-74.5 -11t-70 -18.5t-51.5 -30.5t-20.5 -50z" />
<glyph unicode="&#xd8;" horiz-adv-x="839" d="M20 444q0 -80 13.5 -158.5t47.5 -142t94.5 -103.5t152.5 -40q111 0 200.5 63.5t154.5 159.5t100.5 210t35.5 212q0 88 -18.5 164t-58.5 131t-103.5 87t-153.5 32q-104 0 -190 -59.5t-146.5 -150.5t-94.5 -199t-34 -206zM170 571q0 49 7 107.5t28.5 109t59.5 85t97 34.5 q47 0 89 -12q-4 -14 -8.5 -26.5t-8.5 -26.5l-168 -592q-53 59 -74.5 144t-21.5 177zM365 184q18 43 31.5 90.5t24.5 90.5t19.5 78.5t14.5 54.5l61 237q6 23 16.5 48.5t20.5 52.5q57 -53 84 -134t27 -174q0 -51 -9.5 -113.5t-33 -116.5t-63.5 -91t-101 -37q-55 0 -92 14z" />
<glyph unicode="&#xd9;" horiz-adv-x="880" d="M14 881h125q0 -135 -19.5 -267.5t-19.5 -271.5v-27q0 -20 1 -43.5t1 -44.5v-26q18 -43 36 -80t40.5 -64.5t55 -43t79.5 -15.5q66 0 132.5 39t128 102.5t113.5 145.5t91 167t61.5 166.5t22.5 145.5q0 35 -1 85t-13 97t-38 80t-75 33q-39 0 -70.5 -34t-31.5 -75 q0 -29 10 -53.5t22.5 -51t22.5 -57t10 -73.5q0 -41 -8 -96.5t-23.5 -116t-40 -118.5t-55 -105.5t-68.5 -76t-83 -28.5q-59 0 -86 39t-47 98v35q0 29 -1 61.5t-1 61.5v39q0 63 7 122.5t15 119t15.5 120t7.5 121.5q0 41 -9.5 65.5t-52.5 24.5q-27 0 -69.5 -19.5t-83.5 -49 t-71 -65t-30 -66.5zM332 1475q0 -43 25.5 -86t65.5 -78t89 -56.5t94 -21.5q4 0 10.5 11t10.5 11l-92 115l-43 105q0 2 1 9t1 11t-1 11t-1 10q-6 4 -11.5 20t-22 28.5t-23.5 16.5t-23 4q-57 -8 -68.5 -39.5t-11.5 -70.5z" />
<glyph unicode="&#xda;" horiz-adv-x="880" d="M14 881h125q0 -135 -19.5 -267.5t-19.5 -271.5v-27q0 -20 1 -43.5t1 -44.5v-26q18 -43 36 -80t40.5 -64.5t55 -43t79.5 -15.5q66 0 132.5 39t128 102.5t113.5 145.5t91 167t61.5 166.5t22.5 145.5q0 35 -1 85t-13 97t-38 80t-75 33q-39 0 -70.5 -34t-31.5 -75 q0 -29 10 -53.5t22.5 -51t22.5 -57t10 -73.5q0 -41 -8 -96.5t-23.5 -116t-40 -118.5t-55 -105.5t-68.5 -76t-83 -28.5q-59 0 -86 39t-47 98v35q0 29 -1 61.5t-1 61.5v39q0 63 7 122.5t15 119t15.5 120t7.5 121.5q0 41 -9.5 65.5t-52.5 24.5q-27 0 -69.5 -19.5t-83.5 -49 t-71 -65t-30 -66.5zM481 1247q4 0 10.5 -11t10.5 -11q45 0 94 21.5t89 56t65.5 77.5t25.5 86q0 39 -11 71t-69 40q-16 0 -23 -4t-23.5 -16.5t-21.5 -29t-12 -20.5q0 -2 -1 -9t-1 -11t1 -11.5t1 -9.5l-43 -104z" />
<glyph unicode="&#xdb;" horiz-adv-x="880" d="M14 881h125q0 -135 -19.5 -267.5t-19.5 -271.5v-27q0 -20 1 -43.5t1 -44.5v-26q18 -43 36 -80t40.5 -64.5t55 -43t79.5 -15.5q66 0 132.5 39t128 102.5t113.5 145.5t91 167t61.5 166.5t22.5 145.5q0 35 -1 85t-13 97t-38 80t-75 33q-39 0 -70.5 -34t-31.5 -75 q0 -29 10 -53.5t22.5 -51t22.5 -57t10 -73.5q0 -41 -8 -96.5t-23.5 -116t-40 -118.5t-55 -105.5t-68.5 -76t-83 -28.5q-59 0 -86 39t-47 98v35q0 29 -1 61.5t-1 61.5v39q0 63 7 122.5t15 119t15.5 120t7.5 121.5q0 41 -9.5 65.5t-52.5 24.5q-27 0 -69.5 -19.5t-83.5 -49 t-71 -65t-30 -66.5zM211 1280q0 -23 16.5 -40t46.5 -17q12 0 28.5 4t32 11t27 16.5t11.5 19.5q0 12 -9.5 21.5t-9.5 23.5q0 37 24.5 66.5t59.5 55t76 47t76 44.5q2 0 5 1t5 1q25 0 39 -42t28.5 -93t36 -93t58.5 -42q20 0 54 11t65.5 27.5t54 36t22.5 35.5h-94q-2 2 -16 31 t-23 49q-10 33 -24.5 59.5t-28.5 51t-24.5 51t-12.5 61.5q-12 20 -27.5 24.5t-35.5 4.5q-18 0 -60.5 -25.5t-93.5 -66.5t-105.5 -91t-99.5 -97.5t-73.5 -86.5t-28.5 -59z" />
<glyph unicode="&#xdc;" horiz-adv-x="880" d="M14 881h125q0 -135 -19.5 -267.5t-19.5 -271.5v-27q0 -20 1 -43.5t1 -44.5v-26q18 -43 36 -80t40.5 -64.5t55 -43t79.5 -15.5q66 0 132.5 39t128 102.5t113.5 145.5t91 167t61.5 166.5t22.5 145.5q0 35 -1 85t-13 97t-38 80t-75 33q-39 0 -70.5 -34t-31.5 -75 q0 -29 10 -53.5t22.5 -51t22.5 -57t10 -73.5q0 -41 -8 -96.5t-23.5 -116t-40 -118.5t-55 -105.5t-68.5 -76t-83 -28.5q-59 0 -86 39t-47 98v35q0 29 -1 61.5t-1 61.5v39q0 63 7 122.5t15 119t15.5 120t7.5 121.5q0 41 -9.5 65.5t-52.5 24.5q-27 0 -69.5 -19.5t-83.5 -49 t-71 -65t-30 -66.5zM229 1386q0 -47 41 -76.5t84 -29.5q45 0 72 18.5t51 67.5q-12 45 -49 74.5t-84 29.5q-16 0 -36.5 -6t-38 -16t-29 -26t-11.5 -36zM680 1380q0 -47 41 -76.5t84 -29.5q45 0 71.5 18.5t51.5 67.5q-12 45 -49 74.5t-84 29.5q-16 0 -37 -6t-38.5 -16 t-28.5 -26t-11 -36z" />
<glyph unicode="&#xdd;" horiz-adv-x="962" d="M20 -176q0 -49 34 -79t80 -47t94 -23.5t79 -6.5q59 0 106.5 5t98.5 42q63 61 113.5 113.5t89.5 108t64.5 120t39.5 150.5q4 29 13.5 90t21.5 139t26.5 165t27 165t21.5 140.5t13 90.5v11q0 55 -49 55q-47 0 -77 -28.5t-48 -75t-28.5 -102.5t-16.5 -110.5t-11 -101.5 t-16 -74q-18 -49 -56 -99t-80 -96t-83 -84t-67 -63q-4 0 -15.5 -1t-15.5 -1q-47 0 -60.5 29t-13.5 72q0 94 17.5 186t37 184.5t37 183.5t17.5 185q-31 0 -72 -23.5t-79 -58.5t-65.5 -75t-33.5 -72h53l2 -16q2 -15 4 -36.5t3 -45t-1 -42.5q-16 -127 -39.5 -248.5 t-23.5 -252.5v-19q0 -14 1 -29.5t1 -27.5v-21q10 -37 36.5 -41t53.5 -4q39 0 71.5 7.5t63.5 37.5l246 256h10v-174q0 -68 -9 -132t-37 -115.5t-76 -82t-124 -30.5q-49 0 -94 20.5t-81 45t-60.5 45t-30.5 20.5q-2 0 -6 -1l-4 -1q-6 -6 -27.5 -28.5t-38.5 -37.5 q-14 -12 -23.5 -30.5t-13.5 -30.5zM563 1282q4 0 10.5 -11t10.5 -11q45 0 94 21.5t89 56t65.5 77.5t25.5 86q0 39 -11 71t-69 40q-16 0 -23 -4t-23.5 -16.5t-21.5 -29t-12 -20.5q0 -2 -1 -9t-1 -11t1 -11.5t1 -9.5l-43 -104z" />
<glyph unicode="&#xde;" horiz-adv-x="880" d="M55 1069q8 -37 20.5 -60.5t24 -57t18.5 -89t7 -153.5q0 -37 -7 -65t-15.5 -52.5t-15.5 -50t-7 -56.5q0 -39 12 -67.5t12 -65.5q0 -6 -1 -20.5t-1 -16.5q-2 -16 -8 -57t-12 -88t-12.5 -88t-8.5 -55q0 -4 8.5 -15.5t12.5 -11.5q51 0 84 38t51 87q10 25 10 20q0 -4 -3 -13 t-7 -10t0 30q90 16 195.5 42.5t193.5 90.5q92 63 149.5 150t57.5 210q0 70 -56.5 113t-135 65.5t-163.5 30.5t-143 8q-33 0 -44 15.5t-11 37.5q0 23 7 50.5t13.5 50t7.5 38t-12 15.5q-8 0 -38.5 8t-65.5 13.5t-69 2t-48 -23.5zM238 336v55q0 74 5 146.5t15 146.5q6 41 36 51 t62 10h45q37 0 80 -10t81 -31.5t62.5 -56.5t24.5 -84q0 -37 -12 -72.5t-31 -66.5q-68 -41 -133 -77t-143 -36q-25 0 -48.5 2.5t-43.5 22.5z" />
<glyph unicode="&#xdf;" horiz-adv-x="880" d="M18 80q43 -152 60 -156q14 -2 41 -6q25 -4 59.5 37t59 133t29.5 148.5t13.5 111.5t15.5 104.5t11 79.5q6 51 11.5 98.5t9.5 92.5v37q0 18 2 37q2 39 43 88q43 51 98 51q25 0 50.5 -5t47 -15.5t34.5 -27t13 -38.5q0 -4 -1 -9t-1 -7q-10 -10 -23 -24.5t-30 -31.5 q-14 -16 -28.5 -34.5t-30.5 -41.5q-31 -43 -2 -98q27 -53 67 -80q39 -27 64.5 -65.5t25.5 -89.5q0 -88 -36 -133q-39 -49 -95 -70q-55 -23 -18 -66q37 -41 131 17q94 59 157.5 143t63.5 191q0 53 -22.5 90t-57.5 64.5t-79 46t-87 34.5q0 2 -1 5t-1 5q0 23 27 46.5t58.5 51 t58 60.5t26.5 76q0 37 -15 61.5t-40 40t-55.5 22.5t-63.5 7q-16 0 -58 -3t-97 -11q-57 -6 -113 -19q-55 -8 -107 -106q-49 -96 -49 -117q0 -141 -8 -304t-33 -304q-12 -16 -33.5 -28.5t-41 -25t-35 -28t-15.5 -35.5z" />
<glyph unicode="&#xe0;" horiz-adv-x="798" d="M15 169q1 32 1 44q0 117 46.5 229.5t126 200.5t187 142.5t230.5 54.5h8q4 -2 11.5 -9.5t9.5 -11.5v-20q0 -14 1 -30.5t1 -31.5v-20q0 -55 -7 -110.5t-15.5 -110t-15.5 -109.5t-7 -111q0 -8 1 -35.5t1 -35.5q2 -4 9 -11.5t11 -9.5l4 -1q4 -1 7 -1q2 0 6 1l4 1l123 82 q4 2 10 4t10 2v-47q0 -2 -21.5 -23.5t-50 -51t-60.5 -60.5t-52 -49q-8 -8 -26.5 -15.5t-38 -13.5t-36 -9t-22.5 -3q-2 0 -9 8t-11 12q-29 45 -33 99l-8 106q-45 -12 -83 -46t-76 -69.5t-79 -63.5t-92 -28q-29 0 -42 26t-18.5 59.5t-4.5 65.5zM141 330q0 -14 2 -39t9.5 -49.5 t19.5 -42t33 -17.5q4 0 11 1t9 1q111 92 183.5 220t72.5 276q-76 0 -138 -25.5t-107.5 -71.5t-70 -110.5t-24.5 -142.5zM311 1274q0 39 11.5 70.5t68.5 39.5q16 0 23.5 -4t24 -16t21.5 -28.5t11 -20.5q0 -2 1 -9.5t1 -11.5t-1 -11t-1 -9l43 -105l92 -114q-4 0 -10 -11.5 t-10 -11.5q-45 0 -94.5 21.5t-89.5 56.5t-65.5 78t-25.5 86z" />
<glyph unicode="&#xe1;" horiz-adv-x="798" d="M15 169q1 32 1 44q0 117 46.5 229.5t126 200.5t187 142.5t230.5 54.5h8q4 -2 11.5 -9.5t9.5 -11.5v-20q0 -14 1 -30.5t1 -31.5v-20q0 -55 -7 -110.5t-15.5 -110t-15.5 -109.5t-7 -111q0 -8 1 -35.5t1 -35.5q2 -4 9 -11.5t11 -9.5l4 -1q4 -1 7 -1q2 0 6 1l4 1l123 82 q4 2 10 4t10 2v-47q0 -2 -21.5 -23.5t-50 -51t-60.5 -60.5t-52 -49q-8 -8 -26.5 -15.5t-38 -13.5t-36 -9t-22.5 -3q-2 0 -9 8t-11 12q-29 45 -33 99l-8 106q-45 -12 -83 -46t-76 -69.5t-79 -63.5t-92 -28q-29 0 -42 26t-18.5 59.5t-4.5 65.5zM141 330q0 -14 2 -39t9.5 -49.5 t19.5 -42t33 -17.5q4 0 11 1t9 1q111 92 183.5 220t72.5 276q-76 0 -138 -25.5t-107.5 -71.5t-70 -110.5t-24.5 -142.5zM471 1034l92 115l43 104q0 2 -1 9.5t-1 11.5t1 11t1 9q6 4 11.5 20.5t21.5 29t23.5 16.5t23.5 4q57 -8 68.5 -40t11.5 -71q0 -43 -25.5 -86t-65.5 -77.5 t-89 -56t-94 -21.5q-4 0 -10.5 11t-10.5 11z" />
<glyph unicode="&#xe2;" horiz-adv-x="798" d="M15 169q1 32 1 44q0 117 46.5 229.5t126 200.5t187 142.5t230.5 54.5h8q4 -2 11.5 -9.5t9.5 -11.5v-20q0 -14 1 -30.5t1 -31.5v-20q0 -55 -7 -110.5t-15.5 -110t-15.5 -109.5t-7 -111q0 -8 1 -35.5t1 -35.5q2 -4 9 -11.5t11 -9.5l4 -1q4 -1 7 -1q2 0 6 1l4 1l123 82 q4 2 10 4t10 2v-47q0 -2 -21.5 -23.5t-50 -51t-60.5 -60.5t-52 -49q-8 -8 -26.5 -15.5t-38 -13.5t-36 -9t-22.5 -3q-2 0 -9 8t-11 12q-29 45 -33 99l-8 106q-45 -12 -83 -46t-76 -69.5t-79 -63.5t-92 -28q-29 0 -42 26t-18.5 59.5t-4.5 65.5zM141 330q0 -14 2 -39t9.5 -49.5 t19.5 -42t33 -17.5q4 0 11 1t9 1q111 92 183.5 220t72.5 276q-76 0 -138 -25.5t-107.5 -71.5t-70 -110.5t-24.5 -142.5zM172 1026q0 20 28.5 59t73.5 86.5t99.5 97.5t105.5 91t93 66.5t61 25.5l153 -252q8 -20 22.5 -49t16.5 -31h95q0 -16 -23 -35.5t-54.5 -36t-65.5 -27.5 t-54 -11q-37 0 -58.5 42t-36 93t-28.5 93t-39 42q-2 0 -5 -1t-5 -1q-35 -23 -76 -44.5t-75.5 -47t-59.5 -55t-25 -66.5q0 -14 9.5 -23.5t9.5 -21.5q0 -10 -11.5 -19.5t-26.5 -16.5t-31.5 -11t-28.5 -4q-31 0 -47.5 17t-16.5 40z" />
<glyph unicode="&#xe3;" horiz-adv-x="798" d="M15 169q1 32 1 44q0 117 46.5 229.5t126 200.5t187 142.5t230.5 54.5h8q4 -2 11.5 -9.5t9.5 -11.5v-20q0 -14 1 -30.5t1 -31.5v-20q0 -55 -7 -110.5t-15.5 -110t-15.5 -109.5t-7 -111q0 -8 1 -35.5t1 -35.5q2 -4 9 -11.5t11 -9.5l4 -1q4 -1 7 -1q2 0 6 1l4 1l123 82 q4 2 10 4t10 2v-47q0 -2 -21.5 -23.5t-50 -51t-60.5 -60.5t-52 -49q-8 -8 -26.5 -15.5t-38 -13.5t-36 -9t-22.5 -3q-2 0 -9 8t-11 12q-29 45 -33 99l-8 106q-45 -12 -83 -46t-76 -69.5t-79 -63.5t-92 -28q-29 0 -42 26t-18.5 59.5t-4.5 65.5zM131 1067q0 106 57 166 q57 63 148 63q59 0 168 -55q61 -29 94 -29t89 12.5t114 73.5q-2 -117 -56.5 -172t-140.5 -55q-61 0 -166 55q-66 37 -98 37q-33 0 -53 -24q-10 -12 -51.5 -27.5t-104.5 -44.5zM141 330q0 -14 2 -39t9.5 -49.5t19.5 -42t33 -17.5q4 0 11 1t9 1q111 92 183.5 220t72.5 276 q-76 0 -138 -25.5t-107.5 -71.5t-70 -110.5t-24.5 -142.5z" />
<glyph unicode="&#xe4;" horiz-adv-x="798" d="M15 169q1 32 1 44q0 117 46.5 229.5t126 200.5t187 142.5t230.5 54.5h8q4 -2 11.5 -9.5t9.5 -11.5v-20q0 -14 1 -30.5t1 -31.5v-20q0 -55 -7 -110.5t-15.5 -110t-15.5 -109.5t-7 -111q0 -8 1 -35.5t1 -35.5q2 -4 9 -11.5t11 -9.5l4 -1q4 -1 7 -1q2 0 6 1l4 1l123 82 q4 2 10 4t10 2v-47q0 -2 -21.5 -23.5t-50 -51t-60.5 -60.5t-52 -49q-8 -8 -26.5 -15.5t-38 -13.5t-36 -9t-22.5 -3q-2 0 -9 8t-11 12q-29 45 -33 99l-8 106q-45 -12 -83 -46t-76 -69.5t-79 -63.5t-92 -28q-29 0 -42 26t-18.5 59.5t-4.5 65.5zM141 330q0 -14 2 -39t9.5 -49.5 t19.5 -42t33 -17.5q4 0 11 1t9 1q111 92 183.5 220t72.5 276q-76 0 -138 -25.5t-107.5 -71.5t-70 -110.5t-24.5 -142.5zM197 1196q0 20 11 35.5t28.5 26t38 16.5t36.5 6q47 0 84 -29.5t49 -74.5q-25 -49 -51 -67.5t-71 -18.5q-43 0 -84 29.5t-41 76.5zM612 1188 q0 20 11.5 35.5t29 26t38 16.5t36.5 6q47 0 84 -30t49 -75q-25 -49 -51.5 -67.5t-71.5 -18.5q-43 0 -84 30t-41 77z" />
<glyph unicode="&#xe5;" horiz-adv-x="798" d="M15 169q1 32 1 44q0 117 46.5 229.5t126 200.5t187 142.5t230.5 54.5h8q4 -2 11.5 -9.5t9.5 -11.5v-20q0 -14 1 -30.5t1 -31.5v-20q0 -55 -7 -110.5t-15.5 -110t-15.5 -109.5t-7 -111q0 -8 1 -35.5t1 -35.5q2 -4 9 -11.5t11 -9.5l4 -1q4 -1 7 -1q2 0 6 1l4 1l123 82 q4 2 10 4t10 2v-47q0 -2 -21.5 -23.5t-50 -51t-60.5 -60.5t-52 -49q-8 -8 -26.5 -15.5t-38 -13.5t-36 -9t-22.5 -3q-2 0 -9 8t-11 12q-29 45 -33 99l-8 106q-45 -12 -83 -46t-76 -69.5t-79 -63.5t-92 -28q-29 0 -42 26t-18.5 59.5t-4.5 65.5zM141 330q0 -14 2 -39t9.5 -49.5 t19.5 -42t33 -17.5q4 0 11 1t9 1q111 92 183.5 220t72.5 276q-76 0 -138 -25.5t-107.5 -71.5t-70 -110.5t-24.5 -142.5zM362 1141q0 49 22 95t57.5 83t83.5 59.5t102 22.5q37 0 60.5 -16.5t35.5 -42t17 -56.5t5 -59q0 -49 -20 -96.5t-56 -85t-85 -60t-105 -22.5 q-43 0 -66.5 15t-34.5 39.5t-13.5 56.5t-2.5 67zM463 1176q0 -23 1 -45.5t9 -43t26.5 -33t51.5 -12.5q31 0 51.5 17.5t32.5 42t17 52.5t5 50q0 20 -5 43t-17 42.5t-30.5 31.5t-45.5 12q-35 0 -53.5 -16.5t-28.5 -41t-12 -52t-2 -47.5z" />
<glyph unicode="&#xe6;" horiz-adv-x="1210" d="M15 169q-1 -32 4.5 -65.5t18.5 -59.5t42 -26q51 0 92 28t79 63.5t76 69.5t83 46l8 -106q4 -53 33 -99q4 -4 11 -12t9 -8q8 0 39 7t57 18q39 -25 103 -25q74 0 153.5 24.5t151.5 66.5t132 99.5t97 124.5h-41q-53 -43 -92 -74.5t-76 -52t-79 -31t-101 -10.5q-10 0 -41 1.5 t-41 1.5q-10 8 -18 15t-17 15q-2 2 -3 4t-5 4q-23 27 -36 56.5t-23 70.5q23 23 50.5 45.5t61.5 45.5q70 45 105 106q37 63 49 125.5t4 130.5q-2 35 -13 54.5t-50 19.5q-61 0 -111.5 -21.5t-91.5 -58.5v37v20q-2 4 -9.5 11.5t-11.5 9.5h-8q-123 0 -230.5 -54.5t-187 -142.5 t-126 -200.5t-46.5 -229.5q0 -12 -1 -44zM141 330q0 78 24.5 142.5t70 110.5t108 71.5t137.5 25.5q0 -147 -72.5 -275.5t-183.5 -220.5q-2 0 -9 -1t-11 -1q-20 0 -32.5 17.5t-20 42t-9.5 49.5t-2 39zM629 494q0 29 6 66.5t20.5 70.5t39 55.5t63.5 22.5q37 -55 -8 -142 q-45 -88 -119 -135q0 6 -1 30t-1 32z" />
<glyph unicode="&#xe7;" horiz-adv-x="614" d="M18 274q0 -121 68 -196.5t174 -79.5q6 -31 19.5 -55.5t9.5 -59.5q-4 -4 -19.5 -11t-33 -15.5t-32 -16.5t-16.5 -12l-1 -4q-1 -4 -1 -6q0 -16 13.5 -33.5t34 -31t42 -21.5t37.5 -8q20 0 36 11t26 28.5t15 38t5 36.5q0 35 -5 59.5t-12 44t-16.5 35t-15.5 31.5 q43 10 88 30.5t83 49.5t62.5 65.5t24.5 79.5q-31 0 -56.5 -12t-51 -26.5t-51 -26.5t-56.5 -12q-45 0 -83 19.5t-65.5 53t-43 77.5t-15.5 91q0 27 4 69t15 85q12 43 38.5 69.5t51.5 45.5l110 22q119 16 152 70l41 45l-21 20q-4 0 -28.5 1t-36.5 1q-100 0 -189.5 -45 t-156 -119.5t-105.5 -175t-39 -211.5z" />
<glyph unicode="&#xe8;" horiz-adv-x="778" d="M18 313q0 -55 6.5 -111.5t28 -101.5t62.5 -73.5t108 -28.5q74 0 154 24.5t151.5 66.5t132 99.5t97.5 124.5h-41q-53 -43 -92 -74.5t-76 -52t-79 -31t-101 -10.5q-10 0 -41 1t-41 1q-45 35 -66.5 74t-36.5 92q23 23 50.5 45.5t62.5 44.5q70 45 104 107q37 63 49.5 125.5 t4.5 130.5q-2 35 -13.5 54.5t-50.5 19.5q-98 0 -167.5 -52.5t-116 -130t-68 -170t-21.5 -174.5zM150 1282q0 -43 25.5 -86t65.5 -78t89 -56.5t94 -21.5q4 0 10 11.5t10 11.5l-92 115l-43 104q0 2 1 9t1 12q0 4 -1 11t-1 9q-6 4 -11 20.5t-21.5 28.5t-23.5 16.5t-24 4.5 q-57 -8 -68 -40t-11 -71zM182 492q0 29 6.5 66.5t20.5 70.5t38.5 55.5t63.5 22.5q37 -55 -8 -142q-45 -88 -119 -135q0 6 -1 30t-1 32z" />
<glyph unicode="&#xe9;" horiz-adv-x="778" d="M18 313q0 -55 6.5 -111.5t28 -101.5t62.5 -73.5t108 -28.5q74 0 154 24.5t151.5 66.5t132 99.5t97.5 124.5h-41q-53 -43 -92 -74.5t-76 -52t-79 -31t-101 -10.5q-10 0 -41 1t-41 1q-45 35 -66.5 74t-36.5 92q23 23 50.5 45.5t62.5 44.5q70 45 104 107q37 63 49.5 125.5 t4.5 130.5q-2 35 -13.5 54.5t-50.5 19.5q-98 0 -167.5 -52.5t-116 -130t-68 -170t-21.5 -174.5zM182 492q0 29 6.5 66.5t20.5 70.5t38.5 55.5t63.5 22.5q37 -55 -8 -142q-45 -88 -119 -135q0 6 -1 30t-1 32zM360 1040q4 0 10.5 -11t10.5 -11q45 0 94 21.5t89 56t65.5 78 t25.5 86.5q0 39 -11 70.5t-69 39.5q-16 0 -23 -4t-23.5 -16.5t-21.5 -28.5t-11 -21q0 -2 -1 -9t-1 -11t1 -11t1 -9l-43 -105z" />
<glyph unicode="&#xea;" horiz-adv-x="778" d="M18 313q0 -55 6.5 -111.5t28 -101.5t62.5 -73.5t108 -28.5q74 0 154 24.5t151.5 66.5t132 99.5t97.5 124.5h-41q-53 -43 -92 -74.5t-76 -52t-79 -31t-101 -10.5q-10 0 -41 1t-41 1q-45 35 -66.5 74t-36.5 92q23 23 65 47.5t77 47.5q70 45 104 106q37 63 49.5 125.5 t3.5 130.5q-2 35 -13 54.5t-50 19.5q-98 0 -173 -52.5t-125 -131t-77 -172t-27 -175.5zM43 1047q0 -23 16.5 -40.5t46.5 -17.5q12 0 29 4t32 11.5t26.5 16.5t11.5 19q0 12 -9.5 21.5t-9.5 23.5q0 37 25 67t59.5 55.5t75.5 47t76 43.5q2 0 5 1t5 1q25 0 39 -41.5t28.5 -93 t36 -93.5t58.5 -42q20 0 54 11.5t65.5 27.5t54.5 35.5t23 36.5h-95q-2 2 -16 30.5t-23 49.5l-153 252q-18 0 -60.5 -26t-93.5 -67t-105.5 -91t-99.5 -97t-73.5 -86t-28.5 -59zM182 492q0 29 10.5 66.5t30 71.5t49 57.5t68.5 23.5q37 -55 -8 -142q-23 -45 -68 -80.5 t-80 -58.5q0 6 -1 30t-1 32z" />
<glyph unicode="&#xeb;" horiz-adv-x="778" d="M18 313q0 -55 6.5 -111.5t28 -101.5t62.5 -73.5t108 -28.5q74 0 154 24.5t151.5 66.5t132 99.5t97.5 124.5h-41q-53 -43 -92 -74.5t-76 -52t-79 -31t-101 -10.5q-10 0 -41 1t-41 1q-45 35 -66.5 74t-36.5 92q12 12 39 22.5t59.5 20t62.5 19.5t48 22q70 45 105 107 q37 63 49 125.5t4 130.5q-2 35 -13.5 54.5t-50.5 19.5q-98 0 -183 -51.5t-148.5 -128t-100.5 -168t-37 -173.5zM125 1210q0 -47 41 -76.5t84 -29.5q45 0 71.5 18.5t51.5 67.5q-12 45 -49 74.5t-84 29.5q-16 0 -37 -6t-38.5 -16t-28.5 -26t-11 -36zM182 492q0 29 20.5 65.5 t53.5 68t73 53t79 21.5q37 -55 -9 -141q-12 -23 -39.5 -41t-61.5 -33.5t-64.5 -29t-49.5 -25.5q0 6 -1 30t-1 32zM502 1208q0 -47 41 -76.5t84 -29.5q45 0 71.5 18.5t51.5 67.5q-12 45 -49 74.5t-85 29.5q-16 0 -36.5 -6t-38 -16t-28.5 -26t-11 -36z" />
<glyph unicode="&#xec;" d="M20 635q4 0 15.5 -1t15.5 -1q35 0 56.5 8t56.5 35v-19q0 -12 1 -27.5t1 -27.5v-18q0 -111 -19.5 -223.5t-31.5 -204.5q-2 -16 -3 -28.5t-1 -21.5v-61q8 -8 16 -14t16 -11q33 -18 63 -20t64 -2h39q27 0 46.5 9t54.5 34q12 8 29.5 24.5t33.5 33t27.5 29.5t11.5 15v29 q-23 0 -42 -8t-36.5 -17.5t-36 -17.5t-39.5 -8q-2 0 -6 1l-4 1q-6 6 -18.5 10t-25.5 10.5t-24.5 19.5t-13.5 38q4 25 6 43t2 30q4 16 8.5 30.5t8.5 27.5q14 111 27.5 230.5t13.5 242.5q-92 0 -173.5 -49t-138.5 -121zM39 1235q0 -43 25.5 -86t65.5 -78t89 -56.5t94 -21.5 q4 0 10.5 11.5t10.5 11.5l-92 114l-43 105q0 2 1 9t1 11t-1 11.5t-1 9.5q-6 4 -11.5 20.5t-21.5 28.5t-23.5 16.5t-23.5 4.5q-57 -8 -68.5 -40t-11.5 -71z" />
<glyph unicode="&#xed;" d="M20 635q4 0 15.5 -1t15.5 -1q35 0 56.5 8t56.5 35v-19q0 -12 1 -27.5t1 -27.5v-18q0 -111 -19.5 -223.5t-31.5 -204.5q-2 -16 -3 -28.5t-1 -21.5v-61q8 -8 16 -14t16 -11q33 -18 63 -20t64 -2h39q27 0 46.5 9t54.5 34q12 8 29.5 24.5t33.5 33t27.5 29.5t11.5 15v29 q-23 0 -42 -8t-36.5 -17.5t-36 -17.5t-39.5 -8q-2 0 -6 1l-4 1q-6 6 -18.5 10t-25.5 10.5t-24.5 19.5t-13.5 38q4 25 6 43t2 30q4 16 8.5 30.5t8.5 27.5q14 111 27.5 230.5t13.5 242.5q-92 0 -173.5 -49t-138.5 -121zM188 1006q4 0 10.5 -11.5t10.5 -11.5q45 0 94 21.5 t89 56.5t65.5 78t25.5 86q0 39 -11 70.5t-69 39.5q-16 0 -23 -4t-23.5 -16t-21.5 -28.5t-11 -20.5q0 -2 -1 -9.5t-1 -11.5t1 -11t1 -9l-43 -105z" />
<glyph unicode="&#xee;" d="M-109 975q0 -23 16.5 -40t47.5 -17q12 0 28.5 4t32 11t26.5 16t11 20q0 12 -9 21t-9 24q0 37 24.5 66.5t59.5 55t76 47t75 44.5q2 0 5.5 1t5.5 1q25 0 39 -42t28 -93.5t36 -93.5t58 -42q20 0 54 11.5t66 28t54.5 36t22.5 35.5h-94q-2 2 -16.5 30.5t-22.5 49.5l-154 252 q-18 0 -60 -25.5t-93.5 -66.5t-105.5 -91.5t-99 -97.5t-74 -86t-29 -59zM20 635q4 0 15.5 -1t15.5 -1q35 0 56.5 8t56.5 35v-19q0 -12 1 -27.5t1 -27.5v-18q0 -111 -19.5 -223.5t-31.5 -204.5q-2 -16 -3 -28.5t-1 -21.5v-61q8 -8 16 -14t16 -11q33 -18 63 -20t64 -2h39 q27 0 46.5 9t54.5 34q12 8 29.5 24.5t33.5 33t27.5 29.5t11.5 15v29q-23 0 -42 -8t-36.5 -17.5t-36 -17.5t-39.5 -8q-2 0 -6 1l-4 1q-6 6 -18.5 10t-25.5 10.5t-24.5 19.5t-13.5 38q4 25 6 43t2 30q4 16 8.5 30.5t8.5 27.5q14 111 27.5 230.5t13.5 242.5q-92 0 -173.5 -49 t-138.5 -121z" />
<glyph unicode="&#xef;" d="M-59 1184q0 -47 41 -77t84 -30q45 0 71.5 18.5t50.5 67.5q-12 45 -49 75t-84 30q-16 0 -36.5 -6.5t-38 -16.5t-28.5 -25.5t-11 -35.5zM20 635q4 0 15.5 -1t15.5 -1q35 0 56.5 8t56.5 35v-19q0 -12 1 -27.5t1 -27.5v-18q0 -111 -19.5 -223.5t-31.5 -204.5q-2 -16 -3 -28.5 t-1 -21.5v-61q8 -8 16 -14t16 -11q33 -18 63 -20t64 -2h39q27 0 46.5 9t54.5 34q12 8 29.5 24.5t33.5 33t27.5 29.5t11.5 15v29q-23 0 -42 -8t-36.5 -17.5t-36 -17.5t-39.5 -8q-2 0 -6 1l-4 1q-6 6 -18.5 10t-25.5 10.5t-24.5 19.5t-13.5 38q4 25 6 43t2 30q4 16 8.5 30.5 t8.5 27.5q14 111 27.5 230.5t13.5 242.5q-92 0 -173.5 -49t-138.5 -121zM317 1182q0 -47 41 -77t84 -30q45 0 72 18.5t51 67.5q-12 45 -49 75t-84 30q-16 0 -36.5 -6.5t-38 -16.5t-29 -25.5t-11.5 -35.5z" />
<glyph unicode="&#xf0;" horiz-adv-x="737" d="M18 334q0 -8 1 -31.5t1 -30.5q35 -49 89.5 -98t118 -88t132 -63.5t132.5 -24.5q49 0 90 20.5t71.5 56.5t47 82t16.5 95q0 59 -14.5 124.5t-41 131t-65.5 128t-86 114.5q29 33 46 65.5t17 61.5q0 18 7.5 35.5t10.5 29.5t-4 21.5t-36 13.5q-16 0 -23.5 -4t-23.5 -17 q-20 -16 -27.5 -35.5t-7.5 -33.5l-47 -60q-49 35 -103.5 54.5t-113.5 19.5v-24q41 -20 79 -46t68 -59l-55 -45l-92 -115q4 0 10 -11t10 -11q41 0 95.5 23.5t105.5 60.5q29 -53 45 -111.5t16 -120.5q-39 0 -75.5 12.5t-73.5 28t-75 28.5t-79 13q-92 0 -129 -51t-37 -139z M182 299v57q0 31 23 54q8 0 35.5 1t35.5 1q31 0 69 -8.5t71 -26t55.5 -45t22.5 -66.5q0 -23 -11.5 -47t-30 -46.5t-40 -37t-41.5 -14.5q-35 0 -69 15.5t-60.5 41t-43 57t-16.5 64.5z" />
<glyph unicode="&#xf1;" horiz-adv-x="1024" d="M20 614q14 2 38 6.5t47.5 3.5t41 -12.5t17.5 -38.5q0 -72 -7 -143.5t-16.5 -144t-16.5 -144t-7 -145.5q74 0 110.5 44t58 105.5t37 127t46.5 108.5q23 35 52.5 82t66 90t80.5 72.5t98 29.5h10q4 -2 11 -9t9 -11q0 -10 1 -42t1 -42q0 -92 -12 -179t-12 -182v-24 q0 -16 1 -38t1 -40v-22q12 -39 27.5 -52.5t52.5 -13.5q33 0 78 15.5t86 42t68.5 61.5t27.5 76q-35 0 -68 -17.5t-67 -27.5h-11h-10q-4 2 -11 9t-9 11v20q0 16 -1 33t-1 31v22q0 98 12 189.5t12 189.5v23q0 14 -1 30.5t-1 32.5v21q-12 33 -28.5 38t-38.5 5q-80 0 -142.5 -33 t-117 -81t-103.5 -103.5t-102 -100.5v275q0 4 -8.5 20.5t-12.5 20.5h-8q-41 0 -81 -19.5t-77 -47t-69 -61.5t-52 -61zM268 1102q63 29 104.5 44t51.5 28q20 25 53 24q33 0 98 -37q104 -55 166 -55q86 0 140.5 55.5t56.5 171.5q-57 -61 -113.5 -73.5t-89.5 -12.5t-94 29 q-109 55 -168 55q-90 0 -147 -63q-58 -60 -58 -166z" />
<glyph unicode="&#xf2;" horiz-adv-x="716" d="M29 147q2 -41 22.5 -69.5t49 -46t61.5 -25.5t59 -8q98 0 184.5 55.5t152 140.5t103 184t37.5 187q0 35 2 78t-14 72q-35 68 -74 91t-73 32q-10 2 -17.5 3t-9.5 1q-123 0 -216 -75t-153 -187q-31 -49 -54 -113t-38.5 -125t-21.5 -113.5t0 -81.5zM203 287q0 14 4 52t13 86 t23.5 100.5t35 95.5t48 71.5t62.5 28.5q4 0 11.5 -2t9.5 -2q39 -27 63.5 -52.5t37.5 -54t18.5 -62.5t5.5 -77q0 -35 -17.5 -93.5t-47.5 -115.5t-66.5 -99t-73.5 -42q-35 0 -58.5 15.5t-39 39t-22.5 53t-7 58.5zM285 1245q0 -43 25.5 -86t65.5 -77.5t89 -56t94 -21.5 q4 0 10 11t11 11l-93 115l-43 104q0 2 1 9.5t1 11.5t-1 11t-1 9q-6 4 -11 20.5t-21.5 29t-23.5 16.5t-23 4q-57 -8 -68.5 -40t-11.5 -71z" />
<glyph unicode="&#xf3;" horiz-adv-x="716" d="M29 147q2 -41 22.5 -69.5t49 -46t61.5 -25.5t59 -8q98 0 184.5 55.5t152 140.5t103 184t37.5 187q0 35 2 78t-14 72q-35 68 -74 91t-73 32q-10 2 -17.5 3t-9.5 1q-123 0 -216 -75t-153 -187q-31 -49 -54 -113t-38.5 -125t-21.5 -113.5t0 -81.5zM203 287q0 14 4 52t13 86 t23.5 100.5t35 95.5t48 71.5t62.5 28.5q4 0 11.5 -2t9.5 -2q39 -27 63.5 -52.5t37.5 -54t18.5 -62.5t5.5 -77q0 -35 -17.5 -93.5t-47.5 -115.5t-66.5 -99t-73.5 -42q-35 0 -58.5 15.5t-39 39t-22.5 53t-7 58.5zM465 1040q4 0 10 -11t10 -11q45 0 94.5 21.5t89.5 56t65.5 78 t25.5 86.5q0 39 -11.5 70.5t-68.5 39.5q-16 0 -23.5 -4t-24 -16.5t-21.5 -28.5t-11 -21q0 -2 -1 -9t-1 -11t1 -11t1 -9l-43 -105z" />
<glyph unicode="&#xf4;" horiz-adv-x="716" d="M29 147q2 -41 22.5 -69.5t49 -46t61.5 -25.5t59 -8q98 0 184.5 55.5t152 140.5t103 184t37.5 187q0 35 2 78t-14 72q-35 68 -74 91t-73 32q-10 2 -17.5 3t-9.5 1q-123 0 -216 -75t-153 -187q-31 -49 -54 -113t-38.5 -125t-21.5 -113.5t0 -81.5zM193 1024q0 -23 16 -40 t47 -17q12 0 28.5 4t32 11t26.5 16.5t11 19.5q0 12 -9 21.5t-9 23.5q0 37 24.5 66.5t59.5 55t76 47t75 44.5q2 0 5.5 1t5.5 1q25 0 39 -42t28.5 -93t36 -93t57.5 -42q20 0 54 11t66 27.5t54.5 36t22.5 35.5h-94q-2 2 -16.5 31t-22.5 49l-154 252q-18 0 -60 -25.5t-93 -66.5 t-105.5 -91t-99.5 -97.5t-73.5 -86.5t-28.5 -59zM203 287q0 14 4 52t13 86t23.5 100.5t35 95.5t48 71.5t62.5 28.5q4 0 11.5 -2t9.5 -2q39 -27 63.5 -52.5t37.5 -54t18.5 -62.5t5.5 -77q0 -35 -17.5 -93.5t-47.5 -115.5t-66.5 -99t-73.5 -42q-35 0 -58.5 15.5t-39 39 t-22.5 53t-7 58.5z" />
<glyph unicode="&#xf5;" horiz-adv-x="716" d="M29 147q2 -41 22.5 -69.5t49 -46t61.5 -25.5t59 -8q98 0 184.5 55.5t152 140.5t103 184t37.5 187q0 35 2 78t-14 72q-35 68 -74 91t-73 32q-10 2 -17.5 3t-9.5 1q-123 0 -216 -75t-153 -187q-31 -49 -54 -113t-38.5 -125t-21.5 -113.5t0 -81.5zM203 287q0 14 4 52t13 86 t23.5 100.5t35 95.5t48 71.5t62.5 28.5q4 0 11.5 -2t9.5 -2q39 -27 63.5 -52.5t37.5 -54t18.5 -62.5t5.5 -77q0 -35 -17.5 -93.5t-47.5 -115.5t-66.5 -99t-73.5 -42q-35 0 -58.5 15.5t-39 39t-22.5 53t-7 58.5zM207 1047q63 29 104 44t51 27q20 25 54 25q33 0 98 -37 q104 -55 166 -55q86 0 140 55t57 172q-57 -61 -113.5 -73.5t-89.5 -12.5t-94 29q-109 55 -168 55q-90 0 -148 -64q-57 -59 -57 -165z" />
<glyph unicode="&#xf6;" horiz-adv-x="716" d="M29 147q2 -41 22.5 -69.5t49 -46t61.5 -25.5t59 -8q98 0 184.5 55.5t152 140.5t103 184t37.5 187q0 35 2 78t-14 72q-35 68 -74 91t-73 32q-10 2 -17.5 3t-9.5 1q-123 0 -216 -75t-153 -187q-31 -49 -54 -113t-38.5 -125t-21.5 -113.5t0 -81.5zM203 287q0 14 4 52t13 86 t23.5 100.5t35 95.5t48 71.5t62.5 28.5q4 0 11.5 -2t9.5 -2q39 -27 63.5 -52.5t37.5 -54t18.5 -62.5t5.5 -77q0 -35 -17.5 -93.5t-47.5 -115.5t-66.5 -99t-73.5 -42q-35 0 -58.5 15.5t-39 39t-22.5 53t-7 58.5zM207 1149q0 -47 41 -77t84 -30q45 0 71.5 18.5t51.5 67.5 q-12 45 -49 75t-84 30q-16 0 -37 -6t-38.5 -16.5t-28.5 -26t-11 -35.5zM623 1141q0 -47 41 -77t84 -30q45 0 71.5 18.5t50.5 67.5q-12 45 -49 75t-84 30q-16 0 -36.5 -6.5t-38 -16.5t-28.5 -25.5t-11 -35.5z" />
<glyph unicode="&#xf7;" horiz-adv-x="634" d="M14 426q86 0 168 -12.5t168 -12.5q33 0 71 12.5t73.5 33t67.5 46t52 52.5h-30h-31q-4 0 -16.5 -3t-25.5 -7.5t-25.5 -7.5t-14.5 -3q-18 0 -68.5 -1t-105.5 -1t-104.5 1t-69.5 1q-14 -4 -32.5 -14t-36 -23.5t-29 -30t-11.5 -30.5zM207 213q0 -4 9 -11t23.5 -15.5t30 -16.5 t25.5 -12q2 0 15.5 -1t19.5 -1q14 0 33.5 4t37 13t29.5 23.5t12 32.5t-13 35t-32.5 30t-41 21.5t-36.5 8.5q-4 0 -28.5 -11.5t-38.5 -31.5l-45 -52v-16zM244 680q0 -4 9 -11t23.5 -15.5t30 -16.5t25.5 -12q2 0 15 -1t20 -1q14 0 33.5 4t37 13t29.5 23.5t12 32.5t-13 35 t-32.5 30t-41 21.5t-36.5 8.5q-4 0 -28.5 -11.5t-38.5 -31.5l-45 -52v-16z" />
<glyph unicode="&#xf8;" horiz-adv-x="716" d="M28 227.5q5 53.5 20 114.5t40 124.5t55 113.5q49 92 121 160.5t164 90.5q23 35 54.5 59.5t78.5 24.5q0 -20 -4 -39.5t-8 -39.5q33 -10 68.5 -35t68.5 -86q16 -29 14 -72t-2 -78q0 -82 -31.5 -173t-88 -171t-132 -139t-161.5 -78q-20 -31 -44 -49t-53 -18q-4 0 -11 2t-9 2 l16 59q-27 4 -53.5 15.5t-48 28.5t-36.5 43t-17 60q-6 27 -1 80.5zM203 287q0 -29 7 -59.5t23 -55.5l162 549q-37 0 -64.5 -28.5t-49 -71.5t-37 -95.5t-24.5 -100.5t-13 -86t-4 -52zM328 121q39 6 75.5 49t65.5 99.5t47.5 112.5t18.5 89q0 59 -11.5 102t-46.5 80 q-4 -16 -6 -22l-65 -238q-6 -16 -13.5 -46t-16.5 -66.5t-21.5 -78.5t-26.5 -81z" />
<glyph unicode="&#xf9;" horiz-adv-x="860" d="M20 635q117 135 287 205q18 -4 20.5 -20.5t2.5 -31.5q0 -61 -13.5 -122.5t-30 -122t-29.5 -122t-13 -124.5v-18q0 -12 1 -27.5t1 -28.5v-18q6 -16 17 -19.5t24 -3.5q25 0 32 8.5t29 34.5q12 14 38 46t51.5 65t47 59.5t27.5 34.5q35 47 60.5 121t57.5 143.5t77 119.5 t118 50q0 -78 -20.5 -159.5t-45 -165.5t-45 -171t-20.5 -175q0 -16 5.5 -34t27.5 -18q2 0 6 1l4 1l82 41q4 2 15.5 3t15.5 1q0 -35 -24.5 -69.5t-60.5 -61t-77 -43t-74 -16.5q-4 0 -13 -1t-20.5 1t-19.5 7t-8 15v308h-21q-29 -39 -68.5 -91.5t-86.5 -100.5t-101.5 -82 t-111.5 -34q-23 0 -38 13.5t-25.5 32t-15.5 39t-5 36.5q0 63 9 127t20.5 128.5t20.5 128t9 126.5q-4 0 -8 3t-8 1q-6 -2 -17.5 -8t-23.5 -12t-23.5 -12.5t-17.5 -8.5zM362 1280q0 39 11.5 70.5t68.5 40.5q16 0 23.5 -4.5t24 -16.5t21.5 -28.5t11 -20.5q0 -2 1 -9t1 -12 q0 -4 -1 -11t-1 -9l43 -104l92 -115q-4 0 -10 -11.5t-10 -11.5q-45 0 -94 21.5t-89 56.5t-66 78t-26 86z" />
<glyph unicode="&#xfa;" horiz-adv-x="860" d="M20 635q117 135 287 205q18 -4 20.5 -20.5t2.5 -31.5q0 -61 -13.5 -122.5t-30 -122t-29.5 -122t-13 -124.5v-18q0 -12 1 -27.5t1 -28.5v-18q6 -16 17 -19.5t24 -3.5q25 0 32 8.5t29 34.5q12 14 38 46t51.5 65t47 59.5t27.5 34.5q35 47 60.5 121t57.5 143.5t77 119.5 t118 50q0 -78 -20.5 -159.5t-45 -165.5t-45 -171t-20.5 -175q0 -16 5.5 -34t27.5 -18q2 0 6 1l4 1l82 41q4 2 15.5 3t15.5 1q0 -35 -24.5 -69.5t-60.5 -61t-77 -43t-74 -16.5q-4 0 -13 -1t-20.5 1t-19.5 7t-8 15v308h-21q-29 -39 -68.5 -91.5t-86.5 -100.5t-101.5 -82 t-111.5 -34q-23 0 -38 13.5t-25.5 32t-15.5 39t-5 36.5q0 63 9 127t20.5 128.5t20.5 128t9 126.5q-4 0 -8 3t-8 1q-6 -2 -17.5 -8t-23.5 -12t-23.5 -12.5t-17.5 -8.5zM487 1034l93 115l43 104q0 2 -1 9.5t-1 11.5t1 11t1 9q6 4 11 20.5t21.5 29t23.5 16.5t23 4 q57 -8 68.5 -40t11.5 -71q0 -43 -25.5 -86t-65.5 -77.5t-89 -56t-94 -21.5q-4 0 -10.5 11t-10.5 11z" />
<glyph unicode="&#xfb;" horiz-adv-x="860" d="M20 635q117 135 287 205q18 -4 20.5 -20.5t2.5 -31.5q0 -61 -13.5 -122.5t-30 -122t-29.5 -122t-13 -124.5v-18q0 -12 1 -27.5t1 -28.5v-18q6 -16 17 -19.5t24 -3.5q25 0 32 8.5t29 34.5q12 14 38 46t51.5 65t47 59.5t27.5 34.5q35 47 60.5 121t57.5 143.5t77 119.5 t118 50q0 -78 -20.5 -159.5t-45 -165.5t-45 -171t-20.5 -175q0 -16 5.5 -34t27.5 -18q2 0 6 1l4 1l82 41q4 2 15.5 3t15.5 1q0 -35 -24.5 -69.5t-60.5 -61t-77 -43t-74 -16.5q-4 0 -13 -1t-20.5 1t-19.5 7t-8 15v308h-21q-29 -39 -68.5 -91.5t-86.5 -100.5t-101.5 -82 t-111.5 -34q-23 0 -38 13.5t-25.5 32t-15.5 39t-5 36.5q0 63 9 127t20.5 128.5t20.5 128t9 126.5q-4 0 -8 3t-8 1q-6 -2 -17.5 -8t-23.5 -12t-23.5 -12.5t-17.5 -8.5zM238 1087q0 20 28.5 59.5t73.5 86.5t99.5 97t105.5 91t93 66.5t60 25.5l154 -251q8 -20 22.5 -49 t16.5 -31h94q0 -16 -22.5 -36t-54 -36t-65.5 -27.5t-55 -11.5q-37 0 -58 42t-35.5 93t-29 93t-38.5 42q-2 0 -5.5 -1t-5.5 -1q-35 -23 -75.5 -44t-75.5 -46.5t-59.5 -55.5t-24.5 -67q0 -14 9 -23t9 -22q0 -10 -11 -19t-26.5 -16.5t-32 -11.5t-28.5 -4q-31 0 -47 17t-16 40z " />
<glyph unicode="&#xfc;" horiz-adv-x="860" d="M20 635q117 135 287 205q18 -4 20.5 -20.5t2.5 -31.5q0 -61 -13.5 -122.5t-30 -122t-29.5 -122t-13 -124.5v-18q0 -12 1 -27.5t1 -28.5v-18q6 -16 17 -19.5t24 -3.5q25 0 32 8.5t29 34.5q12 14 38 46t51.5 65t47 59.5t27.5 34.5q35 47 60.5 121t57.5 143.5t77 119.5 t118 50q0 -78 -20.5 -159.5t-45 -165.5t-45 -171t-20.5 -175q0 -16 5.5 -34t27.5 -18q2 0 6 1l4 1l82 41q4 2 15.5 3t15.5 1q0 -35 -24.5 -69.5t-60.5 -61t-77 -43t-74 -16.5q-4 0 -13 -1t-20.5 1t-19.5 7t-8 15v308h-21q-29 -39 -68.5 -91.5t-86.5 -100.5t-101.5 -82 t-111.5 -34q-23 0 -38 13.5t-25.5 32t-15.5 39t-5 36.5q0 63 9 127t20.5 128.5t20.5 128t9 126.5q-4 0 -8 3t-8 1q-6 -2 -17.5 -8t-23.5 -12t-23.5 -12.5t-17.5 -8.5zM252 1200q0 20 11 35.5t28.5 26t38 16.5t37.5 6q47 0 83.5 -29.5t49.5 -74.5q-25 -49 -51.5 -67.5 t-71.5 -18.5q-43 0 -84 29.5t-41 76.5zM702 1194q0 20 11.5 35.5t29 26t38 16.5t36.5 6q47 0 84 -29.5t49 -74.5q-25 -49 -51.5 -68t-71.5 -19q-43 0 -84 30t-41 77z" />
<glyph unicode="&#xfd;" horiz-adv-x="770" d="M-285 -389q0 -25 19.5 -51.5t48.5 -49t60.5 -37t56.5 -14.5q125 0 244.5 43t218 119t166 181.5t89.5 230.5q2 18 10.5 86.5t18.5 148.5t19.5 148.5t13.5 87.5q4 31 14.5 66.5t21.5 73.5t19 76t8 73v32q0 23 -22 27q-61 -20 -94 -35.5t-49 -66.5q-2 -6 -10.5 -37 t-19.5 -66t-20.5 -65.5t-11.5 -36.5q-20 -47 -53 -97.5t-73 -99.5t-82 -94t-79 -78q-2 0 -5 -1t-5 -1t-6 1l-4 1q-4 4 -12.5 20.5t-8.5 20.5v23q0 16 -1 33.5t-1 33.5v23q0 100 22.5 196.5t22.5 196.5q0 23 -12 46.5t-41 23.5q-16 0 -35.5 -7.5t-38 -19.5t-35 -27.5 t-24.5 -29.5q6 -135 -8 -261t-14 -262v-22q0 -16 1 -33.5t1 -34.5v-22q12 -31 29.5 -37t41.5 -6q51 0 103.5 25.5t100.5 63.5t88 81t67 78q0 -10 1 -41t1 -41q0 -119 -18.5 -226.5t-65.5 -189.5t-132 -131t-216 -49q-41 0 -71 13t-57.5 30.5t-55 31t-62.5 13.5 q-41 0 -52.5 -20.5t-11.5 -57.5zM367 1049q4 0 10 -11.5t10 -11.5q45 0 94 21.5t89 56.5t66 78t26 86q0 39 -11.5 70.5t-68.5 39.5q-16 0 -23.5 -4t-24 -16t-21.5 -28.5t-11 -20.5q0 -2 -1 -9.5t-1 -11.5t1 -11t1 -9l-43 -105z" />
<glyph unicode="&#xfe;" horiz-adv-x="880" d="M55 1069q8 -37 20.5 -60.5t24 -57t18.5 -89t7 -153.5q0 -37 -7 -65t-15.5 -52.5t-15.5 -50t-7 -56.5q0 -39 12 -67.5t12 -65.5q0 -6 -1 -20.5t-1 -16.5q-2 -16 -8 -57t-12 -88t-12.5 -88t-8.5 -55q0 -4 8.5 -15.5t12.5 -11.5q51 0 84 38t51 87q10 25 10 20q0 -4 -3 -13 t-7 -10t0 30q90 16 195.5 42.5t193.5 90.5q92 63 149.5 150t57.5 210q0 70 -56.5 113t-135 65.5t-163.5 30.5t-143 8q-33 0 -44 15.5t-11 37.5q0 23 7 50.5t13.5 50t7.5 38t-12 15.5q-8 0 -38.5 8t-65.5 13.5t-69 2t-48 -23.5zM238 336v55q0 74 5 146.5t15 146.5q6 41 36 51 t62 10h45q37 0 80 -10t81 -31.5t62.5 -56.5t24.5 -84q0 -37 -12 -72.5t-31 -66.5q-68 -41 -133 -77t-143 -36q-25 0 -48.5 2.5t-43.5 22.5z" />
<glyph unicode="&#xff;" horiz-adv-x="770" d="M-285 -389q0 -25 19.5 -51.5t48.5 -49t60.5 -37t56.5 -14.5q125 0 244.5 43t218 119t166 181.5t89.5 230.5q2 18 10.5 86.5t18.5 148.5t19.5 148.5t13.5 87.5q4 31 14.5 66.5t21.5 73.5t19 76t8 73v32q0 23 -22 27q-61 -20 -94 -35.5t-49 -66.5q-2 -6 -10.5 -37 t-19.5 -66t-20.5 -65.5t-11.5 -36.5q-20 -47 -53 -97.5t-73 -99.5t-82 -94t-79 -78q-2 0 -5 -1t-5 -1t-6 1l-4 1q-4 4 -12.5 20.5t-8.5 20.5v23q0 16 -1 33.5t-1 33.5v23q0 100 22.5 196.5t22.5 196.5q0 23 -12 46.5t-41 23.5q-16 0 -35.5 -7.5t-38 -19.5t-35 -27.5 t-24.5 -29.5q6 -135 -8 -261t-14 -262v-22q0 -16 1 -33.5t1 -34.5v-22q12 -31 29.5 -37t41.5 -6q51 0 103.5 25.5t100.5 63.5t88 81t67 78q0 -10 1 -41t1 -41q0 -119 -18.5 -226.5t-65.5 -189.5t-132 -131t-216 -49q-41 0 -71 13t-57.5 30.5t-55 31t-62.5 13.5 q-41 0 -52.5 -20.5t-11.5 -57.5zM160 1200q0 -47 41 -76.5t84 -29.5q45 0 71.5 18t51.5 68q-12 45 -49 74.5t-85 29.5q-16 0 -36.5 -6t-38 -16.5t-28.5 -26t-11 -35.5zM610 1194q0 -47 41 -77t84 -30q45 0 72 18.5t51 68.5q-12 45 -49 74.5t-84 29.5q-16 0 -36.5 -6 t-38 -16.5t-29 -26t-11.5 -35.5z" />
<glyph unicode="&#x152;" horiz-adv-x="1574" d="M18 377q0 -49 12.5 -114.5t41 -124t76 -98.5t118.5 -40q139 0 247 20.5t202 96.5q104 -115 276 -115q57 0 140 26.5t160 75t131.5 115t54.5 146.5q-53 0 -90 -30t-73 -64.5t-79 -64.5t-111 -30q-53 0 -108 23.5t-99.5 64.5t-72 96.5t-27.5 118.5v10q2 4 10.5 12.5 t10.5 8.5h389q25 0 54.5 18.5t58 43t53 51t39.5 43.5l-21 20q-6 -2 -20.5 -6t-31 -7t-30.5 -5t-20 -2q-23 0 -78 -1t-117 -1q-61 0 -116.5 1t-77.5 1q-29 -12 -39.5 -16.5t-16.5 -4.5t-13 2t-30 2q0 27 8.5 68t25.5 79t43 64.5t63 26.5h409q18 0 45 14t50.5 37t41 48.5 t17.5 47.5q-88 0 -171 14.5t-169 14.5q-115 0 -218.5 -59.5t-182 -154.5t-126 -213t-47.5 -235q0 -66 14.5 -120t41.5 -101q-39 -12 -79 -17t-95 -5h-25q-16 0 -36.5 1t-39.5 1h-22q-113 55 -160 148t-47 210q0 86 31.5 164t80.5 131q49 55 123 93t174 65q59 0 119 -11.5 t121 -11.5q14 0 30.5 9.5t32 22.5t28.5 26.5t20 21.5q-12 20 -40 29.5t-59.5 11.5t-61.5 1t-44 -1q-147 0 -275.5 -54t-222.5 -148.5t-147.5 -220.5t-53.5 -269z" />
<glyph unicode="&#x153;" horiz-adv-x="1198" d="M18 274q0 -125 73 -200.5t185 -75.5q45 0 110 21.5t120 60.5q23 -35 60.5 -56.5t97.5 -21.5q74 0 153.5 24.5t151 66.5t132 99.5t97.5 124.5h-41q-53 -43 -92 -74.5t-76 -52t-79 -30.5t-101 -10q-10 0 -41 1t-41 1q-45 35 -66.5 73.5t-35.5 91.5q23 23 50 45.5t62 45.5 q70 45 105 106q37 63 49 125.5t4 130.5q-2 35 -13.5 54.5t-50.5 19.5q-98 0 -167.5 -52.5t-115.5 -130t-67.5 -170t-21.5 -174.5q0 -35 2 -69.5t8 -69.5q-18 -10 -37.5 -16t-42.5 -6q-45 0 -83 19.5t-65.5 53t-43 77.5t-15.5 91q0 27 4 69t15 85q12 43 38.5 69.5t51.5 45.5 l110 22q119 16 152 70l41 45l-21 20q-4 0 -28.5 1t-36.5 1q-100 0 -189.5 -45t-156 -119.5t-105.5 -175t-39 -211.5zM623 496q0 29 6 66.5t20.5 70.5t39 55.5t63.5 22.5q37 -55 -9 -142q-45 -88 -118 -135q0 6 -1 30t-1 32z" />
<glyph unicode="&#x178;" horiz-adv-x="962" d="M20 -176q0 -49 34 -79t80 -47t94 -23.5t79 -6.5q59 0 106.5 5t98.5 42q63 61 113.5 113.5t89.5 108t64.5 120t39.5 150.5q4 29 13.5 90t21.5 139t26.5 165t27 165t21.5 140.5t13 90.5v11q0 55 -49 55q-47 0 -77 -28.5t-48 -75t-28.5 -102.5t-16.5 -110.5t-11 -101.5 t-16 -74q-18 -49 -56 -99t-80 -96t-83 -84t-67 -63q-4 0 -15.5 -1t-15.5 -1q-47 0 -60.5 29t-13.5 72q0 94 17.5 186t37 184.5t37 183.5t17.5 185q-31 0 -72 -23.5t-79 -58.5t-65.5 -75t-33.5 -72h53l2 -16q2 -15 4 -36.5t3 -45t-1 -42.5q-16 -127 -39.5 -248.5 t-23.5 -252.5v-19q0 -14 1 -29.5t1 -27.5v-21q10 -37 36.5 -41t53.5 -4q39 0 71.5 7.5t63.5 37.5l246 256h10v-174q0 -68 -9 -132t-37 -115.5t-76 -82t-124 -30.5q-49 0 -94 20.5t-81 45t-60.5 45t-30.5 20.5q-2 0 -6 -1l-4 -1q-6 -6 -27.5 -28.5t-38.5 -37.5 q-14 -12 -23.5 -30.5t-13.5 -30.5zM340 1378q0 -47 41 -76.5t84 -29.5q45 0 71.5 18.5t51.5 67.5q-12 45 -49 74.5t-84 29.5q-16 0 -37 -6t-38.5 -16t-28.5 -26t-11 -36zM791 1372q0 -47 40.5 -76.5t83.5 -29.5q45 0 72 18.5t51 67.5q-12 45 -49 74.5t-84 29.5 q-16 0 -36.5 -6t-38 -16.5t-28.5 -26t-11 -35.5z" />
<glyph unicode="&#x2c6;" horiz-adv-x="808" d="M35 1069q0 -23 16.5 -40t46.5 -17q12 0 28.5 4t32 11t27 16.5t11.5 19.5q0 12 -9.5 21.5t-9.5 23.5q0 37 24.5 76t59.5 73.5t76 65.5t76 53q2 0 5 1t5 1q16 0 27.5 -24.5t21.5 -60.5t19.5 -77.5t21.5 -77.5t29.5 -60.5t42.5 -24.5q20 0 54 11t65.5 27.5t54 36t22.5 35.5 h-94q-2 2 -16.5 31t-22.5 49q-10 33 -24.5 68t-28.5 70.5t-24.5 70.5t-12.5 70q-12 20 -27.5 24t-35.5 4q-18 0 -60.5 -29.5t-93.5 -76.5t-105.5 -104.5t-99.5 -110.5t-73.5 -96.5t-28.5 -63.5z" />
<glyph unicode="&#x2dc;" horiz-adv-x="720" d="M12 1139q63 29 104.5 44t51.5 27q20 25 53 25t98 -37q104 -55 166 -55q86 0 140.5 55t56.5 172q-57 -61 -113.5 -73.5t-89.5 -12.5t-94 29q-109 55 -168 55q-90 0 -147 -63q-58 -60 -58 -166z" />
<glyph unicode="&#x2000;" horiz-adv-x="866" />
<glyph unicode="&#x2001;" horiz-adv-x="1734" />
<glyph unicode="&#x2002;" horiz-adv-x="866" />
<glyph unicode="&#x2003;" horiz-adv-x="1734" />
<glyph unicode="&#x2004;" horiz-adv-x="577" />
<glyph unicode="&#x2005;" horiz-adv-x="432" />
<glyph unicode="&#x2006;" horiz-adv-x="288" />
<glyph unicode="&#x2007;" horiz-adv-x="288" />
<glyph unicode="&#x2008;" horiz-adv-x="215" />
<glyph unicode="&#x2009;" horiz-adv-x="346" />
<glyph unicode="&#x200a;" horiz-adv-x="96" />
<glyph unicode="&#x2010;" horiz-adv-x="634" d="M14 426q0 14 11.5 30.5t29 30t36 23.5t32.5 14q20 0 69.5 -1t104.5 -1t105.5 1t68.5 1q2 0 14.5 3t25.5 7.5t25.5 7.5t16.5 3h31h30q-20 -27 -52 -52.5t-67.5 -46t-73.5 -33t-71 -12.5q-86 0 -168 12.5t-168 12.5z" />
<glyph unicode="&#x2011;" horiz-adv-x="634" d="M14 426q0 14 11.5 30.5t29 30t36 23.5t32.5 14q20 0 69.5 -1t104.5 -1t105.5 1t68.5 1q2 0 14.5 3t25.5 7.5t25.5 7.5t16.5 3h31h30q-20 -27 -52 -52.5t-67.5 -46t-73.5 -33t-71 -12.5q-86 0 -168 12.5t-168 12.5z" />
<glyph unicode="&#x2012;" horiz-adv-x="634" d="M14 426q0 14 11.5 30.5t29 30t36 23.5t32.5 14q20 0 69.5 -1t104.5 -1t105.5 1t68.5 1q2 0 14.5 3t25.5 7.5t25.5 7.5t16.5 3h31h30q-20 -27 -52 -52.5t-67.5 -46t-73.5 -33t-71 -12.5q-86 0 -168 12.5t-168 12.5z" />
<glyph unicode="&#x2013;" horiz-adv-x="634" d="M14 426q0 14 11.5 30.5t29 30t36 23.5t32.5 14q20 0 69.5 -1t104.5 -1t105.5 1t68.5 1q2 0 14.5 3t25.5 7.5t25.5 7.5t16.5 3h31h30q-20 -27 -52 -52.5t-67.5 -46t-73.5 -33t-71 -12.5q-86 0 -168 12.5t-168 12.5z" />
<glyph unicode="&#x2014;" horiz-adv-x="860" d="M14 426q43 0 118 -3t155 -6t154.5 -5t117.5 -2q33 0 71 12t73.5 32.5t67.5 46t52 52.5h-30h-31q-4 0 -16.5 -3t-25.5 -7t-25.5 -7.5t-14.5 -3.5q-10 0 -60.5 -2t-113 -3t-122.5 -3t-87 -2q-55 0 -104.5 1t-69.5 1q-14 -4 -32.5 -14t-36 -23.5t-29 -30t-11.5 -30.5z" />
<glyph unicode="&#x2018;" horiz-adv-x="327" d="M18 846q0 41 28 84t69 80t88 65.5t84 38.5q4 -2 11 -9t9 -11l1 -4q1 -4 1 -7q0 -20 -16.5 -32.5t-36.5 -22.5t-36.5 -24.5t-16.5 -38.5q0 -29 8 -44.5t20.5 -24.5t27.5 -19.5t28 -28.5q-33 -45 -72 -75t-94 -30q-39 0 -71 32t-32 71z" />
<glyph unicode="&#x2019;" horiz-adv-x="307" d="M20 754l103 102q4 6 12 21.5t8 19.5t-6 19.5t-14 32t-14.5 31.5t-6.5 19q0 2 -1 9.5t-1 11.5t1 11t1 9q6 4 11.5 20.5t22 29t37 16.5t36.5 4q57 -8 68.5 -40t11.5 -71q0 -43 -20.5 -87t-53.5 -79.5t-76 -58t-88 -22.5q-4 0 -15.5 1t-15.5 1z" />
<glyph unicode="&#x201a;" horiz-adv-x="266" d="M14 -111q0 20 11.5 35t27 29t29.5 28.5t20 34.5q-4 4 -13 15.5t-19.5 25t-18.5 25.5t-10 16l-1 4q-1 4 -1 7q0 16 13.5 33.5t33.5 30.5t42 21.5t38 8.5q20 0 35.5 -11.5t26 -29t15.5 -38t5 -36.5q0 -37 -24.5 -72.5t-59.5 -63.5t-76 -45.5t-74 -17.5z" />
<glyph unicode="&#x201c;" horiz-adv-x="675" d="M18 879q0 39 26 79.5t63.5 74.5t83 55.5t81.5 21.5q0 -20 -11 -34.5t-23.5 -29t-23.5 -28.5t-11 -35q0 -18 10 -32.5t22.5 -29t22.5 -28.5t10 -35q0 -23 -12 -38t-31.5 -25.5t-42 -15.5t-41.5 -5q-20 0 -41.5 7t-40 21.5t-30 33t-11.5 43.5zM367 846q0 41 27.5 84 t68.5 80t88 65.5t84 38.5q4 -2 11 -9t9 -11l1 -4q1 -4 1 -7q0 -20 -16 -32.5t-36.5 -22.5t-37 -24.5t-16.5 -38.5q0 -29 8 -44.5t20.5 -24.5t28 -19.5t27.5 -28.5q-33 -45 -72 -75t-94 -30q-39 0 -70.5 32t-31.5 71z" />
<glyph unicode="&#x201d;" horiz-adv-x="614" d="M18 1024q0 20 13.5 35.5t33 26t41 16.5t39.5 6q47 0 65.5 -39t18.5 -76q0 -33 -18 -65.5t-46 -58t-61.5 -42t-66.5 -16.5q0 4 1 14.5t3 14.5l20 20q4 6 12.5 21.5t8.5 19.5q0 25 -10.5 39t-21.5 26.5t-21.5 25t-10.5 32.5zM326 1010q0 23 21.5 40t50 29.5t58 18.5t46.5 6 q37 0 65.5 -16.5t28.5 -55.5q0 -43 -18.5 -92t-50 -92t-73.5 -70.5t-89 -27.5q0 2 1 12t3 12q4 16 19 47t42 97q-20 14 -32.5 23t-22.5 17.5t-21.5 17.5t-25.5 23q0 2 -1 5.5t-1 5.5z" />
<glyph unicode="&#x201e;" horiz-adv-x="602" d="M14 -111q33 0 74 17.5t76 45.5t59.5 63.5t24.5 72.5q0 16 -5 36.5t-15.5 38t-26 29t-35.5 11.5q-16 0 -38 -8.5t-42 -21.5t-33.5 -30.5t-13.5 -33.5q0 -2 1 -7l1 -4q2 -4 10 -16t18.5 -25.5t19.5 -25t13 -15.5q-6 -20 -20 -34.5t-29.5 -28.5t-27 -29t-11.5 -35zM328 -115 q33 0 73.5 17.5t75.5 45t59.5 63.5t24.5 73q0 16 -5 36.5t-15.5 38t-25.5 29t-36 11.5q-16 0 -37.5 -8.5t-42 -21.5t-34 -30.5t-13.5 -34.5q0 -2 1 -6l1 -4q2 -4 10.5 -16t18.5 -25.5t19.5 -25t13.5 -15.5q-6 -20 -20.5 -34.5t-30 -29t-26.5 -29t-11 -34.5z" />
<glyph unicode="&#x2022;" horiz-adv-x="788" d="M33 293q2 -41 22.5 -69.5t49 -46t61.5 -26t59 -8.5q98 0 184.5 55.5t152 140.5t103 184.5t37.5 187.5q0 35 2.5 77.5t-14.5 71.5q-35 68 -73.5 91.5t-73.5 31.5q-10 2 -17.5 3t-9.5 1q-123 0 -216 -74.5t-153 -187.5q-31 -49 -54 -112.5t-38.5 -125t-21.5 -113.5t0 -81z " />
<glyph unicode="&#x2026;" horiz-adv-x="1257" d="M18 102q0 20 11.5 36t29 26t38 16t36.5 6q47 0 84 -29.5t49 -74.5q-25 -49 -51.5 -67.5t-71.5 -18.5q-43 0 -84 29.5t-41 76.5zM410 109q0 20 11 35.5t28.5 25.5t38 16.5t36.5 6.5q47 0 84 -30t49 -75q-25 -49 -51 -67.5t-71 -18.5q-43 0 -84 30t-41 77zM813 109 q0 20 11.5 35.5t28.5 25.5t37.5 16.5t37.5 6.5q47 0 84 -30t49 -75q-25 -49 -51.5 -67.5t-71.5 -18.5q-43 0 -84 30t-41 77z" />
<glyph unicode="&#x202f;" horiz-adv-x="346" />
<glyph unicode="&#x2039;" horiz-adv-x="786" d="M4 737q0 -27 38 -84t98.5 -128.5t133 -147.5t143 -139.5t129 -103.5t89.5 -40q35 0 59.5 23.5t24.5 68.5q0 18 -6 43t-15.5 46.5t-24 37t-28.5 15.5q-20 0 -34.5 -13.5t-37.5 -13.5q-55 0 -97 32t-75.5 81t-64.5 105t-62 106q0 2 -1 6t-1 6q0 23 29 40t72 32.5t92 30 t92 33t71.5 43t28.5 58.5q0 31 -5 80.5t-9 89.5q-2 20 -11 38t-22.5 24t-31 -2t-37.5 -39l-49 -47q0 2 -14.5 -5t-34 -16.5t-40 -18.5t-34.5 -11q-53 -18 -88 -41t-69 -43.5t-71 -36t-92 -17.5q-29 -16 -37 -38.5t-8 -53.5z" />
<glyph unicode="&#x203a;" horiz-adv-x="786" d="M2 186q0 18 6 43t15.5 46.5t22.5 37t30 15.5q20 0 34.5 -13.5t36.5 -13.5q55 0 97.5 32t76 81t64.5 105t61 106q0 2 1.5 6t1.5 6q0 23 -29 40t-72 32.5t-92 30t-92 33t-72 43t-29 58.5q0 31 5.5 80.5t9.5 89.5q2 20 11 38t22.5 24t31 -2t37.5 -39l49 -47q0 2 14.5 -5 t34 -16.5t40 -18.5t34.5 -11q51 -18 87 -41t70 -43.5t70.5 -36t92.5 -17.5q29 -16 37 -38.5t8 -53.5q0 -27 -38 -84t-98.5 -128.5t-133 -147.5t-143.5 -139.5t-129 -103.5t-89 -40q-35 0 -59.5 23.5t-24.5 68.5z" />
<glyph unicode="&#x205f;" horiz-adv-x="432" />
<glyph unicode="&#x20ac;" horiz-adv-x="1105" d="M16 352v27q35 0 65 -27.5t58 -42.5l4 -2q4 -2 7 -2q4 0 7 2l3 2q2 2 9 17.5t11 25.5q8 25 26.5 79t42 122t51.5 143.5t52.5 143t44 121t29.5 77.5q12 31 29.5 40t42.5 9q76 0 148.5 -56t137 -145t119.5 -198.5t95 -215t62.5 -196t22.5 -139.5q0 -29 -2 -57.5t-11 -50 t-26.5 -31.5t-46.5 0q-137 43 -236 58.5t-173 16.5t-125 -4.5t-92 -4t-76 14.5t-74 52q-23 23 -57.5 58.5t-67.5 71.5t-56.5 62.5t-23.5 28.5z" />
<glyph unicode="&#x2122;" horiz-adv-x="1591" d="M12 883q0 -27 6.5 -51.5t34.5 -24.5q51 0 51 51q0 23 -7 40t-7 44q0 57 33 73.5t82 16.5q8 0 30.5 -2t50 -4t52 -4t37.5 -4q4 -2 16 -5t17 -7q0 -4 1 -21.5t1 -21.5v-11q0 -6 -1 -13t-1 -13v-6q-2 -10 -6.5 -40t-9.5 -65t-10 -68.5t-7 -50.5q-6 -33 -22.5 -49t-38 -23.5 t-47 -9.5t-50.5 -6q-12 -2 -13 -15t-1 -24q0 -23 13 -30t34 -7q76 0 122 52.5t72.5 125t37 151.5t16.5 132l12 13q6 2 23.5 5t38 8t38 8t23.5 5q14 2 35.5 9.5t42 19.5t34 28.5t13.5 38.5q0 4 -4 8.5t-9 4.5q-20 -10 -43.5 -19.5t-46.5 -15.5q-23 -2 -81 -4t-122.5 -4 t-122 -4t-79.5 -2q-41 -2 -72 -10.5t-55.5 -24t-48 -40t-49.5 -61.5q-10 -20 -11.5 -36.5t-1.5 -36.5zM532 586q0 -18 12.5 -30.5t30 -19t36 -8.5t30.5 -2q53 0 105.5 23.5t98.5 60.5t85 81t65 85q18 29 35 59.5t43 53.5v-316q0 -4 4 -8t8 -4q27 0 63 39t72.5 91t72.5 102.5 t63 72.5q0 -4 1 -14t1 -14q0 -59 -13.5 -117.5t-13.5 -118.5v-12q0 -10 1 -18.5t1 -18.5v-14q4 -10 16.5 -11.5t18.5 -1.5q14 0 34.5 6.5t41 17.5t35 27.5t14.5 36.5q-41 0 -56.5 12.5t-15.5 53.5q0 31 3 52.5t12 55.5q2 18 11 62.5t20.5 94.5t21.5 94t14 63v12 q0 10 -4 17.5t-14 7.5q-25 0 -46.5 -27t-39 -61.5t-31.5 -68.5t-22 -48q-6 -6 -18.5 -24.5t-27 -38t-26.5 -38t-19 -24.5q-8 -10 -21 -25.5t-25.5 -29t-22.5 -23.5l-10 -10h-13v371l-22 22l-22 -1q-22 -1 -52.5 -3t-63 -4t-53.5 -4q-49 -4 -104 -21.5t-103.5 -47t-79 -75 t-30.5 -104.5q0 -18 5 -37.5t30 -19.5q20 0 38.5 15t18.5 38v4l-10 47v10q0 47 40 75t83 28h225l10 -13l-6 -14q-6 -14 -14.5 -34.5t-18.5 -41t-16 -34.5q-18 -37 -50 -84.5t-72 -89t-86 -69.5t-95 -28q-18 0 -39 11.5t-39.5 23.5t-32.5 23.5t-20 11.5t-14.5 -12.5 t-16.5 -27.5t-14.5 -29.5t-6.5 -20.5z" />
<glyph unicode="&#xe000;" horiz-adv-x="825" d="M0 825h825v-825h-825v825z" />
<glyph unicode="&#xfb01;" horiz-adv-x="1417" d="M905 635q57 72 138.5 121t173.5 49q0 -123 -13.5 -243t-27.5 -230q-4 -12 -8 -26.5t-9 -31.5q0 -12 -2 -30.5t-6 -42.5q2 -25 13.5 -37t23.5 -20.5t25.5 -11.5t19.5 -9l4 -1q4 -1 6 -1q20 0 39 8t36.5 17.5t36.5 17.5t42 8v-29q0 -2 -11.5 -15t-27.5 -29.5t-33.5 -33 t-29.5 -24.5q-35 -25 -54.5 -34t-46.5 -9h-39q-35 0 -64.5 2t-62.5 20q-8 4 -16 10.5t-16 14.5v61q0 8 1 20.5t3 29.5q12 92 31.5 204.5t19.5 223.5v18q0 12 -1 27.5t-1 27.5v19q-35 -27 -56.5 -35t-56.5 -8q-4 0 -15.5 1t-15.5 1zM1047 993q0 14 15.5 30.5t34.5 31 t40.5 23.5t34.5 9q29 0 51 -11t51 -32q0 -2 1 -5t1 -5q0 -20 -14.5 -37.5t-36 -30t-45 -19.5t-41.5 -7q-12 0 -28.5 2t-30 8t-23.5 16.5t-10 26.5zM-492 -401q39 0 75 -8.5t70 -17.5t68.5 -17.5t73.5 -8.5q92 0 155.5 48.5t106.5 125t65.5 174t35 195.5t14.5 188.5t2 151.5 v21q0 14 -1 30.5t-1 30.5v20q0 4 -8 12.5t-12 8.5q-6 0 -20.5 1t-31.5 1q-16 0 -30.5 -1t-20.5 -1q-8 2 -16 17.5t-4 23.5q12 29 33.5 43t45 24.5t46 21.5t39.5 34q4 4 10 19.5t10 21.5q39 100 84 184t107.5 144.5t147.5 94t204 33.5q8 0 23.5 -1t29.5 -2t25.5 -2t13.5 -1 l20 -28q-2 -25 -11 -40.5t-19.5 -24.5t-19.5 -13t-11 -6h-307q-33 0 -56.5 -44t-39 -101.5t-22.5 -113t-7 -75.5q0 -12 1 -37t1 -29l20 -20q4 0 23.5 -2t34.5 -2h18q35 0 67.5 7t63.5 16.5t61.5 16.5t63.5 7q0 -37 -26.5 -63.5t-67.5 -46t-89 -33t-89 -24.5t-70 -20.5 t-31 -19.5q-4 -127 -13 -261t-42 -260t-96.5 -235.5t-175.5 -185.5q-47 -31 -85 -57.5t-78 -46t-85 -30.5t-107 -11q-88 0 -127 38t-39 136z" />
<glyph unicode="&#xfb02;" horiz-adv-x="1417" d="M905 942q0 -4 8.5 -12t12.5 -8q2 0 11 3t19.5 6t19.5 7t11 4q4 2 17.5 -1t17.5 -3q0 -94 -9 -187.5t-19.5 -185.5t-19.5 -184t-9 -186v-31q0 -23 1 -47.5t1 -46.5v-29q10 -35 30.5 -39t47.5 -4q47 0 92 16.5t86 42t80 54t74 53.5h20v86q-2 0 -10 -1t-10 -3 q-12 -6 -38 -23.5t-54.5 -35t-56.5 -32t-46 -14.5q-2 0 -6 1l-4 1q-6 4 -21.5 19.5t-19.5 21.5q0 8 -1 32t-1 50q0 27 -1 49.5t-1 32.5q0 98 12 193.5t26.5 190.5t26.5 190.5t12 193.5q-90 0 -169 -51t-130 -123zM-492 -401q39 0 75 -8.5t70 -17.5t68.5 -17.5t73.5 -8.5 q92 0 155.5 48.5t106.5 125t65.5 174t35 195.5t14.5 188.5t2 151.5v21q0 14 -1 30.5t-1 30.5v20q0 4 -8 12.5t-12 8.5q-6 0 -20.5 1t-31.5 1q-16 0 -30.5 -1t-20.5 -1q-8 2 -16 17.5t-4 23.5q12 29 33.5 43t45 24.5t46 21.5t39.5 34q4 4 10 19.5t10 21.5q39 100 84 184 t107.5 144.5t147.5 94t204 33.5q8 0 23.5 -1t29.5 -2t25.5 -2t13.5 -1l20 -28q-2 -25 -11 -40.5t-19.5 -24.5t-19.5 -13t-11 -6h-307q-33 0 -56.5 -44t-39 -101.5t-22.5 -113t-7 -75.5q0 -12 1 -37t1 -29l20 -20q4 0 23.5 -2t34.5 -2h18q35 0 67.5 7t63.5 16.5t61.5 16.5 t63.5 7q0 -37 -26.5 -63.5t-67.5 -46t-89 -33t-89 -24.5t-70 -20.5t-31 -19.5q-4 -127 -13 -261t-42 -260t-96.5 -235.5t-175.5 -185.5q-47 -31 -85 -57.5t-78 -46t-85 -30.5t-107 -11q-88 0 -127 38t-39 136z" />
<glyph unicode="&#xfb03;" horiz-adv-x="2301" d="M1789 635q57 72 138.5 121t173.5 49q0 -123 -13.5 -243t-27.5 -230q-4 -12 -8 -26.5t-9 -31.5q0 -12 -2 -30.5t-6 -42.5q2 -25 13.5 -37t23.5 -20.5t25.5 -11.5t19.5 -9l4 -1q4 -1 6 -1q20 0 39 8t36.5 17.5t36.5 17.5t42 8v-29q0 -2 -11.5 -15t-27.5 -29.5t-33.5 -33 t-29.5 -24.5q-35 -25 -54.5 -34t-46.5 -9h-39q-35 0 -64.5 2t-62.5 20q-8 4 -16 10.5t-16 14.5v61q0 8 1 20.5t3 29.5q12 92 31.5 204.5t19.5 223.5v18q0 12 -1 27.5t-1 27.5v19q-35 -27 -56.5 -35t-56.5 -8q-4 0 -15.5 1t-15.5 1zM1931 993q0 14 15.5 30.5t34.5 31 t40.5 23.5t34.5 9q29 0 51 -11t51 -32q0 -2 1 -5t1 -5q0 -20 -14.5 -37.5t-36 -30t-45 -19.5t-41.5 -7q-12 0 -28.5 2t-30 8t-23.5 16.5t-10 26.5zM393 -401q39 0 75 -8.5t70 -17.5t68.5 -17.5t73.5 -8.5q92 0 155.5 48.5t106.5 125t65.5 174t35 195.5t14.5 188.5t2 151.5 v21q0 14 -1 30.5t-1 30.5v20q0 4 -8 12.5t-12 8.5q-6 0 -20.5 1t-31.5 1q-16 0 -30.5 -1t-20.5 -1q-8 2 -16 17.5t-4 23.5q12 29 33.5 43t45 24.5t46 21.5t39.5 34q4 4 10 19.5t10 21.5q39 100 84 184t107.5 144.5t147.5 94t204 33.5q8 0 23.5 -1t29.5 -2t25.5 -2t13.5 -1 l20 -28q-2 -25 -11 -40.5t-19.5 -24.5t-19.5 -13t-11 -6h-307q-33 0 -56.5 -44t-39 -101.5t-22.5 -113t-7 -75.5q0 -12 1 -37t1 -29l20 -20q4 0 23.5 -2t34.5 -2h18q35 0 67.5 7t63.5 16.5t61.5 16.5t63.5 7q0 -37 -26.5 -63.5t-67.5 -46t-89 -33t-89 -24.5t-70 -20.5 t-31 -19.5q-4 -127 -13 -261t-42 -260t-96.5 -235.5t-175.5 -185.5q-47 -31 -85 -57.5t-78 -46t-85 -30.5t-107 -11q-88 0 -127 38t-39 136zM-492 -401q39 0 75 -8.5t70 -17.5t68.5 -17.5t73.5 -8.5q92 0 155.5 48.5t106.5 125t65.5 174t35 195.5t14.5 188.5t2 151.5v21 q0 14 -1 30.5t-1 30.5v20q0 4 -8 12.5t-12 8.5q-6 0 -20.5 1t-31.5 1q-16 0 -30.5 -1t-20.5 -1q-8 2 -16 17.5t-4 23.5q12 29 33.5 43t45 24.5t46 21.5t39.5 34q4 4 10 19.5t10 21.5q39 100 84 184t107.5 144.5t147.5 94t204 33.5q8 0 23.5 -1t29.5 -2t25.5 -2t13.5 -1 l20 -28q-2 -25 -11 -40.5t-19.5 -24.5t-19.5 -13t-11 -6h-307q-33 0 -56.5 -44t-39 -101.5t-22.5 -113t-7 -75.5q0 -12 1 -37t1 -29l20 -20q4 0 23.5 -2t34.5 -2h18q35 0 67.5 7t63.5 16.5t61.5 16.5t63.5 7q0 -37 -26.5 -63.5t-67.5 -46t-89 -33t-89 -24.5t-70 -20.5 t-31 -19.5q-4 -127 -13 -261t-42 -260t-96.5 -235.5t-175.5 -185.5q-47 -31 -85 -57.5t-78 -46t-85 -30.5t-107 -11q-88 0 -127 38t-39 136z" />
<glyph unicode="&#xfb04;" horiz-adv-x="2301" d="M1789 942q0 -4 8.5 -12t12.5 -8q2 0 11 3t19.5 6t19.5 7t11 4q4 2 17.5 -1t17.5 -3q0 -94 -9 -187.5t-19.5 -185.5t-19.5 -184t-9 -186v-31q0 -23 1 -47.5t1 -46.5v-29q10 -35 30.5 -39t47.5 -4q47 0 92 16.5t86 42t80 54t74 53.5h20v86q-2 0 -10 -1t-10 -3 q-12 -6 -38 -23.5t-54.5 -35t-56.5 -32t-46 -14.5q-2 0 -6 1l-4 1q-6 4 -21.5 19.5t-19.5 21.5q0 8 -1 32t-1 50q0 27 -1 49.5t-1 32.5q0 98 12 193.5t26.5 190.5t26.5 190.5t12 193.5q-90 0 -169 -51t-130 -123zM393 -401q39 0 75 -8.5t70 -17.5t68.5 -17.5t73.5 -8.5 q92 0 155.5 48.5t106.5 125t65.5 174t35 195.5t14.5 188.5t2 151.5v21q0 14 -1 30.5t-1 30.5v20q0 4 -8 12.5t-12 8.5q-6 0 -20.5 1t-31.5 1q-16 0 -30.5 -1t-20.5 -1q-8 2 -16 17.5t-4 23.5q12 29 33.5 43t45 24.5t46 21.5t39.5 34q4 4 10 19.5t10 21.5q39 100 84 184 t107.5 144.5t147.5 94t204 33.5q8 0 23.5 -1t29.5 -2t25.5 -2t13.5 -1l20 -28q-2 -25 -11 -40.5t-19.5 -24.5t-19.5 -13t-11 -6h-307q-33 0 -56.5 -44t-39 -101.5t-22.5 -113t-7 -75.5q0 -12 1 -37t1 -29l20 -20q4 0 23.5 -2t34.5 -2h18q35 0 67.5 7t63.5 16.5t61.5 16.5 t63.5 7q0 -37 -26.5 -63.5t-67.5 -46t-89 -33t-89 -24.5t-70 -20.5t-31 -19.5q-4 -127 -13 -261t-42 -260t-96.5 -235.5t-175.5 -185.5q-47 -31 -85 -57.5t-78 -46t-85 -30.5t-107 -11q-88 0 -127 38t-39 136zM-492 -401q39 0 75 -8.5t70 -17.5t68.5 -17.5t73.5 -8.5 q92 0 155.5 48.5t106.5 125t65.5 174t35 195.5t14.5 188.5t2 151.5v21q0 14 -1 30.5t-1 30.5v20q0 4 -8 12.5t-12 8.5q-6 0 -20.5 1t-31.5 1q-16 0 -30.5 -1t-20.5 -1q-8 2 -16 17.5t-4 23.5q12 29 33.5 43t45 24.5t46 21.5t39.5 34q4 4 10 19.5t10 21.5q39 100 84 184 t107.5 144.5t147.5 94t204 33.5q8 0 23.5 -1t29.5 -2t25.5 -2t13.5 -1l20 -28q-2 -25 -11 -40.5t-19.5 -24.5t-19.5 -13t-11 -6h-307q-33 0 -56.5 -44t-39 -101.5t-22.5 -113t-7 -75.5q0 -12 1 -37t1 -29l20 -20q4 0 23.5 -2t34.5 -2h18q35 0 67.5 7t63.5 16.5t61.5 16.5 t63.5 7q0 -37 -26.5 -63.5t-67.5 -46t-89 -33t-89 -24.5t-70 -20.5t-31 -19.5q-4 -127 -13 -261t-42 -260t-96.5 -235.5t-175.5 -185.5q-47 -31 -85 -57.5t-78 -46t-85 -30.5t-107 -11q-88 0 -127 38t-39 136z" />
</font>
</defs>
</svg>
